<?xml version="1.0" encoding="utf-8" standalone="no"?>
<!DOCTYPE svg PUBLIC "-//W3C//DTD SVG 1.1//EN"
  "http://www.w3.org/Graphics/SVG/1.1/DTD/svg11.dtd">
<!-- Created with matplotlib (https://matplotlib.org/) -->
<svg height="599.303844pt" version="1.1" viewBox="0 0 1159.985 599.303844" width="1159.985pt" xmlns="http://www.w3.org/2000/svg" xmlns:xlink="http://www.w3.org/1999/xlink">
 <defs>
  <style type="text/css">
*{stroke-linecap:butt;stroke-linejoin:round;}
  </style>
 </defs>
 <g id="figure_1">
  <g id="patch_1">
   <path d="M 0 599.303844 
L 1159.985 599.303844 
L 1159.985 0 
L 0 0 
z
" style="fill:none;"/>
  </g>
  <g id="axes_1">
   <g id="patch_2">
    <path d="M 64.24625 546.262594 
L 1135.60625 546.262594 
L 1135.60625 14.038594 
L 64.24625 14.038594 
z
" style="fill:none;"/>
   </g>
   <g id="matplotlib.axis_1">
    <g id="xtick_1">
     <g id="line2d_1">
      <path clip-path="url(#p0c56e0242c)" d="M 115.263393 546.262594 
L 115.263393 14.038594 
" style="fill:none;stroke:#b0b0b0;stroke-dasharray:5.12,1.28,0.8,1.28;stroke-dashoffset:0;stroke-opacity:0.4;stroke-width:0.8;"/>
     </g>
     <g id="line2d_2">
      <defs>
       <path d="M 0 0 
L 0 3.5 
" id="m415b041acd" style="stroke:#000000;stroke-width:0.8;"/>
      </defs>
      <g>
       <use style="stroke:#000000;stroke-width:0.8;" x="115.263393" xlink:href="#m415b041acd" y="546.262594"/>
      </g>
     </g>
     <g id="text_1">
      <!-- 0 -->
      <defs>
       <path d="M 31.78125 66.40625 
Q 24.171875 66.40625 20.328125 58.90625 
Q 16.5 51.421875 16.5 36.375 
Q 16.5 21.390625 20.328125 13.890625 
Q 24.171875 6.390625 31.78125 6.390625 
Q 39.453125 6.390625 43.28125 13.890625 
Q 47.125 21.390625 47.125 36.375 
Q 47.125 51.421875 43.28125 58.90625 
Q 39.453125 66.40625 31.78125 66.40625 
z
M 31.78125 74.21875 
Q 44.046875 74.21875 50.515625 64.515625 
Q 56.984375 54.828125 56.984375 36.375 
Q 56.984375 17.96875 50.515625 8.265625 
Q 44.046875 -1.421875 31.78125 -1.421875 
Q 19.53125 -1.421875 13.0625 8.265625 
Q 6.59375 17.96875 6.59375 36.375 
Q 6.59375 54.828125 13.0625 64.515625 
Q 19.53125 74.21875 31.78125 74.21875 
z
" id="DejaVuSans-48"/>
      </defs>
      <g transform="translate(109.537143 566.939781)scale(0.18 -0.18)">
       <use xlink:href="#DejaVuSans-48"/>
      </g>
     </g>
    </g>
    <g id="xtick_2">
     <g id="line2d_3">
      <path clip-path="url(#p0c56e0242c)" d="M 217.297679 546.262594 
L 217.297679 14.038594 
" style="fill:none;stroke:#b0b0b0;stroke-dasharray:5.12,1.28,0.8,1.28;stroke-dashoffset:0;stroke-opacity:0.4;stroke-width:0.8;"/>
     </g>
     <g id="line2d_4">
      <g>
       <use style="stroke:#000000;stroke-width:0.8;" x="217.297679" xlink:href="#m415b041acd" y="546.262594"/>
      </g>
     </g>
     <g id="text_2">
      <!-- 10 -->
      <defs>
       <path d="M 12.40625 8.296875 
L 28.515625 8.296875 
L 28.515625 63.921875 
L 10.984375 60.40625 
L 10.984375 69.390625 
L 28.421875 72.90625 
L 38.28125 72.90625 
L 38.28125 8.296875 
L 54.390625 8.296875 
L 54.390625 0 
L 12.40625 0 
z
" id="DejaVuSans-49"/>
      </defs>
      <g transform="translate(205.845179 566.939781)scale(0.18 -0.18)">
       <use xlink:href="#DejaVuSans-49"/>
       <use x="63.623047" xlink:href="#DejaVuSans-48"/>
      </g>
     </g>
    </g>
    <g id="xtick_3">
     <g id="line2d_5">
      <path clip-path="url(#p0c56e0242c)" d="M 319.331964 546.262594 
L 319.331964 14.038594 
" style="fill:none;stroke:#b0b0b0;stroke-dasharray:5.12,1.28,0.8,1.28;stroke-dashoffset:0;stroke-opacity:0.4;stroke-width:0.8;"/>
     </g>
     <g id="line2d_6">
      <g>
       <use style="stroke:#000000;stroke-width:0.8;" x="319.331964" xlink:href="#m415b041acd" y="546.262594"/>
      </g>
     </g>
     <g id="text_3">
      <!-- 20 -->
      <defs>
       <path d="M 19.1875 8.296875 
L 53.609375 8.296875 
L 53.609375 0 
L 7.328125 0 
L 7.328125 8.296875 
Q 12.9375 14.109375 22.625 23.890625 
Q 32.328125 33.6875 34.8125 36.53125 
Q 39.546875 41.84375 41.421875 45.53125 
Q 43.3125 49.21875 43.3125 52.78125 
Q 43.3125 58.59375 39.234375 62.25 
Q 35.15625 65.921875 28.609375 65.921875 
Q 23.96875 65.921875 18.8125 64.3125 
Q 13.671875 62.703125 7.8125 59.421875 
L 7.8125 69.390625 
Q 13.765625 71.78125 18.9375 73 
Q 24.125 74.21875 28.421875 74.21875 
Q 39.75 74.21875 46.484375 68.546875 
Q 53.21875 62.890625 53.21875 53.421875 
Q 53.21875 48.921875 51.53125 44.890625 
Q 49.859375 40.875 45.40625 35.40625 
Q 44.1875 33.984375 37.640625 27.21875 
Q 31.109375 20.453125 19.1875 8.296875 
z
" id="DejaVuSans-50"/>
      </defs>
      <g transform="translate(307.879464 566.939781)scale(0.18 -0.18)">
       <use xlink:href="#DejaVuSans-50"/>
       <use x="63.623047" xlink:href="#DejaVuSans-48"/>
      </g>
     </g>
    </g>
    <g id="xtick_4">
     <g id="line2d_7">
      <path clip-path="url(#p0c56e0242c)" d="M 421.36625 546.262594 
L 421.36625 14.038594 
" style="fill:none;stroke:#b0b0b0;stroke-dasharray:5.12,1.28,0.8,1.28;stroke-dashoffset:0;stroke-opacity:0.4;stroke-width:0.8;"/>
     </g>
     <g id="line2d_8">
      <g>
       <use style="stroke:#000000;stroke-width:0.8;" x="421.36625" xlink:href="#m415b041acd" y="546.262594"/>
      </g>
     </g>
     <g id="text_4">
      <!-- 30 -->
      <defs>
       <path d="M 40.578125 39.3125 
Q 47.65625 37.796875 51.625 33 
Q 55.609375 28.21875 55.609375 21.1875 
Q 55.609375 10.40625 48.1875 4.484375 
Q 40.765625 -1.421875 27.09375 -1.421875 
Q 22.515625 -1.421875 17.65625 -0.515625 
Q 12.796875 0.390625 7.625 2.203125 
L 7.625 11.71875 
Q 11.71875 9.328125 16.59375 8.109375 
Q 21.484375 6.890625 26.8125 6.890625 
Q 36.078125 6.890625 40.9375 10.546875 
Q 45.796875 14.203125 45.796875 21.1875 
Q 45.796875 27.640625 41.28125 31.265625 
Q 36.765625 34.90625 28.71875 34.90625 
L 20.21875 34.90625 
L 20.21875 43.015625 
L 29.109375 43.015625 
Q 36.375 43.015625 40.234375 45.921875 
Q 44.09375 48.828125 44.09375 54.296875 
Q 44.09375 59.90625 40.109375 62.90625 
Q 36.140625 65.921875 28.71875 65.921875 
Q 24.65625 65.921875 20.015625 65.03125 
Q 15.375 64.15625 9.8125 62.3125 
L 9.8125 71.09375 
Q 15.4375 72.65625 20.34375 73.4375 
Q 25.25 74.21875 29.59375 74.21875 
Q 40.828125 74.21875 47.359375 69.109375 
Q 53.90625 64.015625 53.90625 55.328125 
Q 53.90625 49.265625 50.4375 45.09375 
Q 46.96875 40.921875 40.578125 39.3125 
z
" id="DejaVuSans-51"/>
      </defs>
      <g transform="translate(409.91375 566.939781)scale(0.18 -0.18)">
       <use xlink:href="#DejaVuSans-51"/>
       <use x="63.623047" xlink:href="#DejaVuSans-48"/>
      </g>
     </g>
    </g>
    <g id="xtick_5">
     <g id="line2d_9">
      <path clip-path="url(#p0c56e0242c)" d="M 523.400536 546.262594 
L 523.400536 14.038594 
" style="fill:none;stroke:#b0b0b0;stroke-dasharray:5.12,1.28,0.8,1.28;stroke-dashoffset:0;stroke-opacity:0.4;stroke-width:0.8;"/>
     </g>
     <g id="line2d_10">
      <g>
       <use style="stroke:#000000;stroke-width:0.8;" x="523.400536" xlink:href="#m415b041acd" y="546.262594"/>
      </g>
     </g>
     <g id="text_5">
      <!-- 40 -->
      <defs>
       <path d="M 37.796875 64.3125 
L 12.890625 25.390625 
L 37.796875 25.390625 
z
M 35.203125 72.90625 
L 47.609375 72.90625 
L 47.609375 25.390625 
L 58.015625 25.390625 
L 58.015625 17.1875 
L 47.609375 17.1875 
L 47.609375 0 
L 37.796875 0 
L 37.796875 17.1875 
L 4.890625 17.1875 
L 4.890625 26.703125 
z
" id="DejaVuSans-52"/>
      </defs>
      <g transform="translate(511.948036 566.939781)scale(0.18 -0.18)">
       <use xlink:href="#DejaVuSans-52"/>
       <use x="63.623047" xlink:href="#DejaVuSans-48"/>
      </g>
     </g>
    </g>
    <g id="xtick_6">
     <g id="line2d_11">
      <path clip-path="url(#p0c56e0242c)" d="M 625.434821 546.262594 
L 625.434821 14.038594 
" style="fill:none;stroke:#b0b0b0;stroke-dasharray:5.12,1.28,0.8,1.28;stroke-dashoffset:0;stroke-opacity:0.4;stroke-width:0.8;"/>
     </g>
     <g id="line2d_12">
      <g>
       <use style="stroke:#000000;stroke-width:0.8;" x="625.434821" xlink:href="#m415b041acd" y="546.262594"/>
      </g>
     </g>
     <g id="text_6">
      <!-- 50 -->
      <defs>
       <path d="M 10.796875 72.90625 
L 49.515625 72.90625 
L 49.515625 64.59375 
L 19.828125 64.59375 
L 19.828125 46.734375 
Q 21.96875 47.46875 24.109375 47.828125 
Q 26.265625 48.1875 28.421875 48.1875 
Q 40.625 48.1875 47.75 41.5 
Q 54.890625 34.8125 54.890625 23.390625 
Q 54.890625 11.625 47.5625 5.09375 
Q 40.234375 -1.421875 26.90625 -1.421875 
Q 22.3125 -1.421875 17.546875 -0.640625 
Q 12.796875 0.140625 7.71875 1.703125 
L 7.71875 11.625 
Q 12.109375 9.234375 16.796875 8.0625 
Q 21.484375 6.890625 26.703125 6.890625 
Q 35.15625 6.890625 40.078125 11.328125 
Q 45.015625 15.765625 45.015625 23.390625 
Q 45.015625 31 40.078125 35.4375 
Q 35.15625 39.890625 26.703125 39.890625 
Q 22.75 39.890625 18.8125 39.015625 
Q 14.890625 38.140625 10.796875 36.28125 
z
" id="DejaVuSans-53"/>
      </defs>
      <g transform="translate(613.982321 566.939781)scale(0.18 -0.18)">
       <use xlink:href="#DejaVuSans-53"/>
       <use x="63.623047" xlink:href="#DejaVuSans-48"/>
      </g>
     </g>
    </g>
    <g id="xtick_7">
     <g id="line2d_13">
      <path clip-path="url(#p0c56e0242c)" d="M 727.469107 546.262594 
L 727.469107 14.038594 
" style="fill:none;stroke:#b0b0b0;stroke-dasharray:5.12,1.28,0.8,1.28;stroke-dashoffset:0;stroke-opacity:0.4;stroke-width:0.8;"/>
     </g>
     <g id="line2d_14">
      <g>
       <use style="stroke:#000000;stroke-width:0.8;" x="727.469107" xlink:href="#m415b041acd" y="546.262594"/>
      </g>
     </g>
     <g id="text_7">
      <!-- 60 -->
      <defs>
       <path d="M 33.015625 40.375 
Q 26.375 40.375 22.484375 35.828125 
Q 18.609375 31.296875 18.609375 23.390625 
Q 18.609375 15.53125 22.484375 10.953125 
Q 26.375 6.390625 33.015625 6.390625 
Q 39.65625 6.390625 43.53125 10.953125 
Q 47.40625 15.53125 47.40625 23.390625 
Q 47.40625 31.296875 43.53125 35.828125 
Q 39.65625 40.375 33.015625 40.375 
z
M 52.59375 71.296875 
L 52.59375 62.3125 
Q 48.875 64.0625 45.09375 64.984375 
Q 41.3125 65.921875 37.59375 65.921875 
Q 27.828125 65.921875 22.671875 59.328125 
Q 17.53125 52.734375 16.796875 39.40625 
Q 19.671875 43.65625 24.015625 45.921875 
Q 28.375 48.1875 33.59375 48.1875 
Q 44.578125 48.1875 50.953125 41.515625 
Q 57.328125 34.859375 57.328125 23.390625 
Q 57.328125 12.15625 50.6875 5.359375 
Q 44.046875 -1.421875 33.015625 -1.421875 
Q 20.359375 -1.421875 13.671875 8.265625 
Q 6.984375 17.96875 6.984375 36.375 
Q 6.984375 53.65625 15.1875 63.9375 
Q 23.390625 74.21875 37.203125 74.21875 
Q 40.921875 74.21875 44.703125 73.484375 
Q 48.484375 72.75 52.59375 71.296875 
z
" id="DejaVuSans-54"/>
      </defs>
      <g transform="translate(716.016607 566.939781)scale(0.18 -0.18)">
       <use xlink:href="#DejaVuSans-54"/>
       <use x="63.623047" xlink:href="#DejaVuSans-48"/>
      </g>
     </g>
    </g>
    <g id="xtick_8">
     <g id="line2d_15">
      <path clip-path="url(#p0c56e0242c)" d="M 829.503393 546.262594 
L 829.503393 14.038594 
" style="fill:none;stroke:#b0b0b0;stroke-dasharray:5.12,1.28,0.8,1.28;stroke-dashoffset:0;stroke-opacity:0.4;stroke-width:0.8;"/>
     </g>
     <g id="line2d_16">
      <g>
       <use style="stroke:#000000;stroke-width:0.8;" x="829.503393" xlink:href="#m415b041acd" y="546.262594"/>
      </g>
     </g>
     <g id="text_8">
      <!-- 70 -->
      <defs>
       <path d="M 8.203125 72.90625 
L 55.078125 72.90625 
L 55.078125 68.703125 
L 28.609375 0 
L 18.3125 0 
L 43.21875 64.59375 
L 8.203125 64.59375 
z
" id="DejaVuSans-55"/>
      </defs>
      <g transform="translate(818.050893 566.939781)scale(0.18 -0.18)">
       <use xlink:href="#DejaVuSans-55"/>
       <use x="63.623047" xlink:href="#DejaVuSans-48"/>
      </g>
     </g>
    </g>
    <g id="xtick_9">
     <g id="line2d_17">
      <path clip-path="url(#p0c56e0242c)" d="M 931.537679 546.262594 
L 931.537679 14.038594 
" style="fill:none;stroke:#b0b0b0;stroke-dasharray:5.12,1.28,0.8,1.28;stroke-dashoffset:0;stroke-opacity:0.4;stroke-width:0.8;"/>
     </g>
     <g id="line2d_18">
      <g>
       <use style="stroke:#000000;stroke-width:0.8;" x="931.537679" xlink:href="#m415b041acd" y="546.262594"/>
      </g>
     </g>
     <g id="text_9">
      <!-- 80 -->
      <defs>
       <path d="M 31.78125 34.625 
Q 24.75 34.625 20.71875 30.859375 
Q 16.703125 27.09375 16.703125 20.515625 
Q 16.703125 13.921875 20.71875 10.15625 
Q 24.75 6.390625 31.78125 6.390625 
Q 38.8125 6.390625 42.859375 10.171875 
Q 46.921875 13.96875 46.921875 20.515625 
Q 46.921875 27.09375 42.890625 30.859375 
Q 38.875 34.625 31.78125 34.625 
z
M 21.921875 38.8125 
Q 15.578125 40.375 12.03125 44.71875 
Q 8.5 49.078125 8.5 55.328125 
Q 8.5 64.0625 14.71875 69.140625 
Q 20.953125 74.21875 31.78125 74.21875 
Q 42.671875 74.21875 48.875 69.140625 
Q 55.078125 64.0625 55.078125 55.328125 
Q 55.078125 49.078125 51.53125 44.71875 
Q 48 40.375 41.703125 38.8125 
Q 48.828125 37.15625 52.796875 32.3125 
Q 56.78125 27.484375 56.78125 20.515625 
Q 56.78125 9.90625 50.3125 4.234375 
Q 43.84375 -1.421875 31.78125 -1.421875 
Q 19.734375 -1.421875 13.25 4.234375 
Q 6.78125 9.90625 6.78125 20.515625 
Q 6.78125 27.484375 10.78125 32.3125 
Q 14.796875 37.15625 21.921875 38.8125 
z
M 18.3125 54.390625 
Q 18.3125 48.734375 21.84375 45.5625 
Q 25.390625 42.390625 31.78125 42.390625 
Q 38.140625 42.390625 41.71875 45.5625 
Q 45.3125 48.734375 45.3125 54.390625 
Q 45.3125 60.0625 41.71875 63.234375 
Q 38.140625 66.40625 31.78125 66.40625 
Q 25.390625 66.40625 21.84375 63.234375 
Q 18.3125 60.0625 18.3125 54.390625 
z
" id="DejaVuSans-56"/>
      </defs>
      <g transform="translate(920.085179 566.939781)scale(0.18 -0.18)">
       <use xlink:href="#DejaVuSans-56"/>
       <use x="63.623047" xlink:href="#DejaVuSans-48"/>
      </g>
     </g>
    </g>
    <g id="xtick_10">
     <g id="line2d_19">
      <path clip-path="url(#p0c56e0242c)" d="M 1033.571964 546.262594 
L 1033.571964 14.038594 
" style="fill:none;stroke:#b0b0b0;stroke-dasharray:5.12,1.28,0.8,1.28;stroke-dashoffset:0;stroke-opacity:0.4;stroke-width:0.8;"/>
     </g>
     <g id="line2d_20">
      <g>
       <use style="stroke:#000000;stroke-width:0.8;" x="1033.571964" xlink:href="#m415b041acd" y="546.262594"/>
      </g>
     </g>
     <g id="text_10">
      <!-- 90 -->
      <defs>
       <path d="M 10.984375 1.515625 
L 10.984375 10.5 
Q 14.703125 8.734375 18.5 7.8125 
Q 22.3125 6.890625 25.984375 6.890625 
Q 35.75 6.890625 40.890625 13.453125 
Q 46.046875 20.015625 46.78125 33.40625 
Q 43.953125 29.203125 39.59375 26.953125 
Q 35.25 24.703125 29.984375 24.703125 
Q 19.046875 24.703125 12.671875 31.3125 
Q 6.296875 37.9375 6.296875 49.421875 
Q 6.296875 60.640625 12.9375 67.421875 
Q 19.578125 74.21875 30.609375 74.21875 
Q 43.265625 74.21875 49.921875 64.515625 
Q 56.59375 54.828125 56.59375 36.375 
Q 56.59375 19.140625 48.40625 8.859375 
Q 40.234375 -1.421875 26.421875 -1.421875 
Q 22.703125 -1.421875 18.890625 -0.6875 
Q 15.09375 0.046875 10.984375 1.515625 
z
M 30.609375 32.421875 
Q 37.25 32.421875 41.125 36.953125 
Q 45.015625 41.5 45.015625 49.421875 
Q 45.015625 57.28125 41.125 61.84375 
Q 37.25 66.40625 30.609375 66.40625 
Q 23.96875 66.40625 20.09375 61.84375 
Q 16.21875 57.28125 16.21875 49.421875 
Q 16.21875 41.5 20.09375 36.953125 
Q 23.96875 32.421875 30.609375 32.421875 
z
" id="DejaVuSans-57"/>
      </defs>
      <g transform="translate(1022.119464 566.939781)scale(0.18 -0.18)">
       <use xlink:href="#DejaVuSans-57"/>
       <use x="63.623047" xlink:href="#DejaVuSans-48"/>
      </g>
     </g>
    </g>
    <g id="xtick_11">
     <g id="line2d_21">
      <path clip-path="url(#p0c56e0242c)" d="M 1135.60625 546.262594 
L 1135.60625 14.038594 
" style="fill:none;stroke:#b0b0b0;stroke-dasharray:5.12,1.28,0.8,1.28;stroke-dashoffset:0;stroke-opacity:0.4;stroke-width:0.8;"/>
     </g>
     <g id="line2d_22">
      <g>
       <use style="stroke:#000000;stroke-width:0.8;" x="1135.60625" xlink:href="#m415b041acd" y="546.262594"/>
      </g>
     </g>
     <g id="text_11">
      <!-- 100 -->
      <g transform="translate(1118.4275 566.939781)scale(0.18 -0.18)">
       <use xlink:href="#DejaVuSans-49"/>
       <use x="63.623047" xlink:href="#DejaVuSans-48"/>
       <use x="127.246094" xlink:href="#DejaVuSans-48"/>
      </g>
     </g>
    </g>
    <g id="text_12">
     <!-- epochs -->
     <defs>
      <path d="M 56.203125 29.59375 
L 56.203125 25.203125 
L 14.890625 25.203125 
Q 15.484375 15.921875 20.484375 11.0625 
Q 25.484375 6.203125 34.421875 6.203125 
Q 39.59375 6.203125 44.453125 7.46875 
Q 49.3125 8.734375 54.109375 11.28125 
L 54.109375 2.78125 
Q 49.265625 0.734375 44.1875 -0.34375 
Q 39.109375 -1.421875 33.890625 -1.421875 
Q 20.796875 -1.421875 13.15625 6.1875 
Q 5.515625 13.8125 5.515625 26.8125 
Q 5.515625 40.234375 12.765625 48.109375 
Q 20.015625 56 32.328125 56 
Q 43.359375 56 49.78125 48.890625 
Q 56.203125 41.796875 56.203125 29.59375 
z
M 47.21875 32.234375 
Q 47.125 39.59375 43.09375 43.984375 
Q 39.0625 48.390625 32.421875 48.390625 
Q 24.90625 48.390625 20.390625 44.140625 
Q 15.875 39.890625 15.1875 32.171875 
z
" id="DejaVuSans-101"/>
      <path d="M 18.109375 8.203125 
L 18.109375 -20.796875 
L 9.078125 -20.796875 
L 9.078125 54.6875 
L 18.109375 54.6875 
L 18.109375 46.390625 
Q 20.953125 51.265625 25.265625 53.625 
Q 29.59375 56 35.59375 56 
Q 45.5625 56 51.78125 48.09375 
Q 58.015625 40.1875 58.015625 27.296875 
Q 58.015625 14.40625 51.78125 6.484375 
Q 45.5625 -1.421875 35.59375 -1.421875 
Q 29.59375 -1.421875 25.265625 0.953125 
Q 20.953125 3.328125 18.109375 8.203125 
z
M 48.6875 27.296875 
Q 48.6875 37.203125 44.609375 42.84375 
Q 40.53125 48.484375 33.40625 48.484375 
Q 26.265625 48.484375 22.1875 42.84375 
Q 18.109375 37.203125 18.109375 27.296875 
Q 18.109375 17.390625 22.1875 11.75 
Q 26.265625 6.109375 33.40625 6.109375 
Q 40.53125 6.109375 44.609375 11.75 
Q 48.6875 17.390625 48.6875 27.296875 
z
" id="DejaVuSans-112"/>
      <path d="M 30.609375 48.390625 
Q 23.390625 48.390625 19.1875 42.75 
Q 14.984375 37.109375 14.984375 27.296875 
Q 14.984375 17.484375 19.15625 11.84375 
Q 23.34375 6.203125 30.609375 6.203125 
Q 37.796875 6.203125 41.984375 11.859375 
Q 46.1875 17.53125 46.1875 27.296875 
Q 46.1875 37.015625 41.984375 42.703125 
Q 37.796875 48.390625 30.609375 48.390625 
z
M 30.609375 56 
Q 42.328125 56 49.015625 48.375 
Q 55.71875 40.765625 55.71875 27.296875 
Q 55.71875 13.875 49.015625 6.21875 
Q 42.328125 -1.421875 30.609375 -1.421875 
Q 18.84375 -1.421875 12.171875 6.21875 
Q 5.515625 13.875 5.515625 27.296875 
Q 5.515625 40.765625 12.171875 48.375 
Q 18.84375 56 30.609375 56 
z
" id="DejaVuSans-111"/>
      <path d="M 48.78125 52.59375 
L 48.78125 44.1875 
Q 44.96875 46.296875 41.140625 47.34375 
Q 37.3125 48.390625 33.40625 48.390625 
Q 24.65625 48.390625 19.8125 42.84375 
Q 14.984375 37.3125 14.984375 27.296875 
Q 14.984375 17.28125 19.8125 11.734375 
Q 24.65625 6.203125 33.40625 6.203125 
Q 37.3125 6.203125 41.140625 7.25 
Q 44.96875 8.296875 48.78125 10.40625 
L 48.78125 2.09375 
Q 45.015625 0.34375 40.984375 -0.53125 
Q 36.96875 -1.421875 32.421875 -1.421875 
Q 20.0625 -1.421875 12.78125 6.34375 
Q 5.515625 14.109375 5.515625 27.296875 
Q 5.515625 40.671875 12.859375 48.328125 
Q 20.21875 56 33.015625 56 
Q 37.15625 56 41.109375 55.140625 
Q 45.0625 54.296875 48.78125 52.59375 
z
" id="DejaVuSans-99"/>
      <path d="M 54.890625 33.015625 
L 54.890625 0 
L 45.90625 0 
L 45.90625 32.71875 
Q 45.90625 40.484375 42.875 44.328125 
Q 39.84375 48.1875 33.796875 48.1875 
Q 26.515625 48.1875 22.3125 43.546875 
Q 18.109375 38.921875 18.109375 30.90625 
L 18.109375 0 
L 9.078125 0 
L 9.078125 75.984375 
L 18.109375 75.984375 
L 18.109375 46.1875 
Q 21.34375 51.125 25.703125 53.5625 
Q 30.078125 56 35.796875 56 
Q 45.21875 56 50.046875 50.171875 
Q 54.890625 44.34375 54.890625 33.015625 
z
" id="DejaVuSans-104"/>
      <path d="M 44.28125 53.078125 
L 44.28125 44.578125 
Q 40.484375 46.53125 36.375 47.5 
Q 32.28125 48.484375 27.875 48.484375 
Q 21.1875 48.484375 17.84375 46.4375 
Q 14.5 44.390625 14.5 40.28125 
Q 14.5 37.15625 16.890625 35.375 
Q 19.28125 33.59375 26.515625 31.984375 
L 29.59375 31.296875 
Q 39.15625 29.25 43.1875 25.515625 
Q 47.21875 21.78125 47.21875 15.09375 
Q 47.21875 7.46875 41.1875 3.015625 
Q 35.15625 -1.421875 24.609375 -1.421875 
Q 20.21875 -1.421875 15.453125 -0.5625 
Q 10.6875 0.296875 5.421875 2 
L 5.421875 11.28125 
Q 10.40625 8.6875 15.234375 7.390625 
Q 20.0625 6.109375 24.8125 6.109375 
Q 31.15625 6.109375 34.5625 8.28125 
Q 37.984375 10.453125 37.984375 14.40625 
Q 37.984375 18.0625 35.515625 20.015625 
Q 33.0625 21.96875 24.703125 23.78125 
L 21.578125 24.515625 
Q 13.234375 26.265625 9.515625 29.90625 
Q 5.8125 33.546875 5.8125 39.890625 
Q 5.8125 47.609375 11.28125 51.796875 
Q 16.75 56 26.8125 56 
Q 31.78125 56 36.171875 55.265625 
Q 40.578125 54.546875 44.28125 53.078125 
z
" id="DejaVuSans-115"/>
     </defs>
     <g transform="translate(567.827188 588.360406)scale(0.18 -0.18)">
      <use xlink:href="#DejaVuSans-101"/>
      <use x="61.523438" xlink:href="#DejaVuSans-112"/>
      <use x="125" xlink:href="#DejaVuSans-111"/>
      <use x="186.181641" xlink:href="#DejaVuSans-99"/>
      <use x="241.162109" xlink:href="#DejaVuSans-104"/>
      <use x="304.541016" xlink:href="#DejaVuSans-115"/>
     </g>
    </g>
   </g>
   <g id="matplotlib.axis_2">
    <g id="ytick_1">
     <g id="line2d_23">
      <path clip-path="url(#p0c56e0242c)" d="M 64.24625 546.262594 
L 1135.60625 546.262594 
" style="fill:none;stroke:#b0b0b0;stroke-dasharray:5.12,1.28,0.8,1.28;stroke-dashoffset:0;stroke-opacity:0.4;stroke-width:0.8;"/>
     </g>
     <g id="line2d_24">
      <defs>
       <path d="M 0 0 
L -3.5 0 
" id="mb317e255c9" style="stroke:#000000;stroke-width:0.8;"/>
      </defs>
      <g>
       <use style="stroke:#000000;stroke-width:0.8;" x="64.24625" xlink:href="#mb317e255c9" y="546.262594"/>
      </g>
     </g>
     <g id="text_13">
      <!-- 0.9 -->
      <defs>
       <path d="M 10.6875 12.40625 
L 21 12.40625 
L 21 0 
L 10.6875 0 
z
" id="DejaVuSans-46"/>
      </defs>
      <g transform="translate(28.620625 553.101187)scale(0.18 -0.18)">
       <use xlink:href="#DejaVuSans-48"/>
       <use x="63.623047" xlink:href="#DejaVuSans-46"/>
       <use x="95.410156" xlink:href="#DejaVuSans-57"/>
      </g>
     </g>
    </g>
    <g id="ytick_2">
     <g id="line2d_25">
      <path clip-path="url(#p0c56e0242c)" d="M 64.24625 497.878594 
L 1135.60625 497.878594 
" style="fill:none;stroke:#b0b0b0;stroke-dasharray:5.12,1.28,0.8,1.28;stroke-dashoffset:0;stroke-opacity:0.4;stroke-width:0.8;"/>
     </g>
     <g id="line2d_26">
      <g>
       <use style="stroke:#000000;stroke-width:0.8;" x="64.24625" xlink:href="#mb317e255c9" y="497.878594"/>
      </g>
     </g>
     <g id="text_14">
      <!-- 1.0 -->
      <g transform="translate(28.620625 504.717187)scale(0.18 -0.18)">
       <use xlink:href="#DejaVuSans-49"/>
       <use x="63.623047" xlink:href="#DejaVuSans-46"/>
       <use x="95.410156" xlink:href="#DejaVuSans-48"/>
      </g>
     </g>
    </g>
    <g id="ytick_3">
     <g id="line2d_27">
      <path clip-path="url(#p0c56e0242c)" d="M 64.24625 449.494594 
L 1135.60625 449.494594 
" style="fill:none;stroke:#b0b0b0;stroke-dasharray:5.12,1.28,0.8,1.28;stroke-dashoffset:0;stroke-opacity:0.4;stroke-width:0.8;"/>
     </g>
     <g id="line2d_28">
      <g>
       <use style="stroke:#000000;stroke-width:0.8;" x="64.24625" xlink:href="#mb317e255c9" y="449.494594"/>
      </g>
     </g>
     <g id="text_15">
      <!-- 1.1 -->
      <g transform="translate(28.620625 456.333187)scale(0.18 -0.18)">
       <use xlink:href="#DejaVuSans-49"/>
       <use x="63.623047" xlink:href="#DejaVuSans-46"/>
       <use x="95.410156" xlink:href="#DejaVuSans-49"/>
      </g>
     </g>
    </g>
    <g id="ytick_4">
     <g id="line2d_29">
      <path clip-path="url(#p0c56e0242c)" d="M 64.24625 401.110594 
L 1135.60625 401.110594 
" style="fill:none;stroke:#b0b0b0;stroke-dasharray:5.12,1.28,0.8,1.28;stroke-dashoffset:0;stroke-opacity:0.4;stroke-width:0.8;"/>
     </g>
     <g id="line2d_30">
      <g>
       <use style="stroke:#000000;stroke-width:0.8;" x="64.24625" xlink:href="#mb317e255c9" y="401.110594"/>
      </g>
     </g>
     <g id="text_16">
      <!-- 1.2 -->
      <g transform="translate(28.620625 407.949187)scale(0.18 -0.18)">
       <use xlink:href="#DejaVuSans-49"/>
       <use x="63.623047" xlink:href="#DejaVuSans-46"/>
       <use x="95.410156" xlink:href="#DejaVuSans-50"/>
      </g>
     </g>
    </g>
    <g id="ytick_5">
     <g id="line2d_31">
      <path clip-path="url(#p0c56e0242c)" d="M 64.24625 352.726594 
L 1135.60625 352.726594 
" style="fill:none;stroke:#b0b0b0;stroke-dasharray:5.12,1.28,0.8,1.28;stroke-dashoffset:0;stroke-opacity:0.4;stroke-width:0.8;"/>
     </g>
     <g id="line2d_32">
      <g>
       <use style="stroke:#000000;stroke-width:0.8;" x="64.24625" xlink:href="#mb317e255c9" y="352.726594"/>
      </g>
     </g>
     <g id="text_17">
      <!-- 1.3 -->
      <g transform="translate(28.620625 359.565187)scale(0.18 -0.18)">
       <use xlink:href="#DejaVuSans-49"/>
       <use x="63.623047" xlink:href="#DejaVuSans-46"/>
       <use x="95.410156" xlink:href="#DejaVuSans-51"/>
      </g>
     </g>
    </g>
    <g id="ytick_6">
     <g id="line2d_33">
      <path clip-path="url(#p0c56e0242c)" d="M 64.24625 304.342594 
L 1135.60625 304.342594 
" style="fill:none;stroke:#b0b0b0;stroke-dasharray:5.12,1.28,0.8,1.28;stroke-dashoffset:0;stroke-opacity:0.4;stroke-width:0.8;"/>
     </g>
     <g id="line2d_34">
      <g>
       <use style="stroke:#000000;stroke-width:0.8;" x="64.24625" xlink:href="#mb317e255c9" y="304.342594"/>
      </g>
     </g>
     <g id="text_18">
      <!-- 1.4 -->
      <g transform="translate(28.620625 311.181187)scale(0.18 -0.18)">
       <use xlink:href="#DejaVuSans-49"/>
       <use x="63.623047" xlink:href="#DejaVuSans-46"/>
       <use x="95.410156" xlink:href="#DejaVuSans-52"/>
      </g>
     </g>
    </g>
    <g id="ytick_7">
     <g id="line2d_35">
      <path clip-path="url(#p0c56e0242c)" d="M 64.24625 255.958594 
L 1135.60625 255.958594 
" style="fill:none;stroke:#b0b0b0;stroke-dasharray:5.12,1.28,0.8,1.28;stroke-dashoffset:0;stroke-opacity:0.4;stroke-width:0.8;"/>
     </g>
     <g id="line2d_36">
      <g>
       <use style="stroke:#000000;stroke-width:0.8;" x="64.24625" xlink:href="#mb317e255c9" y="255.958594"/>
      </g>
     </g>
     <g id="text_19">
      <!-- 1.5 -->
      <g transform="translate(28.620625 262.797187)scale(0.18 -0.18)">
       <use xlink:href="#DejaVuSans-49"/>
       <use x="63.623047" xlink:href="#DejaVuSans-46"/>
       <use x="95.410156" xlink:href="#DejaVuSans-53"/>
      </g>
     </g>
    </g>
    <g id="ytick_8">
     <g id="line2d_37">
      <path clip-path="url(#p0c56e0242c)" d="M 64.24625 207.574594 
L 1135.60625 207.574594 
" style="fill:none;stroke:#b0b0b0;stroke-dasharray:5.12,1.28,0.8,1.28;stroke-dashoffset:0;stroke-opacity:0.4;stroke-width:0.8;"/>
     </g>
     <g id="line2d_38">
      <g>
       <use style="stroke:#000000;stroke-width:0.8;" x="64.24625" xlink:href="#mb317e255c9" y="207.574594"/>
      </g>
     </g>
     <g id="text_20">
      <!-- 1.6 -->
      <g transform="translate(28.620625 214.413187)scale(0.18 -0.18)">
       <use xlink:href="#DejaVuSans-49"/>
       <use x="63.623047" xlink:href="#DejaVuSans-46"/>
       <use x="95.410156" xlink:href="#DejaVuSans-54"/>
      </g>
     </g>
    </g>
    <g id="ytick_9">
     <g id="line2d_39">
      <path clip-path="url(#p0c56e0242c)" d="M 64.24625 159.190594 
L 1135.60625 159.190594 
" style="fill:none;stroke:#b0b0b0;stroke-dasharray:5.12,1.28,0.8,1.28;stroke-dashoffset:0;stroke-opacity:0.4;stroke-width:0.8;"/>
     </g>
     <g id="line2d_40">
      <g>
       <use style="stroke:#000000;stroke-width:0.8;" x="64.24625" xlink:href="#mb317e255c9" y="159.190594"/>
      </g>
     </g>
     <g id="text_21">
      <!-- 1.7 -->
      <g transform="translate(28.620625 166.029187)scale(0.18 -0.18)">
       <use xlink:href="#DejaVuSans-49"/>
       <use x="63.623047" xlink:href="#DejaVuSans-46"/>
       <use x="95.410156" xlink:href="#DejaVuSans-55"/>
      </g>
     </g>
    </g>
    <g id="ytick_10">
     <g id="line2d_41">
      <path clip-path="url(#p0c56e0242c)" d="M 64.24625 110.806594 
L 1135.60625 110.806594 
" style="fill:none;stroke:#b0b0b0;stroke-dasharray:5.12,1.28,0.8,1.28;stroke-dashoffset:0;stroke-opacity:0.4;stroke-width:0.8;"/>
     </g>
     <g id="line2d_42">
      <g>
       <use style="stroke:#000000;stroke-width:0.8;" x="64.24625" xlink:href="#mb317e255c9" y="110.806594"/>
      </g>
     </g>
     <g id="text_22">
      <!-- 1.8 -->
      <g transform="translate(28.620625 117.645187)scale(0.18 -0.18)">
       <use xlink:href="#DejaVuSans-49"/>
       <use x="63.623047" xlink:href="#DejaVuSans-46"/>
       <use x="95.410156" xlink:href="#DejaVuSans-56"/>
      </g>
     </g>
    </g>
    <g id="ytick_11">
     <g id="line2d_43">
      <path clip-path="url(#p0c56e0242c)" d="M 64.24625 62.422594 
L 1135.60625 62.422594 
" style="fill:none;stroke:#b0b0b0;stroke-dasharray:5.12,1.28,0.8,1.28;stroke-dashoffset:0;stroke-opacity:0.4;stroke-width:0.8;"/>
     </g>
     <g id="line2d_44">
      <g>
       <use style="stroke:#000000;stroke-width:0.8;" x="64.24625" xlink:href="#mb317e255c9" y="62.422594"/>
      </g>
     </g>
     <g id="text_23">
      <!-- 1.9 -->
      <g transform="translate(28.620625 69.261187)scale(0.18 -0.18)">
       <use xlink:href="#DejaVuSans-49"/>
       <use x="63.623047" xlink:href="#DejaVuSans-46"/>
       <use x="95.410156" xlink:href="#DejaVuSans-57"/>
      </g>
     </g>
    </g>
    <g id="ytick_12">
     <g id="line2d_45">
      <path clip-path="url(#p0c56e0242c)" d="M 64.24625 14.038594 
L 1135.60625 14.038594 
" style="fill:none;stroke:#b0b0b0;stroke-dasharray:5.12,1.28,0.8,1.28;stroke-dashoffset:0;stroke-opacity:0.4;stroke-width:0.8;"/>
     </g>
     <g id="line2d_46">
      <g>
       <use style="stroke:#000000;stroke-width:0.8;" x="64.24625" xlink:href="#mb317e255c9" y="14.038594"/>
      </g>
     </g>
     <g id="text_24">
      <!-- 2.0 -->
      <g transform="translate(28.620625 20.877187)scale(0.18 -0.18)">
       <use xlink:href="#DejaVuSans-50"/>
       <use x="63.623047" xlink:href="#DejaVuSans-46"/>
       <use x="95.410156" xlink:href="#DejaVuSans-48"/>
      </g>
     </g>
    </g>
    <g id="text_25">
     <!-- loss -->
     <defs>
      <path d="M 9.421875 75.984375 
L 18.40625 75.984375 
L 18.40625 0 
L 9.421875 0 
z
" id="DejaVuSans-108"/>
     </defs>
     <g transform="translate(20.877188 297.534656)rotate(-90)scale(0.18 -0.18)">
      <use xlink:href="#DejaVuSans-108"/>
      <use x="27.783203" xlink:href="#DejaVuSans-111"/>
      <use x="88.964844" xlink:href="#DejaVuSans-115"/>
      <use x="141.064453" xlink:href="#DejaVuSans-115"/>
     </g>
    </g>
   </g>
   <g id="line2d_47">
    <path clip-path="url(#p0c56e0242c)" d="M 121.669457 -1 
L 125.466821 150.594785 
L 135.67025 227.153513 
L 145.873679 272.861139 
L 156.077107 297.464189 
L 166.280536 308.893359 
L 176.483964 324.923983 
L 186.687393 331.249612 
L 196.890821 337.538787 
L 207.09425 344.433527 
L 217.297679 352.230815 
L 227.501107 359.369648 
L 237.704536 351.295851 
L 247.907964 356.974445 
L 258.111393 357.76429 
L 268.314821 364.336897 
L 278.51825 368.618121 
L 288.721679 366.215246 
L 298.925107 369.892348 
L 309.128536 366.427156 
L 319.331964 366.334928 
L 329.535393 378.450527 
L 339.738821 380.25724 
L 349.94225 373.976024 
L 360.145679 380.490433 
L 370.349107 382.653251 
L 380.552536 387.282448 
L 390.755964 383.327856 
L 400.959393 388.104074 
L 411.162821 390.4371 
L 421.36625 393.05373 
L 431.569679 395.343325 
L 441.773107 397.858557 
L 451.976536 399.804505 
L 462.179964 400.570299 
L 472.383393 402.49779 
L 482.586821 399.367131 
L 492.79025 402.141107 
L 502.993679 404.746952 
L 513.197107 406.067264 
L 523.400536 405.724886 
L 533.603964 405.822189 
L 543.807393 403.027564 
L 554.010821 407.058753 
L 564.21425 409.218456 
L 574.417679 409.372572 
L 584.621107 409.089776 
L 594.824536 406.330392 
L 605.027964 408.802596 
L 615.231393 409.612571 
L 625.434821 408.879077 
L 635.63825 408.050241 
L 645.841679 409.411967 
L 656.045107 407.626941 
L 666.248536 410.128445 
L 676.451964 411.943118 
L 686.655393 409.138168 
L 696.858821 402.777068 
L 707.06225 407.097282 
L 717.265679 414.493764 
L 727.469107 414.843236 
L 737.672536 415.413213 
L 747.875964 415.917955 
L 758.079393 416.088452 
L 768.282821 417.605735 
L 778.48625 417.983643 
L 788.689679 420.388824 
L 798.893107 419.55895 
L 809.096536 418.344189 
L 819.299964 409.40816 
L 829.503393 411.446854 
L 839.706821 386.434232 
L 849.91025 404.26482 
L 860.113679 407.824027 
L 870.317107 412.2352 
L 880.520536 417.645417 
L 890.723964 419.928725 
L 900.927393 419.730485 
L 911.130821 424.526545 
L 921.33425 423.290847 
L 931.537679 420.357159 
L 941.741107 419.972099 
L 951.944536 420.357794 
L 962.147964 422.372494 
L 972.351393 424.008018 
L 982.554821 425.897498 
L 992.75825 427.684601 
L 1002.961679 426.652103 
L 1013.165107 426.737812 
L 1023.368536 426.086971 
L 1033.571964 428.483732 
L 1043.775393 428.889499 
L 1053.978821 424.303618 
L 1064.18225 423.50962 
L 1074.385679 426.692131 
L 1084.589107 427.92633 
L 1094.792536 428.638598 
L 1104.995964 429.013103 
L 1115.199393 407.727589 
L 1125.402821 415.455721 
" style="fill:none;stroke:#ff7043;stroke-linecap:square;stroke-opacity:0.15;stroke-width:1.5;"/>
   </g>
   <g id="line2d_48">
    <path clip-path="url(#p0c56e0242c)" d="M 168.239829 -1 
L 176.483964 25.485933 
L 186.687393 73.499766 
L 196.890821 102.448927 
L 207.09425 129.151233 
L 217.297679 145.595641 
L 227.501107 161.941764 
L 237.704536 179.385504 
L 247.907964 188.913082 
L 258.111393 205.089458 
L 268.314821 210.138264 
L 278.51825 236.969481 
L 288.721679 236.669669 
L 298.925107 248.875247 
L 309.128536 260.245239 
L 319.331964 265.736956 
L 329.535393 267.323453 
L 339.738821 275.501187 
L 349.94225 280.275213 
L 360.145679 280.84121 
L 370.349107 294.795417 
L 380.552536 291.25236 
L 390.755964 304.800628 
L 400.959393 308.403614 
L 411.162821 314.625306 
L 421.36625 311.572513 
L 431.569679 318.137737 
L 441.773107 318.449026 
L 451.976536 324.700884 
L 462.179964 329.891751 
L 472.383393 332.141375 
L 482.586821 335.593935 
L 492.79025 334.713823 
L 502.993679 335.433647 
L 513.197107 342.889942 
L 523.400536 338.684796 
L 533.603964 339.122458 
L 543.807393 341.167151 
L 554.010821 347.646434 
L 564.21425 347.315246 
L 574.417679 352.239063 
L 584.621107 349.574444 
L 594.824536 349.437458 
L 605.027964 354.260165 
L 615.231393 355.193226 
L 625.434821 360.120677 
L 635.63825 356.84438 
L 645.841679 357.073421 
L 656.045107 359.278863 
L 666.248536 360.452788 
L 676.451964 364.702865 
L 686.655393 360.560358 
L 696.858821 363.107889 
L 707.06225 364.045103 
L 717.265679 368.090769 
L 727.469107 366.008643 
L 737.672536 369.734598 
L 747.875964 370.014741 
L 758.079393 366.727602 
L 768.282821 367.264759 
L 778.48625 372.697759 
L 788.689679 373.707647 
L 798.893107 370.616671 
L 809.096536 374.078691 
L 819.299964 375.885923 
L 829.503393 373.146726 
L 839.706821 376.470838 
L 849.91025 376.679114 
L 860.113679 371.888707 
L 870.317107 377.059963 
L 880.520536 379.02829 
L 890.723964 379.263848 
L 900.927393 380.534672 
L 911.130821 381.158462 
L 921.33425 381.069003 
L 931.537679 381.760104 
L 941.741107 380.110795 
L 951.944536 384.821145 
L 962.147964 382.44907 
L 972.351393 386.095776 
L 982.554821 387.785921 
L 992.75825 385.905495 
L 1002.961679 383.357271 
L 1013.165107 385.30195 
L 1023.368536 385.376125 
L 1033.571964 387.239593 
L 1043.775393 387.063097 
L 1053.978821 387.11818 
L 1064.18225 388.811555 
L 1074.385679 387.944594 
L 1084.589107 392.590459 
L 1094.792536 388.671397 
L 1104.995964 392.752189 
L 1115.199393 390.934921 
L 1125.402821 390.635398 
" style="fill:none;stroke:#0077bb;stroke-linecap:square;stroke-opacity:0.15;stroke-width:1.5;"/>
   </g>
   <g id="line2d_49">
    <path clip-path="url(#p0c56e0242c)" d="M 156.750157 -1 
L 166.280536 14.638101 
L 176.483964 27.963789 
L 186.687393 49.176974 
L 196.890821 75.801819 
L 207.09425 108.218249 
L 217.297679 104.269713 
L 227.501107 152.557287 
L 237.704536 159.907972 
L 247.907964 160.561524 
L 258.111393 185.404112 
L 268.314821 198.834486 
L 278.51825 202.329901 
L 288.721679 197.961814 
L 298.925107 212.285047 
L 309.128536 193.629488 
L 319.331964 196.546794 
L 329.535393 211.406954 
L 339.738821 206.992205 
L 349.94225 146.17871 
L 360.145679 195.4516 
L 370.349107 227.847324 
L 380.552536 229.391428 
L 390.755964 221.581739 
L 400.959393 260.888178 
L 411.162821 263.362401 
L 421.36625 279.515706 
L 431.569679 274.200139 
L 441.773107 290.843709 
L 451.976536 287.975141 
L 462.179964 297.548284 
L 472.383393 297.841174 
L 482.586821 304.031777 
L 492.79025 304.17505 
L 502.993679 305.492421 
L 513.197107 305.797827 
L 523.400536 305.066813 
L 533.603964 288.090728 
L 543.807393 304.631342 
L 554.010821 306.271769 
L 564.21425 310.794145 
L 574.417679 217.615553 
L 584.621107 224.705649 
L 594.824536 237.14713 
L 605.027964 264.221115 
L 615.231393 256.269249 
L 625.434821 269.473409 
L 635.63825 278.604218 
L 645.841679 296.21955 
L 656.045107 309.99236 
L 666.248536 306.497925 
L 676.451964 285.254113 
L 686.655393 294.717725 
L 696.858821 308.924621 
L 707.06225 303.753941 
L 717.265679 313.60469 
L 727.469107 322.266805 
L 737.672536 331.819818 
L 747.875964 331.707634 
L 758.079393 328.957018 
L 768.282821 327.540959 
L 778.48625 327.962876 
L 788.689679 327.853922 
L 798.893107 326.282075 
L 809.096536 312.548486 
L 819.299964 313.285095 
L 829.503393 328.123567 
L 839.706821 331.285833 
L 849.91025 332.942698 
L 860.113679 339.268903 
L 870.317107 342.76403 
L 880.520536 344.251321 
L 890.723964 341.701944 
L 900.927393 326.749787 
L 911.130821 296.88037 
L 921.33425 321.14554 
L 931.537679 317.569606 
L 941.741107 327.92129 
L 951.944536 333.302668 
L 962.147964 245.975878 
L 972.351393 290.448152 
L 982.554821 312.911917 
L 992.75825 317.263046 
L 1002.961679 323.431848 
L 1013.165107 321.309001 
L 1023.368536 320.694843 
L 1033.571964 321.570225 
L 1043.775393 331.136735 
L 1053.978821 324.876456 
L 1064.18225 333.289979 
L 1074.385679 339.142299 
L 1084.589107 339.172523 
L 1094.792536 348.959479 
L 1104.995964 355.382872 
L 1115.199393 324.980508 
L 1125.402821 333.939032 
" style="fill:none;stroke:#cc3311;stroke-linecap:square;stroke-opacity:0.15;stroke-width:1.5;"/>
   </g>
   <g id="line2d_50">
    <path clip-path="url(#p0c56e0242c)" d="M 124.442717 -1 
L 125.466821 31.901655 
L 135.67025 127.058033 
L 145.873679 175.910392 
L 156.077107 195.262704 
L 166.280536 219.018172 
L 176.483964 230.557681 
L 186.687393 238.126621 
L 196.890821 246.65948 
L 207.09425 262.2803 
L 217.297679 265.827857 
L 227.501107 279.125283 
L 237.704536 284.853192 
L 247.907964 282.604318 
L 258.111393 280.725276 
L 268.314821 283.315375 
L 278.51825 278.53708 
L 288.721679 286.372494 
L 298.925107 271.653242 
L 309.128536 277.101181 
L 319.331964 282.159849 
L 329.535393 293.504867 
L 339.738821 298.680161 
L 349.94225 283.0857 
L 360.145679 275.86479 
L 370.349107 292.056913 
L 380.552536 285.665359 
L 390.755964 299.077449 
L 400.959393 305.906377 
L 411.162821 310.36698 
L 421.36625 309.019444 
L 431.569679 313.79249 
L 441.773107 309.801215 
L 451.976536 311.417589 
L 462.179964 305.520625 
L 472.383393 310.000378 
L 482.586821 311.969454 
L 492.79025 317.268872 
L 502.993679 318.533813 
L 513.197107 308.894628 
L 523.400536 313.131324 
L 533.603964 323.65835 
L 543.807393 324.350143 
L 554.010821 323.788876 
L 564.21425 317.241648 
L 574.417679 299.398774 
L 584.621107 305.241232 
L 594.824536 318.877863 
L 605.027964 312.414673 
L 615.231393 315.189283 
L 625.434821 304.742661 
L 635.63825 309.537625 
L 645.841679 312.563713 
L 656.045107 319.53603 
L 666.248536 320.180122 
L 676.451964 318.993105 
L 686.655393 326.247237 
L 696.858821 326.731503 
L 707.06225 331.278912 
L 717.265679 306.292821 
L 727.469107 312.546871 
L 737.672536 325.061546 
L 747.875964 328.958575 
L 758.079393 322.482176 
L 768.282821 320.84521 
L 778.48625 325.247443 
L 788.689679 330.292268 
L 798.893107 332.884385 
L 809.096536 304.732106 
L 819.299964 313.154107 
L 829.503393 325.588033 
L 839.706821 323.903194 
L 849.91025 325.52078 
L 860.113679 328.935965 
L 870.317107 328.204317 
L 880.520536 331.473115 
L 890.723964 328.345398 
L 900.927393 325.832992 
L 911.130821 328.301851 
L 921.33425 334.638842 
L 931.537679 332.693182 
L 941.741107 339.482197 
L 951.944536 332.91657 
L 962.147964 328.369276 
L 972.351393 326.860991 
L 982.554821 312.759012 
L 992.75825 315.45045 
L 1002.961679 328.068138 
L 1013.165107 333.617418 
L 1023.368536 331.594124 
L 1033.571964 335.93862 
L 1043.775393 313.34681 
L 1053.978821 315.079868 
L 1064.18225 317.37598 
L 1074.385679 321.258359 
L 1084.589107 326.221743 
L 1094.792536 324.430834 
L 1104.995964 331.565688 
L 1115.199393 335.866292 
L 1125.402821 340.371653 
" style="fill:none;stroke:#33bbee;stroke-linecap:square;stroke-opacity:0.15;stroke-width:1.5;"/>
   </g>
   <g id="line2d_51">
    <path clip-path="url(#p0c56e0242c)" d="M 120.892401 -1 
L 125.466821 119.348185 
L 135.67025 215.309117 
L 145.873679 259.503094 
L 156.077107 292.065911 
L 166.280536 301.955996 
L 176.483964 321.009766 
L 186.687393 344.048409 
L 196.890821 348.287989 
L 207.09425 344.697981 
L 217.297679 358.7642 
L 227.501107 354.07248 
L 237.704536 355.290529 
L 247.907964 362.900652 
L 258.111393 362.560754 
L 268.314821 335.524894 
L 278.51825 359.945046 
L 288.721679 363.86284 
L 298.925107 365.70439 
L 309.128536 369.603322 
L 319.331964 382.403389 
L 329.535393 376.323124 
L 339.738821 384.192221 
L 349.94225 386.746732 
L 360.145679 372.295742 
L 370.349107 368.691949 
L 380.552536 380.296634 
L 390.755964 374.479036 
L 400.959393 370.716224 
L 411.162821 372.981421 
L 421.36625 381.755893 
L 431.569679 384.378291 
L 441.773107 370.867283 
L 451.976536 379.548086 
L 462.179964 393.776554 
L 472.383393 397.133023 
L 482.586821 402.954082 
L 492.79025 398.083791 
L 502.993679 396.887948 
L 513.197107 401.268551 
L 523.400536 402.331849 
L 533.603964 387.194315 
L 543.807393 396.230186 
L 554.010821 394.527928 
L 564.21425 396.122616 
L 574.417679 403.755233 
L 584.621107 402.965329 
L 594.824536 405.556812 
L 605.027964 406.039348 
L 615.231393 406.052556 
L 625.434821 395.560253 
L 635.63825 395.110074 
L 645.841679 403.843307 
L 656.045107 406.756346 
L 666.248536 409.460878 
L 676.451964 413.541151 
L 686.655393 412.923878 
L 696.858821 414.253996 
L 707.06225 400.254049 
L 717.265679 403.365847 
L 727.469107 406.067668 
L 737.672536 410.168013 
L 747.875964 404.884168 
L 758.079393 409.880544 
L 768.282821 414.884073 
L 778.48625 418.486193 
L 788.689679 411.972187 
L 798.893107 408.600722 
L 809.096536 417.719246 
L 819.299964 417.347509 
L 829.503393 419.727025 
L 839.706821 417.84533 
L 849.91025 417.419319 
L 860.113679 413.850767 
L 870.317107 372.106961 
L 880.520536 386.157838 
L 890.723964 386.927553 
L 900.927393 396.97856 
L 911.130821 398.608259 
L 921.33425 407.08067 
L 931.537679 407.932982 
L 941.741107 410.091531 
L 951.944536 386.635413 
L 962.147964 403.344275 
L 972.351393 408.205684 
L 982.554821 411.172883 
L 992.75825 417.931559 
L 1002.961679 412.480679 
L 1013.165107 416.457708 
L 1023.368536 414.331458 
L 1033.571964 420.868534 
L 1043.775393 421.292815 
L 1053.978821 423.58714 
L 1064.18225 417.918697 
L 1074.385679 421.312599 
L 1084.589107 422.630604 
L 1094.792536 408.025209 
L 1104.995964 404.897607 
L 1115.199393 412.359381 
L 1125.402821 414.690562 
" style="fill:none;stroke:#ee3377;stroke-linecap:square;stroke-opacity:0.15;stroke-width:1.5;"/>
   </g>
   <g id="line2d_52">
    <path clip-path="url(#p0c56e0242c)" d="M 117.152297 -1 
L 125.466821 295.049548 
L 135.67025 372.2789 
L 145.873679 410.68331 
L 156.077107 425.159967 
L 166.280536 429.305647 
L 176.483964 430.216617 
L 186.687393 430.420798 
L 196.890821 444.108474 
L 207.09425 439.828347 
L 217.297679 444.190897 
L 227.501107 440.651184 
L 237.704536 433.257816 
L 247.907964 448.89744 
L 258.111393 436.486701 
L 268.314821 451.694257 
L 278.51825 456.213576 
L 288.721679 463.233823 
L 298.925107 466.575872 
L 309.128536 461.617391 
L 319.331964 453.315361 
L 329.535393 458.851028 
L 339.738821 466.072745 
L 349.94225 466.577487 
L 360.145679 469.229244 
L 370.349107 466.293941 
L 380.552536 462.879621 
L 390.755964 455.629123 
L 400.959393 472.319008 
L 411.162821 474.171229 
L 421.36625 476.40205 
L 431.569679 467.566092 
L 441.773107 474.63825 
L 451.976536 464.468426 
L 462.179964 469.892313 
L 472.383393 463.61375 
L 482.586821 478.23962 
L 492.79025 480.118431 
L 502.993679 473.370194 
L 513.197107 467.967244 
L 523.400536 465.012101 
L 533.603964 447.495455 
L 543.807393 462.738598 
L 554.010821 461.376296 
L 564.21425 471.488673 
L 574.417679 457.091035 
L 584.621107 459.813562 
L 594.824536 475.874929 
L 605.027964 480.072634 
L 615.231393 470.515353 
L 625.434821 478.33006 
L 635.63825 483.698922 
L 645.841679 485.255772 
L 656.045107 486.23809 
L 666.248536 480.202468 
L 676.451964 486.036851 
L 686.655393 487.542541 
L 696.858821 484.399482 
L 707.06225 488.734404 
L 717.265679 484.283202 
L 727.469107 486.102835 
L 737.672536 488.970711 
L 747.875964 488.487195 
L 758.079393 490.912103 
L 768.282821 494.000368 
L 778.48625 485.609744 
L 788.689679 489.034792 
L 798.893107 489.948473 
L 809.096536 490.237267 
L 819.299964 489.534574 
L 829.503393 492.185926 
L 839.706821 475.264866 
L 849.91025 480.065021 
L 860.113679 484.77116 
L 870.317107 487.65957 
L 880.520536 481.585361 
L 890.723964 483.69996 
L 900.927393 485.607956 
L 911.130821 488.451723 
L 921.33425 486.173029 
L 931.537679 485.505173 
L 941.741107 471.721116 
L 951.944536 467.711672 
L 962.147964 478.71189 
L 972.351393 483.176069 
L 982.554821 487.284546 
L 992.75825 488.931086 
L 1002.961679 490.824662 
L 1013.165107 482.394644 
L 1023.368536 482.864433 
L 1033.571964 485.90148 
L 1043.775393 483.270373 
L 1053.978821 486.228458 
L 1064.18225 488.306777 
L 1074.385679 490.459502 
L 1084.589107 483.581201 
L 1094.792536 485.563428 
L 1104.995964 482.222417 
L 1115.199393 485.527725 
L 1125.402821 488.268018 
" style="fill:none;stroke:#009988;stroke-linecap:square;stroke-opacity:0.15;stroke-width:1.5;"/>
   </g>
   <g id="line2d_53">
    <path clip-path="url(#p0c56e0242c)" d="M 122.040977 -1 
L 125.466821 124.658553 
L 135.67025 252.42349 
L 145.873679 279.368834 
L 156.077107 285.113066 
L 166.280536 300.467766 
L 176.483964 322.413947 
L 186.687393 329.90348 
L 196.890821 339.019859 
L 207.09425 346.226959 
L 217.297679 351.213048 
L 227.501107 354.608093 
L 237.704536 355.445004 
L 247.907964 356.883524 
L 258.111393 358.873179 
L 268.314821 362.981101 
L 278.51825 367.812142 
L 288.721679 367.526152 
L 298.925107 366.963036 
L 309.128536 368.303153 
L 319.331964 370.895611 
L 329.535393 374.212066 
L 339.738821 376.236828 
L 349.94225 379.494884 
L 360.145679 380.685417 
L 370.349107 381.528748 
L 380.552536 384.382186 
L 390.755964 386.71086 
L 400.959393 387.6299 
L 411.162821 389.950575 
L 421.36625 392.788144 
L 431.569679 395.731611 
L 441.773107 397.906395 
L 451.976536 399.848635 
L 462.179964 400.588748 
L 472.383393 400.827263 
L 482.586821 401.366455 
L 492.79025 402.362631 
L 502.993679 404.307167 
L 513.197107 405.417817 
L 523.400536 405.704384 
L 533.603964 405.046347 
L 543.807393 405.246366 
L 554.010821 406.826248 
L 564.21425 408.214483 
L 574.417679 408.835944 
L 584.621107 408.887292 
L 594.824536 408.28548 
L 605.027964 408.162712 
L 615.231393 408.758707 
L 625.434821 409.000952 
L 635.63825 408.617634 
L 645.841679 408.178712 
L 656.045107 409.75197 
L 666.248536 410.527943 
L 676.451964 409.071163 
L 686.655393 407.497377 
L 696.858821 407.228444 
L 707.06225 408.17604 
L 717.265679 411.151796 
L 727.469107 414.542856 
L 737.672536 416.504869 
L 747.875964 415.952925 
L 758.079393 416.085213 
L 768.282821 417.183583 
L 778.48625 419.308836 
L 788.689679 418.938415 
L 798.893107 421.090077 
L 809.096536 417.276186 
L 819.299964 410.277711 
L 829.503393 403.249277 
L 839.706821 399.35933 
L 849.91025 400.130947 
L 860.113679 405.804885 
L 870.317107 412.041286 
L 880.520536 418.37568 
L 890.723964 419.199993 
L 900.927393 422.094931 
L 911.130821 422.81512 
L 921.33425 422.255239 
L 931.537679 421.401578 
L 941.741107 420.512914 
L 951.944536 420.15834 
L 962.147964 422.07517 
L 972.351393 424.268938 
L 982.554821 426.068657 
L 992.75825 426.822017 
L 1002.961679 426.650831 
L 1013.165107 427.100887 
L 1023.368536 427.643167 
L 1033.571964 427.396491 
L 1043.775393 426.724859 
L 1053.978821 425.743044 
L 1064.18225 424.382205 
L 1074.385679 427.28451 
L 1084.589107 430.317639 
L 1094.792536 429.07109 
L 1104.995964 422.283429 
L 1115.199393 413.580786 
L 1125.402821 413.929279 
" style="fill:none;stroke:#ff7043;stroke-linecap:square;stroke-width:1.5;"/>
   </g>
   <g id="line2d_54">
    <path clip-path="url(#p0c56e0242c)" d="M 169.384333 -1 
L 176.483964 32.815669 
L 186.687393 70.850148 
L 196.890821 101.904801 
L 207.09425 127.21909 
L 217.297679 147.581741 
L 227.501107 163.460072 
L 237.704536 176.485177 
L 247.907964 190.006087 
L 258.111393 203.88598 
L 268.314821 216.211593 
L 278.51825 228.312704 
L 288.721679 240.832616 
L 298.925107 250.409158 
L 309.128536 258.185454 
L 319.331964 264.310233 
L 329.535393 270.167734 
L 339.738821 274.576961 
L 349.94225 278.791696 
L 360.145679 284.298566 
L 370.349107 289.688466 
L 380.552536 296.33166 
L 390.755964 302.911035 
L 400.959393 308.611885 
L 411.162821 311.85012 
L 421.36625 315.002226 
L 431.569679 316.302429 
L 441.773107 319.884393 
L 451.976536 324.352009 
L 462.179964 329.672845 
L 472.383393 331.792402 
L 482.586821 334.535743 
L 492.79025 336.141121 
L 502.993679 337.827856 
L 513.197107 338.436633 
L 523.400536 339.472713 
L 533.603964 340.563146 
L 543.807393 342.417811 
L 554.010821 345.43166 
L 564.21425 348.704453 
L 574.417679 350.121217 
L 584.621107 350.176939 
L 594.824536 351.206367 
L 605.027964 353.689799 
L 615.231393 355.595063 
L 625.434821 357.781703 
L 635.63825 357.714093 
L 645.841679 358.253212 
L 656.045107 359.375271 
L 666.248536 360.635692 
L 676.451964 361.898259 
L 686.655393 362.781649 
L 696.858821 363.314845 
L 707.06225 364.21709 
L 717.265679 366.183619 
L 727.469107 368.635423 
L 737.672536 368.47652 
L 747.875964 368.028576 
L 758.079393 368.551886 
L 768.282821 369.597634 
L 778.48625 370.079402 
L 788.689679 372.218715 
L 798.893107 373.519837 
L 809.096536 373.451655 
L 819.299964 374.432573 
L 829.503393 375.314065 
L 839.706821 375.2657 
L 849.91025 374.712885 
L 860.113679 375.267968 
L 870.317107 376.451264 
L 880.520536 377.68289 
L 890.723964 379.567643 
L 900.927393 381.239626 
L 911.130821 380.563118 
L 921.33425 381.145211 
L 931.537679 381.407185 
L 941.741107 381.544888 
L 951.944536 382.637734 
L 962.147964 384.602563 
L 972.351393 385.843898 
L 982.554821 386.330471 
L 992.75825 385.533048 
L 1002.961679 385.287209 
L 1013.165107 384.788962 
L 1023.368536 385.30209 
L 1033.571964 386.748272 
L 1043.775393 386.984818 
L 1053.978821 387.728235 
L 1064.18225 388.308108 
L 1074.385679 389.146607 
L 1084.589107 390.286989 
L 1094.792536 391.162896 
L 1104.995964 391.473066 
L 1115.199393 391.171236 
L 1125.402821 390.64394 
" style="fill:none;stroke:#0077bb;stroke-linecap:square;stroke-width:1.5;"/>
   </g>
   <g id="line2d_55">
    <path clip-path="url(#p0c56e0242c)" d="M 164.914581 -1 
L 166.280536 2.384419 
L 176.483964 34.244595 
L 186.687393 53.52508 
L 196.890821 70.539397 
L 207.09425 99.59101 
L 217.297679 122.353815 
L 227.501107 139.89863 
L 237.704536 155.439558 
L 247.907964 172.08093 
L 258.111393 184.28365 
L 268.314821 192.510898 
L 278.51825 203.6808 
L 288.721679 204.327003 
L 298.925107 198.231691 
L 309.128536 206.40455 
L 319.331964 205.608157 
L 329.535393 194.817185 
L 339.738821 185.295205 
L 349.94225 189.103262 
L 360.145679 191.904695 
L 370.349107 205.488713 
L 380.552536 225.798389 
L 390.755964 245.423427 
L 400.959393 249.290769 
L 411.162821 262.740881 
L 421.36625 275.610026 
L 431.569679 282.930593 
L 441.773107 284.628699 
L 451.976536 291.212479 
L 462.179964 295.281254 
L 472.383393 300.161124 
L 482.586821 301.325095 
L 492.79025 306.824503 
L 502.993679 305.75086 
L 513.197107 303.521198 
L 523.400536 296.049401 
L 533.603964 305.265173 
L 543.807393 308.830283 
L 554.010821 299.568518 
L 564.21425 275.797513 
L 574.417679 252.077235 
L 584.621107 232.97373 
L 594.824536 232.423218 
L 605.027964 245.825801 
L 615.231393 265.25542 
L 625.434821 270.447673 
L 635.63825 283.994474 
L 645.841679 295.596912 
L 656.045107 302.178135 
L 666.248536 301.403796 
L 676.451964 298.541779 
L 686.655393 295.992939 
L 696.858821 298.50313 
L 707.06225 307.157347 
L 717.265679 316.833501 
L 727.469107 322.424795 
L 737.672536 328.005297 
L 747.875964 331.728599 
L 758.079393 329.918365 
L 768.282821 329.554188 
L 778.48625 328.893163 
L 788.689679 325.452093 
L 798.893107 320.926891 
L 809.096536 318.216685 
L 819.299964 318.337023 
L 829.503393 322.298812 
L 839.706821 329.090777 
L 849.91025 335.824173 
L 860.113679 339.399498 
L 870.317107 345.525827 
L 880.520536 343.332895 
L 890.723964 335.083229 
L 900.927393 323.180491 
L 911.130821 310.366675 
L 921.33425 319.407047 
L 931.537679 323.464762 
L 941.741107 317.54781 
L 951.944536 304.74883 
L 962.147964 289.621774 
L 972.351393 288.868583 
L 982.554821 297.451948 
L 992.75825 315.063761 
L 1002.961679 327.861954 
L 1013.165107 321.373142 
L 1023.368536 321.937372 
L 1033.571964 323.094452 
L 1043.775393 325.723869 
L 1053.978821 329.345455 
L 1064.18225 331.155455 
L 1074.385679 339.035981 
L 1084.589107 346.03302 
L 1094.792536 348.261774 
L 1104.995964 343.854583 
L 1115.199393 335.224398 
L 1125.402821 331.274148 
" style="fill:none;stroke:#cc3311;stroke-linecap:square;stroke-width:1.5;"/>
   </g>
   <g id="line2d_56">
    <path clip-path="url(#p0c56e0242c)" d="M 124.859807 -1 
L 125.466821 17.391021 
L 135.67025 140.073201 
L 145.873679 179.257491 
L 156.077107 193.74221 
L 166.280536 209.192276 
L 176.483964 228.156568 
L 186.687393 238.981272 
L 196.890821 248.883178 
L 207.09425 258.462332 
L 217.297679 269.696445 
L 227.501107 277.656612 
L 237.704536 282.717782 
L 247.907964 282.575471 
L 258.111393 283.740637 
L 268.314821 282.127537 
L 278.51825 280.957479 
L 288.721679 278.668845 
L 298.925107 276.098003 
L 309.128536 278.867324 
L 319.331964 286.143644 
L 329.535393 288.89126 
L 339.738821 291.726784 
L 349.94225 287.529461 
L 360.145679 283.711267 
L 370.349107 283.213693 
L 380.552536 289.84355 
L 390.755964 298.709606 
L 400.959393 305.003791 
L 411.162821 308.390891 
L 421.36625 312.727469 
L 431.569679 311.590988 
L 441.773107 310.688427 
L 451.976536 309.056711 
L 462.179964 308.070033 
L 472.383393 310.127027 
L 482.586821 313.674212 
L 492.79025 314.250184 
L 502.993679 314.566309 
L 513.197107 314.110467 
L 523.400536 315.853804 
L 533.603964 321.081408 
L 543.807393 324.466075 
L 554.010821 320.74554 
L 564.21425 313.711269 
L 574.417679 307.873927 
L 584.621107 308.439724 
L 594.824536 310.812215 
L 605.027964 313.546929 
L 615.231393 313.005485 
L 625.434821 309.200668 
L 635.63825 309.465769 
L 645.841679 312.867542 
L 656.045107 316.375073 
L 666.248536 319.209619 
L 676.451964 323.831618 
L 686.655393 326.951912 
L 696.858821 324.839484 
L 707.06225 320.671305 
L 717.265679 317.68429 
L 727.469107 317.146874 
L 737.672536 319.693174 
L 747.875964 322.929669 
L 758.079393 324.864283 
L 768.282821 326.238931 
L 778.48625 327.269679 
L 788.689679 325.437431 
L 798.893107 322.467225 
L 809.096536 318.418832 
L 819.299964 315.881623 
L 829.503393 317.92904 
L 839.706821 323.092412 
L 849.91025 328.764253 
L 860.113679 328.457554 
L 870.317107 329.025977 
L 880.520536 329.01912 
L 890.723964 328.452344 
L 900.927393 327.558473 
L 911.130821 329.225177 
L 921.33425 332.34806 
L 931.537679 334.994459 
L 941.741107 336.829063 
L 951.944536 334.848217 
L 962.147964 328.382011 
L 972.351393 321.471446 
L 982.554821 317.854906 
L 992.75825 318.625132 
L 1002.961679 325.458723 
L 1013.165107 331.993296 
L 1023.368536 333.926228 
L 1033.571964 328.086918 
L 1043.775393 320.26825 
L 1053.978821 316.68544 
L 1064.18225 316.373628 
L 1074.385679 319.247907 
L 1084.589107 324.799407 
L 1094.792536 329.227524 
L 1104.995964 331.392371 
L 1115.199393 333.239801 
L 1125.402821 341.365532 
" style="fill:none;stroke:#33bbee;stroke-linecap:square;stroke-width:1.5;"/>
   </g>
   <g id="line2d_57">
    <path clip-path="url(#p0c56e0242c)" d="M 120.995185 -1 
L 125.466821 113.358251 
L 135.67025 221.805374 
L 145.873679 262.51261 
L 156.077107 283.103452 
L 166.280536 303.538243 
L 176.483964 322.826156 
L 186.687393 336.749379 
L 196.890821 346.743893 
L 207.09425 352.277518 
L 217.297679 352.016175 
L 227.501107 357.442309 
L 237.704536 359.423091 
L 247.907964 357.091662 
L 258.111393 353.492708 
L 268.314821 353.967883 
L 278.51825 353.660683 
L 288.721679 359.006969 
L 298.925107 367.42159 
L 309.128536 373.709062 
L 319.331964 376.241554 
L 329.535393 382.671484 
L 339.738821 382.580357 
L 349.94225 379.788129 
L 360.145679 376.989243 
L 370.349107 375.745124 
L 380.552536 372.427351 
L 390.755964 371.84703 
L 400.959393 375.876677 
L 411.162821 377.089271 
L 421.36625 376.178446 
L 431.569679 378.003939 
L 441.773107 379.083814 
L 451.976536 382.739292 
L 462.179964 389.309949 
L 472.383393 396.59098 
L 482.586821 400.406762 
L 492.79025 401.292267 
L 502.993679 399.846632 
L 513.197107 398.615535 
L 523.400536 396.893954 
L 533.603964 394.959692 
L 543.807393 393.465616 
L 554.010821 394.054501 
L 564.21425 397.712842 
L 574.417679 401.5755 
L 584.621107 404.000722 
L 594.824536 407.026659 
L 605.027964 405.138189 
L 615.231393 401.53118 
L 625.434821 399.362739 
L 635.63825 398.29673 
L 645.841679 400.890777 
L 656.045107 405.119763 
L 666.248536 411.792268 
L 676.451964 413.84636 
L 686.655393 412.387453 
L 696.858821 409.031015 
L 707.06225 406.310136 
L 717.265679 404.455466 
L 727.469107 404.391193 
L 737.672536 405.562865 
L 747.875964 409.333453 
L 758.079393 411.909054 
L 768.282821 413.190103 
L 778.48625 413.928263 
L 788.689679 414.086498 
L 798.893107 413.404627 
L 809.096536 414.358481 
L 819.299964 415.332797 
L 829.503393 422.675839 
L 839.706821 421.443212 
L 849.91025 413.195341 
L 860.113679 401.274311 
L 870.317107 390.068813 
L 880.520536 383.614001 
L 890.723964 384.854584 
L 900.927393 392.125232 
L 911.130821 405.08935 
L 921.33425 406.070147 
L 931.537679 405.774895 
L 941.741107 402.492547 
L 951.944536 399.797016 
L 962.147964 400.623098 
L 972.351393 405.248497 
L 982.554821 411.823194 
L 992.75825 416.160669 
L 1002.961679 414.51353 
L 1013.165107 415.212852 
L 1023.368536 417.160788 
L 1033.571964 419.114885 
L 1043.775393 420.568936 
L 1053.978821 422.029528 
L 1064.18225 423.193962 
L 1074.385679 419.989731 
L 1084.589107 416.604397 
L 1094.792536 412.238251 
L 1104.995964 408.361016 
L 1115.199393 407.940897 
L 1125.402821 415.927802 
" style="fill:none;stroke:#ee3377;stroke-linecap:square;stroke-width:1.5;"/>
   </g>
   <g id="line2d_58">
    <path clip-path="url(#p0c56e0242c)" d="M 117.127719 -1 
L 125.466821 274.061446 
L 135.67025 392.607741 
L 145.873679 416.45951 
L 156.077107 415.51945 
L 166.280536 419.663349 
L 176.483964 430.863897 
L 186.687393 433.830594 
L 196.890821 439.501037 
L 207.09425 440.81924 
L 217.297679 442.615352 
L 227.501107 440.75787 
L 237.704536 438.690963 
L 247.907964 440.216499 
L 258.111393 443.029263 
L 268.314821 449.880834 
L 278.51825 457.817631 
L 288.721679 462.044564 
L 298.925107 463.944411 
L 309.128536 460.328954 
L 319.331964 458.787812 
L 329.535393 459.186106 
L 339.738821 462.674646 
L 349.94225 468.362663 
L 360.145679 468.129003 
L 370.349107 464.406733 
L 380.552536 461.939636 
L 390.755964 464.444602 
L 400.959393 467.181234 
L 411.162821 472.46953 
L 421.36625 474.391686 
L 431.569679 474.259371 
L 441.773107 468.963966 
L 451.976536 466.588338 
L 462.179964 467.317087 
L 472.383393 471.128624 
L 482.586821 473.413434 
L 492.79025 478.392395 
L 502.993679 474.69241 
L 513.197107 468.747198 
L 523.400536 459.064679 
L 533.603964 457.679461 
L 543.807393 460.11726 
L 554.010821 461.072468 
L 564.21425 461.823448 
L 574.417679 465.260886 
L 584.621107 465.961366 
L 594.824536 469.767292 
L 605.027964 473.430063 
L 615.231393 478.080155 
L 625.434821 479.909245 
L 635.63825 481.044478 
L 645.841679 483.619354 
L 656.045107 485.733835 
L 666.248536 484.142969 
L 676.451964 484.68909 
L 686.655393 485.778225 
L 696.858821 486.297172 
L 707.06225 486.706894 
L 717.265679 485.892375 
L 727.469107 486.022291 
L 737.672536 488.312267 
L 747.875964 489.709834 
L 758.079393 490.917142 
L 768.282821 490.163676 
L 778.48625 489.620658 
L 788.689679 488.28602 
L 798.893107 489.925527 
L 809.096536 490.99242 
L 819.299964 489.787337 
L 829.503393 485.052976 
L 839.706821 482.756569 
L 849.91025 481.738909 
L 860.113679 482.13606 
L 870.317107 483.331735 
L 880.520536 485.550499 
L 890.723964 484.113326 
L 900.927393 485.901687 
L 911.130821 488.187755 
L 921.33425 486.211804 
L 931.537679 480.259626 
L 941.741107 474.932761 
L 951.944536 472.994381 
L 962.147964 475.218286 
L 972.351393 481.75767 
L 982.554821 488.425755 
L 992.75825 489.24472 
L 1002.961679 487.521907 
L 1013.165107 485.763783 
L 1023.368536 483.830038 
L 1033.571964 482.865191 
L 1043.775393 484.842947 
L 1053.978821 487.165185 
L 1064.18225 487.926723 
L 1074.385679 487.601215 
L 1084.589107 486.312432 
L 1094.792536 484.598997 
L 1104.995964 483.456498 
L 1115.199393 484.247257 
L 1125.402821 488.660694 
" style="fill:none;stroke:#009988;stroke-linecap:square;stroke-width:1.5;"/>
   </g>
   <g id="patch_3">
    <path d="M 64.24625 546.262594 
L 64.24625 14.038594 
" style="fill:none;stroke:#000000;stroke-linecap:square;stroke-linejoin:miter;stroke-width:0.8;"/>
   </g>
   <g id="patch_4">
    <path d="M 1135.60625 546.262594 
L 1135.60625 14.038594 
" style="fill:none;stroke:#000000;stroke-linecap:square;stroke-linejoin:miter;stroke-width:0.8;"/>
   </g>
   <g id="patch_5">
    <path d="M 64.24625 546.262594 
L 1135.60625 546.262594 
" style="fill:none;stroke:#000000;stroke-linecap:square;stroke-linejoin:miter;stroke-width:0.8;"/>
   </g>
   <g id="patch_6">
    <path d="M 64.24625 14.038594 
L 1135.60625 14.038594 
" style="fill:none;stroke:#000000;stroke-linecap:square;stroke-linejoin:miter;stroke-width:0.8;"/>
   </g>
   <g id="legend_1">
    <g id="patch_7">
     <path d="M 607.162812 186.962344 
L 1123.00625 186.962344 
Q 1126.60625 186.962344 1126.60625 183.362344 
L 1126.60625 26.638594 
Q 1126.60625 23.038594 1123.00625 23.038594 
L 607.162812 23.038594 
Q 603.562812 23.038594 603.562812 26.638594 
L 603.562812 183.362344 
Q 603.562812 186.962344 607.162812 186.962344 
z
" style="fill:#ffffff;opacity:0.8;stroke:#cccccc;stroke-linejoin:miter;"/>
    </g>
    <g id="line2d_59">
     <path d="M 610.762812 37.615781 
L 646.762812 37.615781 
" style="fill:none;stroke:#ff7043;stroke-linecap:square;stroke-width:1.5;"/>
    </g>
    <g id="line2d_60"/>
    <g id="text_26">
     <!-- lr0.001 bs64  simu20 cpuct1 chan512 dropout0.3 -->
     <defs>
      <path d="M 41.109375 46.296875 
Q 39.59375 47.171875 37.8125 47.578125 
Q 36.03125 48 33.890625 48 
Q 26.265625 48 22.1875 43.046875 
Q 18.109375 38.09375 18.109375 28.8125 
L 18.109375 0 
L 9.078125 0 
L 9.078125 54.6875 
L 18.109375 54.6875 
L 18.109375 46.1875 
Q 20.953125 51.171875 25.484375 53.578125 
Q 30.03125 56 36.53125 56 
Q 37.453125 56 38.578125 55.875 
Q 39.703125 55.765625 41.0625 55.515625 
z
" id="DejaVuSans-114"/>
      <path id="DejaVuSans-32"/>
      <path d="M 48.6875 27.296875 
Q 48.6875 37.203125 44.609375 42.84375 
Q 40.53125 48.484375 33.40625 48.484375 
Q 26.265625 48.484375 22.1875 42.84375 
Q 18.109375 37.203125 18.109375 27.296875 
Q 18.109375 17.390625 22.1875 11.75 
Q 26.265625 6.109375 33.40625 6.109375 
Q 40.53125 6.109375 44.609375 11.75 
Q 48.6875 17.390625 48.6875 27.296875 
z
M 18.109375 46.390625 
Q 20.953125 51.265625 25.265625 53.625 
Q 29.59375 56 35.59375 56 
Q 45.5625 56 51.78125 48.09375 
Q 58.015625 40.1875 58.015625 27.296875 
Q 58.015625 14.40625 51.78125 6.484375 
Q 45.5625 -1.421875 35.59375 -1.421875 
Q 29.59375 -1.421875 25.265625 0.953125 
Q 20.953125 3.328125 18.109375 8.203125 
L 18.109375 0 
L 9.078125 0 
L 9.078125 75.984375 
L 18.109375 75.984375 
z
" id="DejaVuSans-98"/>
      <path d="M 9.421875 54.6875 
L 18.40625 54.6875 
L 18.40625 0 
L 9.421875 0 
z
M 9.421875 75.984375 
L 18.40625 75.984375 
L 18.40625 64.59375 
L 9.421875 64.59375 
z
" id="DejaVuSans-105"/>
      <path d="M 52 44.1875 
Q 55.375 50.25 60.0625 53.125 
Q 64.75 56 71.09375 56 
Q 79.640625 56 84.28125 50.015625 
Q 88.921875 44.046875 88.921875 33.015625 
L 88.921875 0 
L 79.890625 0 
L 79.890625 32.71875 
Q 79.890625 40.578125 77.09375 44.375 
Q 74.3125 48.1875 68.609375 48.1875 
Q 61.625 48.1875 57.5625 43.546875 
Q 53.515625 38.921875 53.515625 30.90625 
L 53.515625 0 
L 44.484375 0 
L 44.484375 32.71875 
Q 44.484375 40.625 41.703125 44.40625 
Q 38.921875 48.1875 33.109375 48.1875 
Q 26.21875 48.1875 22.15625 43.53125 
Q 18.109375 38.875 18.109375 30.90625 
L 18.109375 0 
L 9.078125 0 
L 9.078125 54.6875 
L 18.109375 54.6875 
L 18.109375 46.1875 
Q 21.1875 51.21875 25.484375 53.609375 
Q 29.78125 56 35.6875 56 
Q 41.65625 56 45.828125 52.96875 
Q 50 49.953125 52 44.1875 
z
" id="DejaVuSans-109"/>
      <path d="M 8.5 21.578125 
L 8.5 54.6875 
L 17.484375 54.6875 
L 17.484375 21.921875 
Q 17.484375 14.15625 20.5 10.265625 
Q 23.53125 6.390625 29.59375 6.390625 
Q 36.859375 6.390625 41.078125 11.03125 
Q 45.3125 15.671875 45.3125 23.6875 
L 45.3125 54.6875 
L 54.296875 54.6875 
L 54.296875 0 
L 45.3125 0 
L 45.3125 8.40625 
Q 42.046875 3.421875 37.71875 1 
Q 33.40625 -1.421875 27.6875 -1.421875 
Q 18.265625 -1.421875 13.375 4.4375 
Q 8.5 10.296875 8.5 21.578125 
z
M 31.109375 56 
z
" id="DejaVuSans-117"/>
      <path d="M 18.3125 70.21875 
L 18.3125 54.6875 
L 36.8125 54.6875 
L 36.8125 47.703125 
L 18.3125 47.703125 
L 18.3125 18.015625 
Q 18.3125 11.328125 20.140625 9.421875 
Q 21.96875 7.515625 27.59375 7.515625 
L 36.8125 7.515625 
L 36.8125 0 
L 27.59375 0 
Q 17.1875 0 13.234375 3.875 
Q 9.28125 7.765625 9.28125 18.015625 
L 9.28125 47.703125 
L 2.6875 47.703125 
L 2.6875 54.6875 
L 9.28125 54.6875 
L 9.28125 70.21875 
z
" id="DejaVuSans-116"/>
      <path d="M 34.28125 27.484375 
Q 23.390625 27.484375 19.1875 25 
Q 14.984375 22.515625 14.984375 16.5 
Q 14.984375 11.71875 18.140625 8.90625 
Q 21.296875 6.109375 26.703125 6.109375 
Q 34.1875 6.109375 38.703125 11.40625 
Q 43.21875 16.703125 43.21875 25.484375 
L 43.21875 27.484375 
z
M 52.203125 31.203125 
L 52.203125 0 
L 43.21875 0 
L 43.21875 8.296875 
Q 40.140625 3.328125 35.546875 0.953125 
Q 30.953125 -1.421875 24.3125 -1.421875 
Q 15.921875 -1.421875 10.953125 3.296875 
Q 6 8.015625 6 15.921875 
Q 6 25.140625 12.171875 29.828125 
Q 18.359375 34.515625 30.609375 34.515625 
L 43.21875 34.515625 
L 43.21875 35.40625 
Q 43.21875 41.609375 39.140625 45 
Q 35.0625 48.390625 27.6875 48.390625 
Q 23 48.390625 18.546875 47.265625 
Q 14.109375 46.140625 10.015625 43.890625 
L 10.015625 52.203125 
Q 14.9375 54.109375 19.578125 55.046875 
Q 24.21875 56 28.609375 56 
Q 40.484375 56 46.34375 49.84375 
Q 52.203125 43.703125 52.203125 31.203125 
z
" id="DejaVuSans-97"/>
      <path d="M 54.890625 33.015625 
L 54.890625 0 
L 45.90625 0 
L 45.90625 32.71875 
Q 45.90625 40.484375 42.875 44.328125 
Q 39.84375 48.1875 33.796875 48.1875 
Q 26.515625 48.1875 22.3125 43.546875 
Q 18.109375 38.921875 18.109375 30.90625 
L 18.109375 0 
L 9.078125 0 
L 9.078125 54.6875 
L 18.109375 54.6875 
L 18.109375 46.1875 
Q 21.34375 51.125 25.703125 53.5625 
Q 30.078125 56 35.796875 56 
Q 45.21875 56 50.046875 50.171875 
Q 54.890625 44.34375 54.890625 33.015625 
z
" id="DejaVuSans-110"/>
      <path d="M 45.40625 46.390625 
L 45.40625 75.984375 
L 54.390625 75.984375 
L 54.390625 0 
L 45.40625 0 
L 45.40625 8.203125 
Q 42.578125 3.328125 38.25 0.953125 
Q 33.9375 -1.421875 27.875 -1.421875 
Q 17.96875 -1.421875 11.734375 6.484375 
Q 5.515625 14.40625 5.515625 27.296875 
Q 5.515625 40.1875 11.734375 48.09375 
Q 17.96875 56 27.875 56 
Q 33.9375 56 38.25 53.625 
Q 42.578125 51.265625 45.40625 46.390625 
z
M 14.796875 27.296875 
Q 14.796875 17.390625 18.875 11.75 
Q 22.953125 6.109375 30.078125 6.109375 
Q 37.203125 6.109375 41.296875 11.75 
Q 45.40625 17.390625 45.40625 27.296875 
Q 45.40625 37.203125 41.296875 42.84375 
Q 37.203125 48.484375 30.078125 48.484375 
Q 22.953125 48.484375 18.875 42.84375 
Q 14.796875 37.203125 14.796875 27.296875 
z
" id="DejaVuSans-100"/>
     </defs>
     <g transform="translate(661.162812 43.915781)scale(0.18 -0.18)">
      <use xlink:href="#DejaVuSans-108"/>
      <use x="27.783203" xlink:href="#DejaVuSans-114"/>
      <use x="68.896484" xlink:href="#DejaVuSans-48"/>
      <use x="132.519531" xlink:href="#DejaVuSans-46"/>
      <use x="164.306641" xlink:href="#DejaVuSans-48"/>
      <use x="227.929688" xlink:href="#DejaVuSans-48"/>
      <use x="291.552734" xlink:href="#DejaVuSans-49"/>
      <use x="355.175781" xlink:href="#DejaVuSans-32"/>
      <use x="386.962891" xlink:href="#DejaVuSans-98"/>
      <use x="450.439453" xlink:href="#DejaVuSans-115"/>
      <use x="502.539062" xlink:href="#DejaVuSans-54"/>
      <use x="566.162109" xlink:href="#DejaVuSans-52"/>
      <use x="629.785156" xlink:href="#DejaVuSans-32"/>
      <use x="661.572266" xlink:href="#DejaVuSans-32"/>
      <use x="693.359375" xlink:href="#DejaVuSans-115"/>
      <use x="745.458984" xlink:href="#DejaVuSans-105"/>
      <use x="773.242188" xlink:href="#DejaVuSans-109"/>
      <use x="870.654297" xlink:href="#DejaVuSans-117"/>
      <use x="934.033203" xlink:href="#DejaVuSans-50"/>
      <use x="997.65625" xlink:href="#DejaVuSans-48"/>
      <use x="1061.279297" xlink:href="#DejaVuSans-32"/>
      <use x="1093.066406" xlink:href="#DejaVuSans-99"/>
      <use x="1148.046875" xlink:href="#DejaVuSans-112"/>
      <use x="1211.523438" xlink:href="#DejaVuSans-117"/>
      <use x="1274.902344" xlink:href="#DejaVuSans-99"/>
      <use x="1329.882812" xlink:href="#DejaVuSans-116"/>
      <use x="1369.091797" xlink:href="#DejaVuSans-49"/>
      <use x="1432.714844" xlink:href="#DejaVuSans-32"/>
      <use x="1464.501953" xlink:href="#DejaVuSans-99"/>
      <use x="1519.482422" xlink:href="#DejaVuSans-104"/>
      <use x="1582.861328" xlink:href="#DejaVuSans-97"/>
      <use x="1644.140625" xlink:href="#DejaVuSans-110"/>
      <use x="1707.519531" xlink:href="#DejaVuSans-53"/>
      <use x="1771.142578" xlink:href="#DejaVuSans-49"/>
      <use x="1834.765625" xlink:href="#DejaVuSans-50"/>
      <use x="1898.388672" xlink:href="#DejaVuSans-32"/>
      <use x="1930.175781" xlink:href="#DejaVuSans-100"/>
      <use x="1993.652344" xlink:href="#DejaVuSans-114"/>
      <use x="2034.734375" xlink:href="#DejaVuSans-111"/>
      <use x="2095.916016" xlink:href="#DejaVuSans-112"/>
      <use x="2159.392578" xlink:href="#DejaVuSans-111"/>
      <use x="2220.574219" xlink:href="#DejaVuSans-117"/>
      <use x="2283.953125" xlink:href="#DejaVuSans-116"/>
      <use x="2323.162109" xlink:href="#DejaVuSans-48"/>
      <use x="2386.785156" xlink:href="#DejaVuSans-46"/>
      <use x="2418.572266" xlink:href="#DejaVuSans-51"/>
     </g>
    </g>
    <g id="line2d_61">
     <path d="M 610.762812 64.036406 
L 646.762812 64.036406 
" style="fill:none;stroke:#0077bb;stroke-linecap:square;stroke-width:1.5;"/>
    </g>
    <g id="line2d_62"/>
    <g id="text_27">
     <!-- lr0.0001 bs64  simu20 cpuct1 chan512 dropout0.3 -->
     <g transform="translate(661.162812 70.336406)scale(0.18 -0.18)">
      <use xlink:href="#DejaVuSans-108"/>
      <use x="27.783203" xlink:href="#DejaVuSans-114"/>
      <use x="68.896484" xlink:href="#DejaVuSans-48"/>
      <use x="132.519531" xlink:href="#DejaVuSans-46"/>
      <use x="164.306641" xlink:href="#DejaVuSans-48"/>
      <use x="227.929688" xlink:href="#DejaVuSans-48"/>
      <use x="291.552734" xlink:href="#DejaVuSans-48"/>
      <use x="355.175781" xlink:href="#DejaVuSans-49"/>
      <use x="418.798828" xlink:href="#DejaVuSans-32"/>
      <use x="450.585938" xlink:href="#DejaVuSans-98"/>
      <use x="514.0625" xlink:href="#DejaVuSans-115"/>
      <use x="566.162109" xlink:href="#DejaVuSans-54"/>
      <use x="629.785156" xlink:href="#DejaVuSans-52"/>
      <use x="693.408203" xlink:href="#DejaVuSans-32"/>
      <use x="725.195312" xlink:href="#DejaVuSans-32"/>
      <use x="756.982422" xlink:href="#DejaVuSans-115"/>
      <use x="809.082031" xlink:href="#DejaVuSans-105"/>
      <use x="836.865234" xlink:href="#DejaVuSans-109"/>
      <use x="934.277344" xlink:href="#DejaVuSans-117"/>
      <use x="997.65625" xlink:href="#DejaVuSans-50"/>
      <use x="1061.279297" xlink:href="#DejaVuSans-48"/>
      <use x="1124.902344" xlink:href="#DejaVuSans-32"/>
      <use x="1156.689453" xlink:href="#DejaVuSans-99"/>
      <use x="1211.669922" xlink:href="#DejaVuSans-112"/>
      <use x="1275.146484" xlink:href="#DejaVuSans-117"/>
      <use x="1338.525391" xlink:href="#DejaVuSans-99"/>
      <use x="1393.505859" xlink:href="#DejaVuSans-116"/>
      <use x="1432.714844" xlink:href="#DejaVuSans-49"/>
      <use x="1496.337891" xlink:href="#DejaVuSans-32"/>
      <use x="1528.125" xlink:href="#DejaVuSans-99"/>
      <use x="1583.105469" xlink:href="#DejaVuSans-104"/>
      <use x="1646.484375" xlink:href="#DejaVuSans-97"/>
      <use x="1707.763672" xlink:href="#DejaVuSans-110"/>
      <use x="1771.142578" xlink:href="#DejaVuSans-53"/>
      <use x="1834.765625" xlink:href="#DejaVuSans-49"/>
      <use x="1898.388672" xlink:href="#DejaVuSans-50"/>
      <use x="1962.011719" xlink:href="#DejaVuSans-32"/>
      <use x="1993.798828" xlink:href="#DejaVuSans-100"/>
      <use x="2057.275391" xlink:href="#DejaVuSans-114"/>
      <use x="2098.357422" xlink:href="#DejaVuSans-111"/>
      <use x="2159.539062" xlink:href="#DejaVuSans-112"/>
      <use x="2223.015625" xlink:href="#DejaVuSans-111"/>
      <use x="2284.197266" xlink:href="#DejaVuSans-117"/>
      <use x="2347.576172" xlink:href="#DejaVuSans-116"/>
      <use x="2386.785156" xlink:href="#DejaVuSans-48"/>
      <use x="2450.408203" xlink:href="#DejaVuSans-46"/>
      <use x="2482.195312" xlink:href="#DejaVuSans-51"/>
     </g>
    </g>
    <g id="line2d_63">
     <path d="M 610.762812 90.457031 
L 646.762812 90.457031 
" style="fill:none;stroke:#cc3311;stroke-linecap:square;stroke-width:1.5;"/>
    </g>
    <g id="line2d_64"/>
    <g id="text_28">
     <!-- lr0.01   bs64  simu20 cpuct1 chan512 dropout0.3 -->
     <g transform="translate(661.162812 96.757031)scale(0.18 -0.18)">
      <use xlink:href="#DejaVuSans-108"/>
      <use x="27.783203" xlink:href="#DejaVuSans-114"/>
      <use x="68.896484" xlink:href="#DejaVuSans-48"/>
      <use x="132.519531" xlink:href="#DejaVuSans-46"/>
      <use x="164.306641" xlink:href="#DejaVuSans-48"/>
      <use x="227.929688" xlink:href="#DejaVuSans-49"/>
      <use x="291.552734" xlink:href="#DejaVuSans-32"/>
      <use x="323.339844" xlink:href="#DejaVuSans-32"/>
      <use x="355.126953" xlink:href="#DejaVuSans-32"/>
      <use x="386.914062" xlink:href="#DejaVuSans-98"/>
      <use x="450.390625" xlink:href="#DejaVuSans-115"/>
      <use x="502.490234" xlink:href="#DejaVuSans-54"/>
      <use x="566.113281" xlink:href="#DejaVuSans-52"/>
      <use x="629.736328" xlink:href="#DejaVuSans-32"/>
      <use x="661.523438" xlink:href="#DejaVuSans-32"/>
      <use x="693.310547" xlink:href="#DejaVuSans-115"/>
      <use x="745.410156" xlink:href="#DejaVuSans-105"/>
      <use x="773.193359" xlink:href="#DejaVuSans-109"/>
      <use x="870.605469" xlink:href="#DejaVuSans-117"/>
      <use x="933.984375" xlink:href="#DejaVuSans-50"/>
      <use x="997.607422" xlink:href="#DejaVuSans-48"/>
      <use x="1061.230469" xlink:href="#DejaVuSans-32"/>
      <use x="1093.017578" xlink:href="#DejaVuSans-99"/>
      <use x="1147.998047" xlink:href="#DejaVuSans-112"/>
      <use x="1211.474609" xlink:href="#DejaVuSans-117"/>
      <use x="1274.853516" xlink:href="#DejaVuSans-99"/>
      <use x="1329.833984" xlink:href="#DejaVuSans-116"/>
      <use x="1369.042969" xlink:href="#DejaVuSans-49"/>
      <use x="1432.666016" xlink:href="#DejaVuSans-32"/>
      <use x="1464.453125" xlink:href="#DejaVuSans-99"/>
      <use x="1519.433594" xlink:href="#DejaVuSans-104"/>
      <use x="1582.8125" xlink:href="#DejaVuSans-97"/>
      <use x="1644.091797" xlink:href="#DejaVuSans-110"/>
      <use x="1707.470703" xlink:href="#DejaVuSans-53"/>
      <use x="1771.09375" xlink:href="#DejaVuSans-49"/>
      <use x="1834.716797" xlink:href="#DejaVuSans-50"/>
      <use x="1898.339844" xlink:href="#DejaVuSans-32"/>
      <use x="1930.126953" xlink:href="#DejaVuSans-100"/>
      <use x="1993.603516" xlink:href="#DejaVuSans-114"/>
      <use x="2034.685547" xlink:href="#DejaVuSans-111"/>
      <use x="2095.867188" xlink:href="#DejaVuSans-112"/>
      <use x="2159.34375" xlink:href="#DejaVuSans-111"/>
      <use x="2220.525391" xlink:href="#DejaVuSans-117"/>
      <use x="2283.904297" xlink:href="#DejaVuSans-116"/>
      <use x="2323.113281" xlink:href="#DejaVuSans-48"/>
      <use x="2386.736328" xlink:href="#DejaVuSans-46"/>
      <use x="2418.523438" xlink:href="#DejaVuSans-51"/>
     </g>
    </g>
    <g id="line2d_65">
     <path d="M 610.762812 116.877656 
L 646.762812 116.877656 
" style="fill:none;stroke:#33bbee;stroke-linecap:square;stroke-width:1.5;"/>
    </g>
    <g id="line2d_66"/>
    <g id="text_29">
     <!-- lr0.001  bs256 simu20 cpuct1 chan512 dropout0.3 -->
     <g transform="translate(661.162812 123.177656)scale(0.18 -0.18)">
      <use xlink:href="#DejaVuSans-108"/>
      <use x="27.783203" xlink:href="#DejaVuSans-114"/>
      <use x="68.896484" xlink:href="#DejaVuSans-48"/>
      <use x="132.519531" xlink:href="#DejaVuSans-46"/>
      <use x="164.306641" xlink:href="#DejaVuSans-48"/>
      <use x="227.929688" xlink:href="#DejaVuSans-48"/>
      <use x="291.552734" xlink:href="#DejaVuSans-49"/>
      <use x="355.175781" xlink:href="#DejaVuSans-32"/>
      <use x="386.962891" xlink:href="#DejaVuSans-32"/>
      <use x="418.75" xlink:href="#DejaVuSans-98"/>
      <use x="482.226562" xlink:href="#DejaVuSans-115"/>
      <use x="534.326172" xlink:href="#DejaVuSans-50"/>
      <use x="597.949219" xlink:href="#DejaVuSans-53"/>
      <use x="661.572266" xlink:href="#DejaVuSans-54"/>
      <use x="725.195312" xlink:href="#DejaVuSans-32"/>
      <use x="756.982422" xlink:href="#DejaVuSans-115"/>
      <use x="809.082031" xlink:href="#DejaVuSans-105"/>
      <use x="836.865234" xlink:href="#DejaVuSans-109"/>
      <use x="934.277344" xlink:href="#DejaVuSans-117"/>
      <use x="997.65625" xlink:href="#DejaVuSans-50"/>
      <use x="1061.279297" xlink:href="#DejaVuSans-48"/>
      <use x="1124.902344" xlink:href="#DejaVuSans-32"/>
      <use x="1156.689453" xlink:href="#DejaVuSans-99"/>
      <use x="1211.669922" xlink:href="#DejaVuSans-112"/>
      <use x="1275.146484" xlink:href="#DejaVuSans-117"/>
      <use x="1338.525391" xlink:href="#DejaVuSans-99"/>
      <use x="1393.505859" xlink:href="#DejaVuSans-116"/>
      <use x="1432.714844" xlink:href="#DejaVuSans-49"/>
      <use x="1496.337891" xlink:href="#DejaVuSans-32"/>
      <use x="1528.125" xlink:href="#DejaVuSans-99"/>
      <use x="1583.105469" xlink:href="#DejaVuSans-104"/>
      <use x="1646.484375" xlink:href="#DejaVuSans-97"/>
      <use x="1707.763672" xlink:href="#DejaVuSans-110"/>
      <use x="1771.142578" xlink:href="#DejaVuSans-53"/>
      <use x="1834.765625" xlink:href="#DejaVuSans-49"/>
      <use x="1898.388672" xlink:href="#DejaVuSans-50"/>
      <use x="1962.011719" xlink:href="#DejaVuSans-32"/>
      <use x="1993.798828" xlink:href="#DejaVuSans-100"/>
      <use x="2057.275391" xlink:href="#DejaVuSans-114"/>
      <use x="2098.357422" xlink:href="#DejaVuSans-111"/>
      <use x="2159.539062" xlink:href="#DejaVuSans-112"/>
      <use x="2223.015625" xlink:href="#DejaVuSans-111"/>
      <use x="2284.197266" xlink:href="#DejaVuSans-117"/>
      <use x="2347.576172" xlink:href="#DejaVuSans-116"/>
      <use x="2386.785156" xlink:href="#DejaVuSans-48"/>
      <use x="2450.408203" xlink:href="#DejaVuSans-46"/>
      <use x="2482.195312" xlink:href="#DejaVuSans-51"/>
     </g>
    </g>
    <g id="line2d_67">
     <path d="M 610.762812 143.298281 
L 646.762812 143.298281 
" style="fill:none;stroke:#ee3377;stroke-linecap:square;stroke-width:1.5;"/>
    </g>
    <g id="line2d_68"/>
    <g id="text_30">
     <!-- lr0.001  bs128 simu20 cpuct1 chan512 dropout0.3 -->
     <g transform="translate(661.162812 149.598281)scale(0.18 -0.18)">
      <use xlink:href="#DejaVuSans-108"/>
      <use x="27.783203" xlink:href="#DejaVuSans-114"/>
      <use x="68.896484" xlink:href="#DejaVuSans-48"/>
      <use x="132.519531" xlink:href="#DejaVuSans-46"/>
      <use x="164.306641" xlink:href="#DejaVuSans-48"/>
      <use x="227.929688" xlink:href="#DejaVuSans-48"/>
      <use x="291.552734" xlink:href="#DejaVuSans-49"/>
      <use x="355.175781" xlink:href="#DejaVuSans-32"/>
      <use x="386.962891" xlink:href="#DejaVuSans-32"/>
      <use x="418.75" xlink:href="#DejaVuSans-98"/>
      <use x="482.226562" xlink:href="#DejaVuSans-115"/>
      <use x="534.326172" xlink:href="#DejaVuSans-49"/>
      <use x="597.949219" xlink:href="#DejaVuSans-50"/>
      <use x="661.572266" xlink:href="#DejaVuSans-56"/>
      <use x="725.195312" xlink:href="#DejaVuSans-32"/>
      <use x="756.982422" xlink:href="#DejaVuSans-115"/>
      <use x="809.082031" xlink:href="#DejaVuSans-105"/>
      <use x="836.865234" xlink:href="#DejaVuSans-109"/>
      <use x="934.277344" xlink:href="#DejaVuSans-117"/>
      <use x="997.65625" xlink:href="#DejaVuSans-50"/>
      <use x="1061.279297" xlink:href="#DejaVuSans-48"/>
      <use x="1124.902344" xlink:href="#DejaVuSans-32"/>
      <use x="1156.689453" xlink:href="#DejaVuSans-99"/>
      <use x="1211.669922" xlink:href="#DejaVuSans-112"/>
      <use x="1275.146484" xlink:href="#DejaVuSans-117"/>
      <use x="1338.525391" xlink:href="#DejaVuSans-99"/>
      <use x="1393.505859" xlink:href="#DejaVuSans-116"/>
      <use x="1432.714844" xlink:href="#DejaVuSans-49"/>
      <use x="1496.337891" xlink:href="#DejaVuSans-32"/>
      <use x="1528.125" xlink:href="#DejaVuSans-99"/>
      <use x="1583.105469" xlink:href="#DejaVuSans-104"/>
      <use x="1646.484375" xlink:href="#DejaVuSans-97"/>
      <use x="1707.763672" xlink:href="#DejaVuSans-110"/>
      <use x="1771.142578" xlink:href="#DejaVuSans-53"/>
      <use x="1834.765625" xlink:href="#DejaVuSans-49"/>
      <use x="1898.388672" xlink:href="#DejaVuSans-50"/>
      <use x="1962.011719" xlink:href="#DejaVuSans-32"/>
      <use x="1993.798828" xlink:href="#DejaVuSans-100"/>
      <use x="2057.275391" xlink:href="#DejaVuSans-114"/>
      <use x="2098.357422" xlink:href="#DejaVuSans-111"/>
      <use x="2159.539062" xlink:href="#DejaVuSans-112"/>
      <use x="2223.015625" xlink:href="#DejaVuSans-111"/>
      <use x="2284.197266" xlink:href="#DejaVuSans-117"/>
      <use x="2347.576172" xlink:href="#DejaVuSans-116"/>
      <use x="2386.785156" xlink:href="#DejaVuSans-48"/>
      <use x="2450.408203" xlink:href="#DejaVuSans-46"/>
      <use x="2482.195312" xlink:href="#DejaVuSans-51"/>
     </g>
    </g>
    <g id="line2d_69">
     <path d="M 610.762812 169.718906 
L 646.762812 169.718906 
" style="fill:none;stroke:#009988;stroke-linecap:square;stroke-width:1.5;"/>
    </g>
    <g id="line2d_70"/>
    <g id="text_31">
     <!-- lr0.001  bs64  simu20 cpuct1 chan512 dropout0.0 -->
     <g transform="translate(661.162812 176.018906)scale(0.18 -0.18)">
      <use xlink:href="#DejaVuSans-108"/>
      <use x="27.783203" xlink:href="#DejaVuSans-114"/>
      <use x="68.896484" xlink:href="#DejaVuSans-48"/>
      <use x="132.519531" xlink:href="#DejaVuSans-46"/>
      <use x="164.306641" xlink:href="#DejaVuSans-48"/>
      <use x="227.929688" xlink:href="#DejaVuSans-48"/>
      <use x="291.552734" xlink:href="#DejaVuSans-49"/>
      <use x="355.175781" xlink:href="#DejaVuSans-32"/>
      <use x="386.962891" xlink:href="#DejaVuSans-32"/>
      <use x="418.75" xlink:href="#DejaVuSans-98"/>
      <use x="482.226562" xlink:href="#DejaVuSans-115"/>
      <use x="534.326172" xlink:href="#DejaVuSans-54"/>
      <use x="597.949219" xlink:href="#DejaVuSans-52"/>
      <use x="661.572266" xlink:href="#DejaVuSans-32"/>
      <use x="693.359375" xlink:href="#DejaVuSans-32"/>
      <use x="725.146484" xlink:href="#DejaVuSans-115"/>
      <use x="777.246094" xlink:href="#DejaVuSans-105"/>
      <use x="805.029297" xlink:href="#DejaVuSans-109"/>
      <use x="902.441406" xlink:href="#DejaVuSans-117"/>
      <use x="965.820312" xlink:href="#DejaVuSans-50"/>
      <use x="1029.443359" xlink:href="#DejaVuSans-48"/>
      <use x="1093.066406" xlink:href="#DejaVuSans-32"/>
      <use x="1124.853516" xlink:href="#DejaVuSans-99"/>
      <use x="1179.833984" xlink:href="#DejaVuSans-112"/>
      <use x="1243.310547" xlink:href="#DejaVuSans-117"/>
      <use x="1306.689453" xlink:href="#DejaVuSans-99"/>
      <use x="1361.669922" xlink:href="#DejaVuSans-116"/>
      <use x="1400.878906" xlink:href="#DejaVuSans-49"/>
      <use x="1464.501953" xlink:href="#DejaVuSans-32"/>
      <use x="1496.289062" xlink:href="#DejaVuSans-99"/>
      <use x="1551.269531" xlink:href="#DejaVuSans-104"/>
      <use x="1614.648438" xlink:href="#DejaVuSans-97"/>
      <use x="1675.927734" xlink:href="#DejaVuSans-110"/>
      <use x="1739.306641" xlink:href="#DejaVuSans-53"/>
      <use x="1802.929688" xlink:href="#DejaVuSans-49"/>
      <use x="1866.552734" xlink:href="#DejaVuSans-50"/>
      <use x="1930.175781" xlink:href="#DejaVuSans-32"/>
      <use x="1961.962891" xlink:href="#DejaVuSans-100"/>
      <use x="2025.439453" xlink:href="#DejaVuSans-114"/>
      <use x="2066.521484" xlink:href="#DejaVuSans-111"/>
      <use x="2127.703125" xlink:href="#DejaVuSans-112"/>
      <use x="2191.179688" xlink:href="#DejaVuSans-111"/>
      <use x="2252.361328" xlink:href="#DejaVuSans-117"/>
      <use x="2315.740234" xlink:href="#DejaVuSans-116"/>
      <use x="2354.949219" xlink:href="#DejaVuSans-48"/>
      <use x="2418.572266" xlink:href="#DejaVuSans-46"/>
      <use x="2450.359375" xlink:href="#DejaVuSans-48"/>
     </g>
    </g>
   </g>
  </g>
 </g>
 <defs>
  <clipPath id="p0c56e0242c">
   <rect height="532.224" width="1071.36" x="64.24625" y="14.038594"/>
  </clipPath>
 </defs>
</svg>
