<svg xmlns="http://www.w3.org/2000/svg" width="1920" height="947" style="cursor: move;"><g transform="translate(-4168.450180211183,-2041.6836480510174) scale(5.278031643091586)"><path class="link" marker-end="" d="M929,423.5, 980,463.5" style="stroke-width: 2; stroke-opacity: 1; stroke: rgb(255, 128, 128);"></path><path class="link" marker-end="" d="M929,423.5, 980,503.5" style="stroke-width: 2; stroke-opacity: 1; stroke: rgb(255, 128, 128);"></path><path class="link" marker-end="" d="M929,463.5, 980,463.5" style="stroke-width: 2; stroke-opacity: 1; stroke: rgb(255, 128, 128);"></path><path class="link" marker-end="" d="M929,463.5, 980,503.5" style="stroke-width: 2; stroke-opacity: 1; stroke: rgb(255, 128, 128);"></path><path class="link" marker-end="" d="M929,503.5, 980,463.5" style="stroke-width: 2; stroke-opacity: 1; stroke: rgb(255, 128, 128);"></path><path class="link" marker-end="" d="M929,503.5, 980,503.5" style="stroke-width: 2; stroke-opacity: 1; stroke: rgb(255, 128, 128);"></path><path class="link" marker-end="" d="M980,423.5, 1031,423.5" style="stroke-width: 2; stroke-opacity: 1; stroke: rgb(255, 128, 128);"></path><path class="link" marker-end="" d="M980,423.5, 1031,463.5" style="stroke-width: 2; stroke-opacity: 1; stroke: rgb(255, 128, 128);"></path><path class="link" marker-end="" d="M980,423.5, 1031,503.5" style="stroke-width: 2; stroke-opacity: 1; stroke: rgb(255, 128, 128);"></path><path class="link" marker-end="" d="M980,463.5, 1031,423.5" style="stroke-width: 2; stroke-opacity: 1; stroke: rgb(255, 128, 128);"></path><path class="link" marker-end="" d="M980,463.5, 1031,463.5" style="stroke-width: 2; stroke-opacity: 1; stroke: rgb(255, 128, 128);"></path><path class="link" marker-end="" d="M980,463.5, 1031,503.5" style="stroke-width: 2; stroke-opacity: 1; stroke: rgb(255, 128, 128);"></path><path class="link" marker-end="" d="M980,503.5, 1031,423.5" style="stroke-width: 2; stroke-opacity: 1; stroke: rgb(255, 128, 128);"></path><path class="link" marker-end="" d="M980,503.5, 1031,463.5" style="stroke-width: 2; stroke-opacity: 1; stroke: rgb(255, 128, 128);"></path><path class="link" marker-end="" d="M980,503.5, 1031,503.5" style="stroke-width: 2; stroke-opacity: 1; stroke: rgb(255, 128, 128);"></path><path class="link" marker-end="" d="M929,423.5, 980,423.5" style="stroke-width: 2; stroke-opacity: 1; stroke: rgb(255, 128, 128);"></path><path class="link" marker-end="" d="M929,463.5, 980,423.5" style="stroke-width: 2; stroke-opacity: 1; stroke: rgb(255, 128, 128);"></path><path class="link" marker-end="" d="M929,503.5, 980,423.5" style="stroke-width: 2; stroke-opacity: 1; stroke: rgb(255, 128, 128);"></path><circle r="10" class="node" id="0_0" cx="929" cy="423.5" style="fill: rgb(255, 128, 128); stroke: rgb(255, 128, 128);"></circle><circle r="10" class="node" id="0_1" cx="929" cy="463.5" style="fill: rgb(255, 128, 128); stroke: rgb(255, 128, 128);"></circle><circle r="10" class="node" id="0_2" cx="929" cy="503.5" style="fill: rgb(255, 128, 128); stroke: rgb(255, 128, 128);"></circle><circle r="10" class="node" id="1_0" cx="980" cy="423.5" style="fill: rgb(255, 128, 128); stroke: rgb(255, 128, 128);"></circle><circle r="10" class="node" id="1_1" cx="980" cy="463.5" style="fill: rgb(255, 128, 128); stroke: rgb(255, 128, 128);"></circle><circle r="10" class="node" id="1_2" cx="980" cy="503.5" style="fill: rgb(255, 128, 128); stroke: rgb(255, 128, 128);"></circle><circle r="10" class="node" id="2_0" cx="1031" cy="423.5" style="fill: rgb(255, 128, 128); stroke: rgb(255, 128, 128);"></circle><circle r="10" class="node" id="2_1" cx="1031" cy="463.5" style="fill: rgb(255, 128, 128); stroke: rgb(255, 128, 128);"></circle><circle r="10" class="node" id="2_2" cx="1031" cy="503.5" style="fill: rgb(255, 128, 128); stroke: rgb(255, 128, 128);"></circle><text class="text" dy=".35em" x="894" y="543.5" style="font-size: 12px;"></text><text class="text" dy=".35em" x="945" y="543.5" style="font-size: 12px;"></text><text class="text" dy=".35em" x="996" y="543.5" style="font-size: 12px;"></text></g><defs><marker id="arrow" viewBox="0 -5 10 10" markerWidth="7" markerHeight="7" orient="auto" refX="40"><path d="M0,-5L10,0L0,5" style="stroke: rgb(80, 80, 80); fill: none;"></path></marker></defs></svg>