<?xml version="1.0" encoding="UTF-8" standalone="no"?>
<svg
   xmlns:dc="http://purl.org/dc/elements/1.1/"
   xmlns:cc="http://creativecommons.org/ns#"
   xmlns:rdf="http://www.w3.org/1999/02/22-rdf-syntax-ns#"
   xmlns:svg="http://www.w3.org/2000/svg"
   xmlns="http://www.w3.org/2000/svg"
   viewBox="0 0 696.2243 536.42389"
   height="536.42389"
   width="696.2243"
   xml:space="preserve"
   id="svg2"
   version="1.1"><metadata
     id="metadata8"><rdf:RDF><cc:Work
         rdf:about=""><dc:format>image/svg+xml</dc:format><dc:type
           rdf:resource="http://purl.org/dc/dcmitype/StillImage" /></cc:Work></rdf:RDF></metadata><defs
     id="defs6"><clipPath
       id="clipPath14"
       clipPathUnits="userSpaceOnUse"><path
         id="path12"
         d="M 0,0 H 960 V 540 H 0 Z" /></clipPath><clipPath
       id="clipPath208"
       clipPathUnits="userSpaceOnUse"><path
         style="clip-rule:evenodd"
         id="path206"
         d="M 1.4305e-5,0 H 960.00001 V 540 H 1.4305e-5 Z" /></clipPath><clipPath
       id="clipPath220"
       clipPathUnits="userSpaceOnUse"><path
         style="clip-rule:evenodd"
         id="path218"
         d="M 1.4305e-5,0 H 960.00001 V 540 H 1.4305e-5 Z" /></clipPath><clipPath
       id="clipPath232"
       clipPathUnits="userSpaceOnUse"><path
         style="clip-rule:evenodd"
         id="path230"
         d="M 1.4305e-5,0 H 960.00001 V 540 H 1.4305e-5 Z" /></clipPath><clipPath
       id="clipPath262"
       clipPathUnits="userSpaceOnUse"><path
         style="clip-rule:evenodd"
         id="path260"
         d="M 1.4305e-5,0 H 960.00001 V 540 H 1.4305e-5 Z" /></clipPath><clipPath
       id="clipPath274"
       clipPathUnits="userSpaceOnUse"><path
         style="clip-rule:evenodd"
         id="path272"
         d="M 1.4305e-5,0 H 960.00001 V 540 H 1.4305e-5 Z" /></clipPath><clipPath
       id="clipPath286"
       clipPathUnits="userSpaceOnUse"><path
         style="clip-rule:evenodd"
         id="path284"
         d="M 1.4305e-5,0 H 960.00001 V 540 H 1.4305e-5 Z" /></clipPath></defs><g
     clip-path="url(#clipPath14)"
     transform="matrix(1.3333333,0,0,-1.3333333,-220.11214,684.23844)"
     id="g10"><path
       id="path16"
       style="fill:none;stroke:#000000;stroke-width:0.25;stroke-linecap:butt;stroke-linejoin:round;stroke-miterlimit:10;stroke-dasharray:none;stroke-opacity:1"
       d="M 402.99,505.9 V 367.11" /><path
       id="path18"
       style="fill:none;stroke:#000000;stroke-width:0.25;stroke-linecap:butt;stroke-linejoin:round;stroke-miterlimit:10;stroke-dasharray:none;stroke-opacity:1"
       d="M 449.17,505.9 V 367.11" /><path
       id="path20"
       style="fill:none;stroke:#000000;stroke-width:0.25;stroke-linecap:butt;stroke-linejoin:round;stroke-miterlimit:10;stroke-dasharray:none;stroke-opacity:1"
       d="M 356.69,459.6 H 495.48" /><path
       id="path22"
       style="fill:none;stroke:#000000;stroke-width:0.25;stroke-linecap:butt;stroke-linejoin:round;stroke-miterlimit:10;stroke-dasharray:none;stroke-opacity:1"
       d="M 356.69,413.42 H 495.48" /><path
       id="path24"
       style="fill:none;stroke:#000000;stroke-width:0.25;stroke-linecap:butt;stroke-linejoin:round;stroke-miterlimit:10;stroke-dasharray:none;stroke-opacity:1"
       d="M 356.81,505.9 V 367.11" /><path
       id="path26"
       style="fill:none;stroke:#000000;stroke-width:0.25;stroke-linecap:butt;stroke-linejoin:round;stroke-miterlimit:10;stroke-dasharray:none;stroke-opacity:1"
       d="M 495.36,505.9 V 367.11" /><path
       id="path28"
       style="fill:none;stroke:#000000;stroke-width:0.25;stroke-linecap:butt;stroke-linejoin:round;stroke-miterlimit:10;stroke-dasharray:none;stroke-opacity:1"
       d="M 356.69,505.78 H 495.48" /><path
       id="path30"
       style="fill:none;stroke:#000000;stroke-width:0.25;stroke-linecap:butt;stroke-linejoin:round;stroke-miterlimit:10;stroke-dasharray:none;stroke-opacity:1"
       d="M 356.69,367.24 H 495.48" /><path
       id="path32"
       style="fill:#000000;fill-opacity:1;fill-rule:evenodd;stroke:none"
       d="m 411.36,436.14 c 0,7.85 6.58,14.22 14.7,14.22 8.12,0 14.7,-6.37 14.7,-14.22 0,-7.85 -6.58,-14.22 -14.7,-14.22 -8.12,0 -14.7,6.37 -14.7,14.22 z" /><path
       id="path34"
       style="fill:none;stroke:#000000;stroke-width:0.95999998;stroke-linecap:butt;stroke-linejoin:miter;stroke-miterlimit:8;stroke-dasharray:none;stroke-opacity:1"
       d="m 411.36,436.14 c 0,7.85 6.58,14.22 14.7,14.22 8.12,0 14.7,-6.37 14.7,-14.22 0,-7.85 -6.58,-14.22 -14.7,-14.22 -8.12,0 -14.7,6.37 -14.7,14.22 z" /><path
       id="path36"
       style="fill:#000000;fill-opacity:1;fill-rule:evenodd;stroke:none"
       d="m 365.88,436.14 c 0,7.85 6.58,14.22 14.7,14.22 8.12,0 14.7,-6.37 14.7,-14.22 0,-7.85 -6.58,-14.22 -14.7,-14.22 -8.12,0 -14.7,6.37 -14.7,14.22 z" /><path
       id="path38"
       style="fill:none;stroke:#000000;stroke-width:0.95999998;stroke-linecap:butt;stroke-linejoin:miter;stroke-miterlimit:8;stroke-dasharray:none;stroke-opacity:1"
       d="m 365.88,436.14 c 0,7.85 6.58,14.22 14.7,14.22 8.12,0 14.7,-6.37 14.7,-14.22 0,-7.85 -6.58,-14.22 -14.7,-14.22 -8.12,0 -14.7,6.37 -14.7,14.22 z" /><path
       id="path40"
       style="fill:#000000;fill-opacity:1;fill-rule:evenodd;stroke:none"
       d="m 456.84,436.14 c 0,7.85 6.58,14.22 14.7,14.22 8.12,0 14.7,-6.37 14.7,-14.22 0,-7.85 -6.58,-14.22 -14.7,-14.22 -8.12,0 -14.7,6.37 -14.7,14.22 z" /><path
       id="path42"
       style="fill:none;stroke:#000000;stroke-width:0.95999998;stroke-linecap:butt;stroke-linejoin:miter;stroke-miterlimit:8;stroke-dasharray:none;stroke-opacity:1"
       d="m 456.84,436.14 c 0,7.85 6.58,14.22 14.7,14.22 8.12,0 14.7,-6.37 14.7,-14.22 0,-7.85 -6.58,-14.22 -14.7,-14.22 -8.12,0 -14.7,6.37 -14.7,14.22 z" /><path
       id="path44"
       style="fill:#000000;fill-opacity:1;fill-rule:evenodd;stroke:none"
       d="m 411.36,389.28 c 0,7.82 6.58,14.16 14.7,14.16 8.12,0 14.7,-6.34 14.7,-14.16 0,-7.82 -6.58,-14.16 -14.7,-14.16 -8.12,0 -14.7,6.34 -14.7,14.16 z" /><path
       id="path46"
       style="fill:none;stroke:#000000;stroke-width:0.95999998;stroke-linecap:butt;stroke-linejoin:miter;stroke-miterlimit:8;stroke-dasharray:none;stroke-opacity:1"
       d="m 411.36,389.28 c 0,7.82 6.58,14.16 14.7,14.16 8.12,0 14.7,-6.34 14.7,-14.16 0,-7.82 -6.58,-14.16 -14.7,-14.16 -8.12,0 -14.7,6.34 -14.7,14.16 z" /><path
       id="path48"
       style="fill:#ffffff;fill-opacity:1;fill-rule:evenodd;stroke:none"
       d="m 456.84,389.28 c 0,7.82 6.58,14.16 14.7,14.16 8.12,0 14.7,-6.34 14.7,-14.16 0,-7.82 -6.58,-14.16 -14.7,-14.16 -8.12,0 -14.7,6.34 -14.7,14.16 z" /><path
       id="path50"
       style="fill:none;stroke:#000000;stroke-width:0.47999999;stroke-linecap:butt;stroke-linejoin:miter;stroke-miterlimit:8;stroke-dasharray:none;stroke-opacity:1"
       d="m 456.84,389.28 c 0,7.82 6.58,14.16 14.7,14.16 8.12,0 14.7,-6.34 14.7,-14.16 0,-7.82 -6.58,-14.16 -14.7,-14.16 -8.12,0 -14.7,6.34 -14.7,14.16 z" /><path
       id="path52"
       style="fill:#ffffff;fill-opacity:1;fill-rule:evenodd;stroke:none"
       d="m 376.56,482.16 c 0,2.19 1.8,3.96 4.02,3.96 2.22,0 4.02,-1.77 4.02,-3.96 0,-2.19 -1.8,-3.96 -4.02,-3.96 -2.22,0 -4.02,1.77 -4.02,3.96 z" /><path
       id="path54"
       style="fill:none;stroke:#ff0000;stroke-width:0.47999999;stroke-linecap:butt;stroke-linejoin:miter;stroke-miterlimit:8;stroke-dasharray:none;stroke-opacity:1"
       d="m 376.56,482.16 c 0,2.19 1.8,3.96 4.02,3.96 2.22,0 4.02,-1.77 4.02,-3.96 0,-2.19 -1.8,-3.96 -4.02,-3.96 -2.22,0 -4.02,1.77 -4.02,3.96 z" /><path
       id="path56"
       style="fill:#ffffff;fill-opacity:1;fill-rule:evenodd;stroke:none"
       d="m 467.52,482.22 c 0,2.22 1.8,4.02 4.02,4.02 2.22,0 4.02,-1.8 4.02,-4.02 0,-2.22 -1.8,-4.02 -4.02,-4.02 -2.22,0 -4.02,1.8 -4.02,4.02 z" /><path
       id="path58"
       style="fill:none;stroke:#ff0000;stroke-width:0.47999999;stroke-linecap:butt;stroke-linejoin:miter;stroke-miterlimit:8;stroke-dasharray:none;stroke-opacity:1"
       d="m 467.52,482.22 c 0,2.22 1.8,4.02 4.02,4.02 2.22,0 4.02,-1.8 4.02,-4.02 0,-2.22 -1.8,-4.02 -4.02,-4.02 -2.22,0 -4.02,1.8 -4.02,4.02 z" /><path
       id="path60"
       style="fill:#ffffff;fill-opacity:1;fill-rule:evenodd;stroke:none"
       d="m 376.8,389.28 c 0,2.19 1.8,3.96 4.02,3.96 2.22,0 4.02,-1.77 4.02,-3.96 0,-2.19 -1.8,-3.96 -4.02,-3.96 -2.22,0 -4.02,1.77 -4.02,3.96 z" /><path
       id="path62"
       style="fill:none;stroke:#ff0000;stroke-width:0.47999999;stroke-linecap:butt;stroke-linejoin:miter;stroke-miterlimit:8;stroke-dasharray:none;stroke-opacity:1"
       d="m 376.8,389.28 c 0,2.19 1.8,3.96 4.02,3.96 2.22,0 4.02,-1.77 4.02,-3.96 0,-2.19 -1.8,-3.96 -4.02,-3.96 -2.22,0 -4.02,1.77 -4.02,3.96 z" /><path
       id="path64"
       style="fill:none;stroke:#000000;stroke-width:0.25;stroke-linecap:butt;stroke-linejoin:round;stroke-miterlimit:8;stroke-dasharray:none;stroke-opacity:1"
       d="M 218.16,298.9 V 160.11" /><path
       id="path66"
       style="fill:none;stroke:#000000;stroke-width:0.25;stroke-linecap:butt;stroke-linejoin:round;stroke-miterlimit:8;stroke-dasharray:none;stroke-opacity:1"
       d="M 264.34,298.9 V 160.11" /><path
       id="path68"
       style="fill:none;stroke:#000000;stroke-width:0.25;stroke-linecap:butt;stroke-linejoin:round;stroke-miterlimit:8;stroke-dasharray:none;stroke-opacity:1"
       d="M 171.86,252.6 H 310.65" /><path
       id="path70"
       style="fill:none;stroke:#000000;stroke-width:0.25;stroke-linecap:butt;stroke-linejoin:round;stroke-miterlimit:8;stroke-dasharray:none;stroke-opacity:1"
       d="M 171.86,206.42 H 310.65" /><path
       id="path72"
       style="fill:none;stroke:#000000;stroke-width:0.25;stroke-linecap:butt;stroke-linejoin:round;stroke-miterlimit:8;stroke-dasharray:none;stroke-opacity:1"
       d="M 171.98,298.9 V 160.11" /><path
       id="path74"
       style="fill:none;stroke:#000000;stroke-width:0.25;stroke-linecap:butt;stroke-linejoin:round;stroke-miterlimit:8;stroke-dasharray:none;stroke-opacity:1"
       d="M 310.53,298.9 V 160.11" /><path
       id="path76"
       style="fill:none;stroke:#000000;stroke-width:0.25;stroke-linecap:butt;stroke-linejoin:round;stroke-miterlimit:8;stroke-dasharray:none;stroke-opacity:1"
       d="M 171.86,298.78 H 310.65" /><path
       id="path78"
       style="fill:none;stroke:#000000;stroke-width:0.25;stroke-linecap:butt;stroke-linejoin:round;stroke-miterlimit:8;stroke-dasharray:none;stroke-opacity:1"
       d="M 171.86,160.24 H 310.65" /><path
       id="path80"
       style="fill:#000000;fill-opacity:1;fill-rule:evenodd;stroke:none"
       d="m 226.56,229.14 c 0,7.85 6.58,14.22 14.7,14.22 8.12,0 14.7,-6.37 14.7,-14.22 0,-7.85 -6.58,-14.22 -14.7,-14.22 -8.12,0 -14.7,6.37 -14.7,14.22 z" /><path
       id="path82"
       style="fill:none;stroke:#000000;stroke-width:0.95999998;stroke-linecap:butt;stroke-linejoin:miter;stroke-miterlimit:8;stroke-dasharray:none;stroke-opacity:1"
       d="m 226.56,229.14 c 0,7.85 6.58,14.22 14.7,14.22 8.12,0 14.7,-6.37 14.7,-14.22 0,-7.85 -6.58,-14.22 -14.7,-14.22 -8.12,0 -14.7,6.37 -14.7,14.22 z" /><path
       id="path84"
       style="fill:#000000;fill-opacity:1;fill-rule:evenodd;stroke:none"
       d="m 181.08,229.14 c 0,7.85 6.58,14.22 14.7,14.22 8.12,0 14.7,-6.37 14.7,-14.22 0,-7.85 -6.58,-14.22 -14.7,-14.22 -8.12,0 -14.7,6.37 -14.7,14.22 z" /><path
       id="path86"
       style="fill:none;stroke:#000000;stroke-width:0.95999998;stroke-linecap:butt;stroke-linejoin:miter;stroke-miterlimit:8;stroke-dasharray:none;stroke-opacity:1"
       d="m 181.08,229.14 c 0,7.85 6.58,14.22 14.7,14.22 8.12,0 14.7,-6.37 14.7,-14.22 0,-7.85 -6.58,-14.22 -14.7,-14.22 -8.12,0 -14.7,6.37 -14.7,14.22 z" /><path
       id="path88"
       style="fill:#000000;fill-opacity:1;fill-rule:evenodd;stroke:none"
       d="m 272.04,229.14 c 0,7.85 6.58,14.22 14.7,14.22 8.12,0 14.7,-6.37 14.7,-14.22 0,-7.85 -6.58,-14.22 -14.7,-14.22 -8.12,0 -14.7,6.37 -14.7,14.22 z" /><path
       id="path90"
       style="fill:none;stroke:#000000;stroke-width:0.95999998;stroke-linecap:butt;stroke-linejoin:miter;stroke-miterlimit:8;stroke-dasharray:none;stroke-opacity:1"
       d="m 272.04,229.14 c 0,7.85 6.58,14.22 14.7,14.22 8.12,0 14.7,-6.37 14.7,-14.22 0,-7.85 -6.58,-14.22 -14.7,-14.22 -8.12,0 -14.7,6.37 -14.7,14.22 z" /><path
       id="path92"
       style="fill:#ffffff;fill-opacity:1;fill-rule:evenodd;stroke:none"
       d="m 226.56,182.28 c 0,7.82 6.58,14.16 14.7,14.16 8.12,0 14.7,-6.34 14.7,-14.16 0,-7.82 -6.58,-14.16 -14.7,-14.16 -8.12,0 -14.7,6.34 -14.7,14.16 z" /><path
       id="path94"
       style="fill:none;stroke:#000000;stroke-width:0.95999998;stroke-linecap:butt;stroke-linejoin:miter;stroke-miterlimit:8;stroke-dasharray:none;stroke-opacity:1"
       d="m 226.56,182.28 c 0,7.82 6.58,14.16 14.7,14.16 8.12,0 14.7,-6.34 14.7,-14.16 0,-7.82 -6.58,-14.16 -14.7,-14.16 -8.12,0 -14.7,6.34 -14.7,14.16 z" /><path
       id="path96"
       style="fill:#ffffff;fill-opacity:1;fill-rule:evenodd;stroke:none"
       d="m 272.04,182.28 c 0,7.82 6.58,14.16 14.7,14.16 8.12,0 14.7,-6.34 14.7,-14.16 0,-7.82 -6.58,-14.16 -14.7,-14.16 -8.12,0 -14.7,6.34 -14.7,14.16 z" /><path
       id="path98"
       style="fill:none;stroke:#000000;stroke-width:0.47999999;stroke-linecap:butt;stroke-linejoin:miter;stroke-miterlimit:8;stroke-dasharray:none;stroke-opacity:1"
       d="m 272.04,182.28 c 0,7.82 6.58,14.16 14.7,14.16 8.12,0 14.7,-6.34 14.7,-14.16 0,-7.82 -6.58,-14.16 -14.7,-14.16 -8.12,0 -14.7,6.34 -14.7,14.16 z" /><path
       id="path100"
       style="fill:#ffffff;fill-opacity:1;fill-rule:evenodd;stroke:none"
       d="m 192,182.28 c 0,2.19 1.8,3.96 4.02,3.96 2.22,0 4.02,-1.77 4.02,-3.96 0,-2.19 -1.8,-3.96 -4.02,-3.96 -2.22,0 -4.02,1.77 -4.02,3.96 z" /><path
       id="path102"
       style="fill:none;stroke:#ff0000;stroke-width:0.47999999;stroke-linecap:butt;stroke-linejoin:miter;stroke-miterlimit:8;stroke-dasharray:none;stroke-opacity:1"
       d="m 192,182.28 c 0,2.19 1.8,3.96 4.02,3.96 2.22,0 4.02,-1.77 4.02,-3.96 0,-2.19 -1.8,-3.96 -4.02,-3.96 -2.22,0 -4.02,1.77 -4.02,3.96 z" /><path
       id="path104"
       style="fill:none;stroke:#000000;stroke-width:0.25;stroke-linecap:butt;stroke-linejoin:round;stroke-miterlimit:8;stroke-dasharray:none;stroke-opacity:1"
       d="M 402.99,298.9 V 160.11" /><path
       id="path106"
       style="fill:none;stroke:#000000;stroke-width:0.25;stroke-linecap:butt;stroke-linejoin:round;stroke-miterlimit:8;stroke-dasharray:none;stroke-opacity:1"
       d="M 449.17,298.9 V 160.11" /><path
       id="path108"
       style="fill:none;stroke:#000000;stroke-width:0.25;stroke-linecap:butt;stroke-linejoin:round;stroke-miterlimit:8;stroke-dasharray:none;stroke-opacity:1"
       d="M 356.69,252.6 H 495.48" /><path
       id="path110"
       style="fill:none;stroke:#000000;stroke-width:0.25;stroke-linecap:butt;stroke-linejoin:round;stroke-miterlimit:8;stroke-dasharray:none;stroke-opacity:1"
       d="M 356.69,206.42 H 495.48" /><path
       id="path112"
       style="fill:none;stroke:#000000;stroke-width:0.25;stroke-linecap:butt;stroke-linejoin:round;stroke-miterlimit:8;stroke-dasharray:none;stroke-opacity:1"
       d="M 356.81,298.9 V 160.11" /><path
       id="path114"
       style="fill:none;stroke:#000000;stroke-width:0.25;stroke-linecap:butt;stroke-linejoin:round;stroke-miterlimit:8;stroke-dasharray:none;stroke-opacity:1"
       d="M 495.36,298.9 V 160.11" /><path
       id="path116"
       style="fill:none;stroke:#000000;stroke-width:0.25;stroke-linecap:butt;stroke-linejoin:round;stroke-miterlimit:8;stroke-dasharray:none;stroke-opacity:1"
       d="M 356.69,298.78 H 495.48" /><path
       id="path118"
       style="fill:none;stroke:#000000;stroke-width:0.25;stroke-linecap:butt;stroke-linejoin:round;stroke-miterlimit:8;stroke-dasharray:none;stroke-opacity:1"
       d="M 356.69,160.24 H 495.48" /><path
       id="path120"
       style="fill:#000000;fill-opacity:1;fill-rule:evenodd;stroke:none"
       d="m 411.36,229.14 c 0,7.85 6.58,14.22 14.7,14.22 8.12,0 14.7,-6.37 14.7,-14.22 0,-7.85 -6.58,-14.22 -14.7,-14.22 -8.12,0 -14.7,6.37 -14.7,14.22 z" /><path
       id="path122"
       style="fill:none;stroke:#000000;stroke-width:0.95999998;stroke-linecap:butt;stroke-linejoin:miter;stroke-miterlimit:8;stroke-dasharray:none;stroke-opacity:1"
       d="m 411.36,229.14 c 0,7.85 6.58,14.22 14.7,14.22 8.12,0 14.7,-6.37 14.7,-14.22 0,-7.85 -6.58,-14.22 -14.7,-14.22 -8.12,0 -14.7,6.37 -14.7,14.22 z" /><path
       id="path124"
       style="fill:#000000;fill-opacity:1;fill-rule:evenodd;stroke:none"
       d="m 365.88,229.14 c 0,7.85 6.58,14.22 14.7,14.22 8.12,0 14.7,-6.37 14.7,-14.22 0,-7.85 -6.58,-14.22 -14.7,-14.22 -8.12,0 -14.7,6.37 -14.7,14.22 z" /><path
       id="path126"
       style="fill:none;stroke:#000000;stroke-width:0.95999998;stroke-linecap:butt;stroke-linejoin:miter;stroke-miterlimit:8;stroke-dasharray:none;stroke-opacity:1"
       d="m 365.88,229.14 c 0,7.85 6.58,14.22 14.7,14.22 8.12,0 14.7,-6.37 14.7,-14.22 0,-7.85 -6.58,-14.22 -14.7,-14.22 -8.12,0 -14.7,6.37 -14.7,14.22 z" /><path
       id="path128"
       style="fill:#ffffff;fill-opacity:1;fill-rule:evenodd;stroke:none"
       d="m 456.84,229.14 c 0,7.85 6.58,14.22 14.7,14.22 8.12,0 14.7,-6.37 14.7,-14.22 0,-7.85 -6.58,-14.22 -14.7,-14.22 -8.12,0 -14.7,6.37 -14.7,14.22 z" /><path
       id="path130"
       style="fill:none;stroke:#000000;stroke-width:0.95999998;stroke-linecap:butt;stroke-linejoin:miter;stroke-miterlimit:8;stroke-dasharray:none;stroke-opacity:1"
       d="m 456.84,229.14 c 0,7.85 6.58,14.22 14.7,14.22 8.12,0 14.7,-6.37 14.7,-14.22 0,-7.85 -6.58,-14.22 -14.7,-14.22 -8.12,0 -14.7,6.37 -14.7,14.22 z" /><path
       id="path132"
       style="fill:#000000;fill-opacity:1;fill-rule:evenodd;stroke:none"
       d="m 411.36,182.28 c 0,7.82 6.58,14.16 14.7,14.16 8.12,0 14.7,-6.34 14.7,-14.16 0,-7.82 -6.58,-14.16 -14.7,-14.16 -8.12,0 -14.7,6.34 -14.7,14.16 z" /><path
       id="path134"
       style="fill:none;stroke:#000000;stroke-width:0.95999998;stroke-linecap:butt;stroke-linejoin:miter;stroke-miterlimit:8;stroke-dasharray:none;stroke-opacity:1"
       d="m 411.36,182.28 c 0,7.82 6.58,14.16 14.7,14.16 8.12,0 14.7,-6.34 14.7,-14.16 0,-7.82 -6.58,-14.16 -14.7,-14.16 -8.12,0 -14.7,6.34 -14.7,14.16 z" /><path
       id="path136"
       style="fill:#ffffff;fill-opacity:1;fill-rule:evenodd;stroke:none"
       d="m 456.84,182.28 c 0,7.82 6.58,14.16 14.7,14.16 8.12,0 14.7,-6.34 14.7,-14.16 0,-7.82 -6.58,-14.16 -14.7,-14.16 -8.12,0 -14.7,6.34 -14.7,14.16 z" /><path
       id="path138"
       style="fill:none;stroke:#000000;stroke-width:0.47999999;stroke-linecap:butt;stroke-linejoin:miter;stroke-miterlimit:8;stroke-dasharray:none;stroke-opacity:1"
       d="m 456.84,182.28 c 0,7.82 6.58,14.16 14.7,14.16 8.12,0 14.7,-6.34 14.7,-14.16 0,-7.82 -6.58,-14.16 -14.7,-14.16 -8.12,0 -14.7,6.34 -14.7,14.16 z" /><path
       id="path140"
       style="fill:#ffffff;fill-opacity:1;fill-rule:evenodd;stroke:none"
       d="m 467.52,275.22 c 0,2.22 1.8,4.02 4.02,4.02 2.22,0 4.02,-1.8 4.02,-4.02 0,-2.22 -1.8,-4.02 -4.02,-4.02 -2.22,0 -4.02,1.8 -4.02,4.02 z" /><path
       id="path142"
       style="fill:none;stroke:#ff0000;stroke-width:0.47999999;stroke-linecap:butt;stroke-linejoin:miter;stroke-miterlimit:8;stroke-dasharray:none;stroke-opacity:1"
       d="m 467.52,275.22 c 0,2.22 1.8,4.02 4.02,4.02 2.22,0 4.02,-1.8 4.02,-4.02 0,-2.22 -1.8,-4.02 -4.02,-4.02 -2.22,0 -4.02,1.8 -4.02,4.02 z" /><path
       id="path144"
       style="fill:none;stroke:#000000;stroke-width:0.25;stroke-linecap:butt;stroke-linejoin:round;stroke-miterlimit:8;stroke-dasharray:none;stroke-opacity:1"
       d="M 587.76,298.9 V 160.11" /><path
       id="path146"
       style="fill:none;stroke:#000000;stroke-width:0.25;stroke-linecap:butt;stroke-linejoin:round;stroke-miterlimit:8;stroke-dasharray:none;stroke-opacity:1"
       d="M 633.94,298.9 V 160.11" /><path
       id="path148"
       style="fill:none;stroke:#000000;stroke-width:0.25;stroke-linecap:butt;stroke-linejoin:round;stroke-miterlimit:8;stroke-dasharray:none;stroke-opacity:1"
       d="m 541.45,252.6 h 138.8" /><path
       id="path150"
       style="fill:none;stroke:#000000;stroke-width:0.25;stroke-linecap:butt;stroke-linejoin:round;stroke-miterlimit:8;stroke-dasharray:none;stroke-opacity:1"
       d="m 541.45,206.42 h 138.8" /><path
       id="path152"
       style="fill:none;stroke:#000000;stroke-width:0.25;stroke-linecap:butt;stroke-linejoin:round;stroke-miterlimit:8;stroke-dasharray:none;stroke-opacity:1"
       d="M 541.58,298.9 V 160.11" /><path
       id="path154"
       style="fill:none;stroke:#000000;stroke-width:0.25;stroke-linecap:butt;stroke-linejoin:round;stroke-miterlimit:8;stroke-dasharray:none;stroke-opacity:1"
       d="M 680.12,298.9 V 160.11" /><path
       id="path156"
       style="fill:none;stroke:#000000;stroke-width:0.25;stroke-linecap:butt;stroke-linejoin:round;stroke-miterlimit:8;stroke-dasharray:none;stroke-opacity:1"
       d="m 541.45,298.78 h 138.8" /><path
       id="path158"
       style="fill:none;stroke:#000000;stroke-width:0.25;stroke-linecap:butt;stroke-linejoin:round;stroke-miterlimit:8;stroke-dasharray:none;stroke-opacity:1"
       d="m 541.45,160.24 h 138.8" /><path
       id="path160"
       style="fill:#ffffff;fill-opacity:1;fill-rule:evenodd;stroke:none"
       d="m 596.16,229.14 c 0,7.85 6.58,14.22 14.7,14.22 8.12,0 14.7,-6.37 14.7,-14.22 0,-7.85 -6.58,-14.22 -14.7,-14.22 -8.12,0 -14.7,6.37 -14.7,14.22 z" /><path
       id="path162"
       style="fill:none;stroke:#000000;stroke-width:0.95999998;stroke-linecap:butt;stroke-linejoin:miter;stroke-miterlimit:8;stroke-dasharray:none;stroke-opacity:1"
       d="m 596.16,229.14 c 0,7.85 6.58,14.22 14.7,14.22 8.12,0 14.7,-6.37 14.7,-14.22 0,-7.85 -6.58,-14.22 -14.7,-14.22 -8.12,0 -14.7,6.37 -14.7,14.22 z" /><path
       id="path164"
       style="fill:#000000;fill-opacity:1;fill-rule:evenodd;stroke:none"
       d="m 550.68,229.14 c 0,7.85 6.58,14.22 14.7,14.22 8.12,0 14.7,-6.37 14.7,-14.22 0,-7.85 -6.58,-14.22 -14.7,-14.22 -8.12,0 -14.7,6.37 -14.7,14.22 z" /><path
       id="path166"
       style="fill:none;stroke:#000000;stroke-width:0.95999998;stroke-linecap:butt;stroke-linejoin:miter;stroke-miterlimit:8;stroke-dasharray:none;stroke-opacity:1"
       d="m 550.68,229.14 c 0,7.85 6.58,14.22 14.7,14.22 8.12,0 14.7,-6.37 14.7,-14.22 0,-7.85 -6.58,-14.22 -14.7,-14.22 -8.12,0 -14.7,6.37 -14.7,14.22 z" /><path
       id="path168"
       style="fill:#000000;fill-opacity:1;fill-rule:evenodd;stroke:none"
       d="m 641.64,229.14 c 0,7.85 6.58,14.22 14.7,14.22 8.12,0 14.7,-6.37 14.7,-14.22 0,-7.85 -6.58,-14.22 -14.7,-14.22 -8.12,0 -14.7,6.37 -14.7,14.22 z" /><path
       id="path170"
       style="fill:none;stroke:#000000;stroke-width:0.95999998;stroke-linecap:butt;stroke-linejoin:miter;stroke-miterlimit:8;stroke-dasharray:none;stroke-opacity:1"
       d="m 641.64,229.14 c 0,7.85 6.58,14.22 14.7,14.22 8.12,0 14.7,-6.37 14.7,-14.22 0,-7.85 -6.58,-14.22 -14.7,-14.22 -8.12,0 -14.7,6.37 -14.7,14.22 z" /><path
       id="path172"
       style="fill:#000000;fill-opacity:1;fill-rule:evenodd;stroke:none"
       d="m 596.16,182.28 c 0,7.82 6.58,14.16 14.7,14.16 8.12,0 14.7,-6.34 14.7,-14.16 0,-7.82 -6.58,-14.16 -14.7,-14.16 -8.12,0 -14.7,6.34 -14.7,14.16 z" /><path
       id="path174"
       style="fill:none;stroke:#000000;stroke-width:0.95999998;stroke-linecap:butt;stroke-linejoin:miter;stroke-miterlimit:8;stroke-dasharray:none;stroke-opacity:1"
       d="m 596.16,182.28 c 0,7.82 6.58,14.16 14.7,14.16 8.12,0 14.7,-6.34 14.7,-14.16 0,-7.82 -6.58,-14.16 -14.7,-14.16 -8.12,0 -14.7,6.34 -14.7,14.16 z" /><path
       id="path176"
       style="fill:#ffffff;fill-opacity:1;fill-rule:evenodd;stroke:none"
       d="m 641.64,182.28 c 0,7.82 6.58,14.16 14.7,14.16 8.12,0 14.7,-6.34 14.7,-14.16 0,-7.82 -6.58,-14.16 -14.7,-14.16 -8.12,0 -14.7,6.34 -14.7,14.16 z" /><path
       id="path178"
       style="fill:none;stroke:#000000;stroke-width:0.47999999;stroke-linecap:butt;stroke-linejoin:miter;stroke-miterlimit:8;stroke-dasharray:none;stroke-opacity:1"
       d="m 641.64,182.28 c 0,7.82 6.58,14.16 14.7,14.16 8.12,0 14.7,-6.34 14.7,-14.16 0,-7.82 -6.58,-14.16 -14.7,-14.16 -8.12,0 -14.7,6.34 -14.7,14.16 z" /><path
       id="path180"
       style="fill:#ffffff;fill-opacity:1;fill-rule:evenodd;stroke:none"
       d="m 561.36,275.16 c 0,2.19 1.8,3.96 4.02,3.96 2.22,0 4.02,-1.77 4.02,-3.96 0,-2.19 -1.8,-3.96 -4.02,-3.96 -2.22,0 -4.02,1.77 -4.02,3.96 z" /><path
       id="path182"
       style="fill:none;stroke:#ff0000;stroke-width:0.47999999;stroke-linecap:butt;stroke-linejoin:miter;stroke-miterlimit:8;stroke-dasharray:none;stroke-opacity:1"
       d="m 561.36,275.16 c 0,2.19 1.8,3.96 4.02,3.96 2.22,0 4.02,-1.77 4.02,-3.96 0,-2.19 -1.8,-3.96 -4.02,-3.96 -2.22,0 -4.02,1.77 -4.02,3.96 z" /><path
       id="path184"
       style="fill:#ffffff;fill-opacity:1;fill-rule:evenodd;stroke:none"
       d="m 550.68,275.58 c 0,7.85 6.58,14.22 14.7,14.22 8.12,0 14.7,-6.37 14.7,-14.22 0,-7.85 -6.58,-14.22 -14.7,-14.22 -8.12,0 -14.7,6.37 -14.7,14.22 z" /><path
       id="path186"
       style="fill:none;stroke:#000000;stroke-width:0.47999999;stroke-linecap:butt;stroke-linejoin:miter;stroke-miterlimit:8;stroke-dasharray:none;stroke-opacity:1"
       d="m 550.68,275.58 c 0,7.85 6.58,14.22 14.7,14.22 8.12,0 14.7,-6.37 14.7,-14.22 0,-7.85 -6.58,-14.22 -14.7,-14.22 -8.12,0 -14.7,6.37 -14.7,14.22 z" /><path
       id="path188"
       style="fill:#ffffff;fill-opacity:1;fill-rule:evenodd;stroke:none"
       d="m 456.6,275.58 c 0,7.85 6.58,14.22 14.7,14.22 8.12,0 14.7,-6.37 14.7,-14.22 0,-7.85 -6.58,-14.22 -14.7,-14.22 -8.12,0 -14.7,6.37 -14.7,14.22 z" /><path
       id="path190"
       style="fill:none;stroke:#000000;stroke-width:0.47999999;stroke-linecap:butt;stroke-linejoin:miter;stroke-miterlimit:8;stroke-dasharray:none;stroke-opacity:1"
       d="m 456.6,275.58 c 0,7.85 6.58,14.22 14.7,14.22 8.12,0 14.7,-6.37 14.7,-14.22 0,-7.85 -6.58,-14.22 -14.7,-14.22 -8.12,0 -14.7,6.37 -14.7,14.22 z" /><path
       id="path192"
       style="fill:#ffffff;fill-opacity:1;fill-rule:evenodd;stroke:none"
       d="m 181.08,182.28 c 0,7.82 6.58,14.16 14.7,14.16 8.12,0 14.7,-6.34 14.7,-14.16 0,-7.82 -6.58,-14.16 -14.7,-14.16 -8.12,0 -14.7,6.34 -14.7,14.16 z" /><path
       id="path194"
       style="fill:none;stroke:#000000;stroke-width:0.47999999;stroke-linecap:butt;stroke-linejoin:miter;stroke-miterlimit:8;stroke-dasharray:none;stroke-opacity:1"
       d="m 181.08,182.28 c 0,7.82 6.58,14.16 14.7,14.16 8.12,0 14.7,-6.34 14.7,-14.16 0,-7.82 -6.58,-14.16 -14.7,-14.16 -8.12,0 -14.7,6.34 -14.7,14.16 z" /><path
       id="path196"
       style="fill:#000000;fill-opacity:1;fill-rule:nonzero;stroke:none"
       d="m 425.86,367.67 -180.15,-66.72 0.35,-0.94 180.14,66.72 z m -180.08,-64.03 -4.58,-4.9 6.67,-0.73 z" /><path
       id="path198"
       style="fill:#000000;fill-opacity:1;fill-rule:nonzero;stroke:none"
       d="m 426.62,367.2 v -63.46 h -1 v 63.46 z m 2.5,-62.46 -3,-6 -3,6 z" /><path
       id="path200"
       style="fill:#000000;fill-opacity:1;fill-rule:nonzero;stroke:none"
       d="m 426.29,367.67 180.08,-66.72 -0.35,-0.94 -180.07,66.72 z m 180.01,-64.03 4.59,-4.9 -6.67,-0.72 z" /><g
       id="g202"><g
         clip-path="url(#clipPath208)"
         id="g204"><text
           id="text212"
           style="font-variant:normal;font-weight:normal;font-size:18px;font-family:Calibri;-inkscape-font-specification:Calibri;writing-mode:lr-tb;fill:#000000;fill-opacity:1;fill-rule:nonzero;stroke:none"
           transform="matrix(1,0,0,-1,514.37,338.62)"><tspan
             id="tspan210"
             y="0"
             x="0 9.1260004 13.662 22.788 31.914">2.04%</tspan></text>
</g></g><g
       id="g214"><g
         clip-path="url(#clipPath220)"
         id="g216"><text
           id="text224"
           style="font-variant:normal;font-weight:normal;font-size:18px;font-family:Calibri;-inkscape-font-specification:Calibri;writing-mode:lr-tb;fill:#000000;fill-opacity:1;fill-rule:nonzero;stroke:none"
           transform="matrix(1,0,0,-1,279.29,338.3)"><tspan
             id="tspan222"
             y="0"
             x="0 9.1260004 18.252001 22.788 31.914 41.040001">85.71%</tspan></text>
</g></g><g
       id="g226"><g
         clip-path="url(#clipPath232)"
         id="g228"><text
           id="text236"
           style="font-variant:normal;font-weight:normal;font-size:18px;font-family:Calibri;-inkscape-font-specification:Calibri;writing-mode:lr-tb;fill:#000000;fill-opacity:1;fill-rule:nonzero;stroke:none"
           transform="matrix(1,0,0,-1,433.34,317.11)"><tspan
             id="tspan234"
             y="0"
             x="0 9.1260004 18.252001 22.788 31.914 41.040001">12.25%</tspan></text>
</g></g><path
       id="path238"
       style="fill:#000000;fill-opacity:1;fill-rule:nonzero;stroke:none"
       d="m 240.91,160.55 -27.26,-27.36 0.71,-0.7 27.26,27.36 z m -28.32,-24.88 -2.11,-6.37 6.36,2.13 z" /><path
       id="path240"
       style="fill:#000000;fill-opacity:1;fill-rule:nonzero;stroke:none"
       d="m 241.7,160.2 v -25.9 h -1 v 25.9 z m 2.5,-24.9 -3,-6 -3,6 z" /><path
       id="path242"
       style="fill:#000000;fill-opacity:1;fill-rule:nonzero;stroke:none"
       d="m 241.55,160.55 27.26,-27.36 -0.7,-0.7 -27.26,27.36 z m 28.33,-24.88 2.11,-6.37 -6.36,2.13 z" /><path
       id="path244"
       style="fill:#000000;fill-opacity:1;fill-rule:nonzero;stroke:none"
       d="m 425.83,160.55 -27.26,-27.36 0.71,-0.7 27.26,27.36 z m -28.32,-24.88 -2.11,-6.37 6.36,2.13 z" /><path
       id="path246"
       style="fill:#000000;fill-opacity:1;fill-rule:nonzero;stroke:none"
       d="m 426.74,160.2 v -25.9 h -1 v 25.9 z m 2.5,-24.9 -3,-6 -3,6 z" /><path
       id="path248"
       style="fill:#000000;fill-opacity:1;fill-rule:nonzero;stroke:none"
       d="m 426.47,160.55 27.4,-27.36 -0.71,-0.71 -27.39,27.37 z m 28.46,-24.89 2.13,-6.36 -6.37,2.12 z" /><path
       id="path250"
       style="fill:#000000;fill-opacity:1;fill-rule:nonzero;stroke:none"
       d="m 610.51,160.55 -27.26,-27.36 0.71,-0.7 27.26,27.36 z m -28.32,-24.88 -2.11,-6.37 6.36,2.13 z" /><path
       id="path252"
       style="fill:#000000;fill-opacity:1;fill-rule:nonzero;stroke:none"
       d="m 611.3,160.2 v -25.9 h -1 v 25.9 z m 2.5,-24.9 -3,-6 -3,6 z" /><path
       id="path254"
       style="fill:#000000;fill-opacity:1;fill-rule:nonzero;stroke:none"
       d="m 611.15,160.55 27.26,-27.36 -0.7,-0.7 -27.26,27.36 z m 28.33,-24.88 2.11,-6.37 -6.36,2.13 z" /><g
       id="g256"><g
         clip-path="url(#clipPath262)"
         id="g258"><text
           id="text266"
           style="font-variant:normal;font-weight:normal;font-size:18.02400017px;font-family:Calibri;-inkscape-font-specification:Calibri;writing-mode:lr-tb;fill:#000000;fill-opacity:1;fill-rule:nonzero;stroke:none"
           transform="matrix(1,0,0,-1,229.22,113.28)"><tspan
             id="tspan264"
             y="0"
             x="0 12.47996">……</tspan></text>
</g></g><g
       id="g268"><g
         clip-path="url(#clipPath274)"
         id="g270"><text
           id="text278"
           style="font-variant:normal;font-weight:normal;font-size:18.02400017px;font-family:Calibri;-inkscape-font-specification:Calibri;writing-mode:lr-tb;fill:#000000;fill-opacity:1;fill-rule:nonzero;stroke:none"
           transform="matrix(1,0,0,-1,413.71,113.28)"><tspan
             id="tspan276"
             y="0"
             x="0 12.47996">……</tspan></text>
</g></g><g
       id="g280"><g
         clip-path="url(#clipPath286)"
         id="g282"><text
           id="text290"
           style="font-variant:normal;font-weight:normal;font-size:18.02400017px;font-family:Calibri;-inkscape-font-specification:Calibri;writing-mode:lr-tb;fill:#000000;fill-opacity:1;fill-rule:nonzero;stroke:none"
           transform="matrix(1,0,0,-1,598.37,113.28)"><tspan
             id="tspan288"
             y="0"
             x="0 12.47996">……</tspan></text>
</g></g></g></svg>