<svg version="1.1" viewBox="0 0 96 96" xmlns="http://www.w3.org/2000/svg" xmlns:xlink="http://www.w3.org/1999/xlink" id="Icons_CirclesWithArrows" overflow="hidden"><path d=" M 56.11 23.47 C 63.8615 25.9056 70.0286 31.8249 72.78 39.47 L 69.7 37.64 C 68.7906 37.0131 67.5451 37.2422 66.9182 38.1516 C 66.2913 39.0611 66.5204 40.3065 67.4299 40.9334 C 67.5157 40.9926 67.606 41.0449 67.7 41.09 L 74.7 45.24 C 75.0546 45.5245 75.4954 45.6796 75.95 45.68 L 76 45.68 L 76.16 45.68 L 76.24 45.68 L 76.24 45.68 L 76.4 45.68 C 76.9124 45.5469 77.3511 45.216 77.62 44.76 L 82 37.39 C 82.4777 36.3941 82.0576 35.1995 81.0616 34.7218 C 80.1741 34.2961 79.1087 34.5795 78.55 35.39 L 76.7 38.54 L 76.7 38.54 C 74.3882 31.7851 69.7386 26.0787 63.59 22.45 C 61.6058 21.2822 59.4957 20.3429 57.3 19.65 C 56.2451 19.3214 55.1236 19.9101 54.795 20.965 C 54.4664 22.0199 55.0551 23.1414 56.11 23.47 Z" stroke="none" stroke-width="1" stroke-dasharray="" stroke-dashoffset="1" fill="#FB4747" fill-opacity="1"/><path d=" M 19.14 55.16 C 19.3536 56.0638 20.1613 56.7017 21.09 56.7 C 21.2452 56.6991 21.3997 56.6789 21.55 56.64 C 22.6071 56.3695 23.2523 55.3016 23 54.24 C 21.4755 47.6995 22.5512 40.8226 26 35.06 C 26.7986 33.7082 27.7156 32.4298 28.74 31.24 L 28.8 31.3 L 28.8 34.96 C 28.8 36.0646 29.6954 36.96 30.8 36.96 C 31.9046 36.96 32.8 36.0646 32.8 34.96 L 32.88 26.48 C 32.88 25.3754 31.9846 24.48 30.88 24.48 L 22.39 24.4 C 21.2854 24.4 20.39 25.2954 20.39 26.4 C 20.39 27.5046 21.2854 28.4 22.39 28.4 L 25.94 28.4 C 24.65 29.8207 23.4982 31.361 22.5 33 C 18.543 39.6694 17.3379 47.6174 19.14 55.16 Z" stroke="none" stroke-width="1" stroke-dasharray="" stroke-dashoffset="1" fill="#FB4747" fill-opacity="1"/><path d=" M 66.22 67.15 C 60.1409 72.8851 51.6809 75.358 43.47 73.8 L 43.47 73.8 L 46.65 72 C 47.6082 71.4477 47.9373 70.2232 47.385 69.265 C 46.8327 68.3068 45.6082 67.9777 44.65 68.53 L 37.3 72.7 C 36.3394 73.2453 36.0028 74.4661 36.5481 75.4267 C 36.5487 75.4278 36.5494 75.4289 36.55 75.43 L 40.76 82.8 C 41.3123 83.761 42.539 84.0923 43.5 83.54 C 44.461 82.9877 44.7923 81.761 44.24 80.8 L 42.45 77.68 C 52.0142 79.605 61.9171 76.7591 69 70.05 C 69.8323 69.3238 69.9184 68.0604 69.1922 67.2281 C 68.4661 66.3958 67.2027 66.3097 66.3703 67.0359 C 66.3287 67.0722 66.2885 67.1103 66.25 67.15 Z" stroke="none" stroke-width="1" stroke-dasharray="" stroke-dashoffset="1" fill="#FB4747" fill-opacity="1"/><circle cx="26" cy="65.64" r="8" stroke="none" stroke-width="1" stroke-dasharray="" stroke-dashoffset="1" fill="#FB4747" fill-opacity="1"/><circle cx="74.5" cy="58.8" r="8" stroke="none" stroke-width="1" stroke-dasharray="" stroke-dashoffset="1" fill="#FB4747" fill-opacity="1"/><circle cx="44.75" cy="20.61" r="8" stroke="none" stroke-width="1" stroke-dasharray="" stroke-dashoffset="1" fill="#FB4747" fill-opacity="1"/></svg>