<?xml version="1.0" encoding="utf-8" standalone="no"?>
<!DOCTYPE svg PUBLIC "-//W3C//DTD SVG 1.1//EN"
  "http://www.w3.org/Graphics/SVG/1.1/DTD/svg11.dtd">
<!-- Created with matplotlib (https://matplotlib.org/) -->
<svg height="689.04pt" version="1.1" viewBox="0 0 1382.4 689.04" width="1382.4pt" xmlns="http://www.w3.org/2000/svg" xmlns:xlink="http://www.w3.org/1999/xlink">
 <defs>
  <style type="text/css">
*{stroke-linecap:butt;stroke-linejoin:round;}
  </style>
 </defs>
 <g id="figure_1">
  <g id="patch_1">
   <path d="M 0 689.04 
L 1382.4 689.04 
L 1382.4 0 
L 0 0 
z
" style="fill:#ffffff;"/>
  </g>
  <g id="axes_1">
   <g id="patch_2">
    <path d="M 172.8 613.2456 
L 1244.16 613.2456 
L 1244.16 82.6848 
L 172.8 82.6848 
z
" style="fill:#ffffff;"/>
   </g>
   <g id="matplotlib.axis_1">
    <g id="xtick_1">
     <g id="line2d_1">
      <path clip-path="url(#pa1d6b8f7d0)" d="M 223.817143 613.2456 
L 223.817143 82.6848 
" style="fill:none;stroke:#b0b0b0;stroke-dasharray:5.12,1.28,0.8,1.28;stroke-dashoffset:0;stroke-opacity:0.4;stroke-width:0.8;"/>
     </g>
     <g id="line2d_2">
      <defs>
       <path d="M 0 0 
L 0 3.5 
" id="mc67674de29" style="stroke:#000000;stroke-width:0.8;"/>
      </defs>
      <g>
       <use style="stroke:#000000;stroke-width:0.8;" x="223.817143" xlink:href="#mc67674de29" y="613.2456"/>
      </g>
     </g>
     <g id="text_1">
      <!-- 0 -->
      <defs>
       <path d="M 31.78125 66.40625 
Q 24.171875 66.40625 20.328125 58.90625 
Q 16.5 51.421875 16.5 36.375 
Q 16.5 21.390625 20.328125 13.890625 
Q 24.171875 6.390625 31.78125 6.390625 
Q 39.453125 6.390625 43.28125 13.890625 
Q 47.125 21.390625 47.125 36.375 
Q 47.125 51.421875 43.28125 58.90625 
Q 39.453125 66.40625 31.78125 66.40625 
z
M 31.78125 74.21875 
Q 44.046875 74.21875 50.515625 64.515625 
Q 56.984375 54.828125 56.984375 36.375 
Q 56.984375 17.96875 50.515625 8.265625 
Q 44.046875 -1.421875 31.78125 -1.421875 
Q 19.53125 -1.421875 13.0625 8.265625 
Q 6.59375 17.96875 6.59375 36.375 
Q 6.59375 54.828125 13.0625 64.515625 
Q 19.53125 74.21875 31.78125 74.21875 
z
" id="DejaVuSans-48"/>
      </defs>
      <g transform="translate(218.090893 633.922788)scale(0.18 -0.18)">
       <use xlink:href="#DejaVuSans-48"/>
      </g>
     </g>
    </g>
    <g id="xtick_2">
     <g id="line2d_3">
      <path clip-path="url(#pa1d6b8f7d0)" d="M 325.851429 613.2456 
L 325.851429 82.6848 
" style="fill:none;stroke:#b0b0b0;stroke-dasharray:5.12,1.28,0.8,1.28;stroke-dashoffset:0;stroke-opacity:0.4;stroke-width:0.8;"/>
     </g>
     <g id="line2d_4">
      <g>
       <use style="stroke:#000000;stroke-width:0.8;" x="325.851429" xlink:href="#mc67674de29" y="613.2456"/>
      </g>
     </g>
     <g id="text_2">
      <!-- 10 -->
      <defs>
       <path d="M 12.40625 8.296875 
L 28.515625 8.296875 
L 28.515625 63.921875 
L 10.984375 60.40625 
L 10.984375 69.390625 
L 28.421875 72.90625 
L 38.28125 72.90625 
L 38.28125 8.296875 
L 54.390625 8.296875 
L 54.390625 0 
L 12.40625 0 
z
" id="DejaVuSans-49"/>
      </defs>
      <g transform="translate(314.398929 633.922788)scale(0.18 -0.18)">
       <use xlink:href="#DejaVuSans-49"/>
       <use x="63.623047" xlink:href="#DejaVuSans-48"/>
      </g>
     </g>
    </g>
    <g id="xtick_3">
     <g id="line2d_5">
      <path clip-path="url(#pa1d6b8f7d0)" d="M 427.885714 613.2456 
L 427.885714 82.6848 
" style="fill:none;stroke:#b0b0b0;stroke-dasharray:5.12,1.28,0.8,1.28;stroke-dashoffset:0;stroke-opacity:0.4;stroke-width:0.8;"/>
     </g>
     <g id="line2d_6">
      <g>
       <use style="stroke:#000000;stroke-width:0.8;" x="427.885714" xlink:href="#mc67674de29" y="613.2456"/>
      </g>
     </g>
     <g id="text_3">
      <!-- 20 -->
      <defs>
       <path d="M 19.1875 8.296875 
L 53.609375 8.296875 
L 53.609375 0 
L 7.328125 0 
L 7.328125 8.296875 
Q 12.9375 14.109375 22.625 23.890625 
Q 32.328125 33.6875 34.8125 36.53125 
Q 39.546875 41.84375 41.421875 45.53125 
Q 43.3125 49.21875 43.3125 52.78125 
Q 43.3125 58.59375 39.234375 62.25 
Q 35.15625 65.921875 28.609375 65.921875 
Q 23.96875 65.921875 18.8125 64.3125 
Q 13.671875 62.703125 7.8125 59.421875 
L 7.8125 69.390625 
Q 13.765625 71.78125 18.9375 73 
Q 24.125 74.21875 28.421875 74.21875 
Q 39.75 74.21875 46.484375 68.546875 
Q 53.21875 62.890625 53.21875 53.421875 
Q 53.21875 48.921875 51.53125 44.890625 
Q 49.859375 40.875 45.40625 35.40625 
Q 44.1875 33.984375 37.640625 27.21875 
Q 31.109375 20.453125 19.1875 8.296875 
z
" id="DejaVuSans-50"/>
      </defs>
      <g transform="translate(416.433214 633.922788)scale(0.18 -0.18)">
       <use xlink:href="#DejaVuSans-50"/>
       <use x="63.623047" xlink:href="#DejaVuSans-48"/>
      </g>
     </g>
    </g>
    <g id="xtick_4">
     <g id="line2d_7">
      <path clip-path="url(#pa1d6b8f7d0)" d="M 529.92 613.2456 
L 529.92 82.6848 
" style="fill:none;stroke:#b0b0b0;stroke-dasharray:5.12,1.28,0.8,1.28;stroke-dashoffset:0;stroke-opacity:0.4;stroke-width:0.8;"/>
     </g>
     <g id="line2d_8">
      <g>
       <use style="stroke:#000000;stroke-width:0.8;" x="529.92" xlink:href="#mc67674de29" y="613.2456"/>
      </g>
     </g>
     <g id="text_4">
      <!-- 30 -->
      <defs>
       <path d="M 40.578125 39.3125 
Q 47.65625 37.796875 51.625 33 
Q 55.609375 28.21875 55.609375 21.1875 
Q 55.609375 10.40625 48.1875 4.484375 
Q 40.765625 -1.421875 27.09375 -1.421875 
Q 22.515625 -1.421875 17.65625 -0.515625 
Q 12.796875 0.390625 7.625 2.203125 
L 7.625 11.71875 
Q 11.71875 9.328125 16.59375 8.109375 
Q 21.484375 6.890625 26.8125 6.890625 
Q 36.078125 6.890625 40.9375 10.546875 
Q 45.796875 14.203125 45.796875 21.1875 
Q 45.796875 27.640625 41.28125 31.265625 
Q 36.765625 34.90625 28.71875 34.90625 
L 20.21875 34.90625 
L 20.21875 43.015625 
L 29.109375 43.015625 
Q 36.375 43.015625 40.234375 45.921875 
Q 44.09375 48.828125 44.09375 54.296875 
Q 44.09375 59.90625 40.109375 62.90625 
Q 36.140625 65.921875 28.71875 65.921875 
Q 24.65625 65.921875 20.015625 65.03125 
Q 15.375 64.15625 9.8125 62.3125 
L 9.8125 71.09375 
Q 15.4375 72.65625 20.34375 73.4375 
Q 25.25 74.21875 29.59375 74.21875 
Q 40.828125 74.21875 47.359375 69.109375 
Q 53.90625 64.015625 53.90625 55.328125 
Q 53.90625 49.265625 50.4375 45.09375 
Q 46.96875 40.921875 40.578125 39.3125 
z
" id="DejaVuSans-51"/>
      </defs>
      <g transform="translate(518.4675 633.922788)scale(0.18 -0.18)">
       <use xlink:href="#DejaVuSans-51"/>
       <use x="63.623047" xlink:href="#DejaVuSans-48"/>
      </g>
     </g>
    </g>
    <g id="xtick_5">
     <g id="line2d_9">
      <path clip-path="url(#pa1d6b8f7d0)" d="M 631.954286 613.2456 
L 631.954286 82.6848 
" style="fill:none;stroke:#b0b0b0;stroke-dasharray:5.12,1.28,0.8,1.28;stroke-dashoffset:0;stroke-opacity:0.4;stroke-width:0.8;"/>
     </g>
     <g id="line2d_10">
      <g>
       <use style="stroke:#000000;stroke-width:0.8;" x="631.954286" xlink:href="#mc67674de29" y="613.2456"/>
      </g>
     </g>
     <g id="text_5">
      <!-- 40 -->
      <defs>
       <path d="M 37.796875 64.3125 
L 12.890625 25.390625 
L 37.796875 25.390625 
z
M 35.203125 72.90625 
L 47.609375 72.90625 
L 47.609375 25.390625 
L 58.015625 25.390625 
L 58.015625 17.1875 
L 47.609375 17.1875 
L 47.609375 0 
L 37.796875 0 
L 37.796875 17.1875 
L 4.890625 17.1875 
L 4.890625 26.703125 
z
" id="DejaVuSans-52"/>
      </defs>
      <g transform="translate(620.501786 633.922788)scale(0.18 -0.18)">
       <use xlink:href="#DejaVuSans-52"/>
       <use x="63.623047" xlink:href="#DejaVuSans-48"/>
      </g>
     </g>
    </g>
    <g id="xtick_6">
     <g id="line2d_11">
      <path clip-path="url(#pa1d6b8f7d0)" d="M 733.988571 613.2456 
L 733.988571 82.6848 
" style="fill:none;stroke:#b0b0b0;stroke-dasharray:5.12,1.28,0.8,1.28;stroke-dashoffset:0;stroke-opacity:0.4;stroke-width:0.8;"/>
     </g>
     <g id="line2d_12">
      <g>
       <use style="stroke:#000000;stroke-width:0.8;" x="733.988571" xlink:href="#mc67674de29" y="613.2456"/>
      </g>
     </g>
     <g id="text_6">
      <!-- 50 -->
      <defs>
       <path d="M 10.796875 72.90625 
L 49.515625 72.90625 
L 49.515625 64.59375 
L 19.828125 64.59375 
L 19.828125 46.734375 
Q 21.96875 47.46875 24.109375 47.828125 
Q 26.265625 48.1875 28.421875 48.1875 
Q 40.625 48.1875 47.75 41.5 
Q 54.890625 34.8125 54.890625 23.390625 
Q 54.890625 11.625 47.5625 5.09375 
Q 40.234375 -1.421875 26.90625 -1.421875 
Q 22.3125 -1.421875 17.546875 -0.640625 
Q 12.796875 0.140625 7.71875 1.703125 
L 7.71875 11.625 
Q 12.109375 9.234375 16.796875 8.0625 
Q 21.484375 6.890625 26.703125 6.890625 
Q 35.15625 6.890625 40.078125 11.328125 
Q 45.015625 15.765625 45.015625 23.390625 
Q 45.015625 31 40.078125 35.4375 
Q 35.15625 39.890625 26.703125 39.890625 
Q 22.75 39.890625 18.8125 39.015625 
Q 14.890625 38.140625 10.796875 36.28125 
z
" id="DejaVuSans-53"/>
      </defs>
      <g transform="translate(722.536071 633.922788)scale(0.18 -0.18)">
       <use xlink:href="#DejaVuSans-53"/>
       <use x="63.623047" xlink:href="#DejaVuSans-48"/>
      </g>
     </g>
    </g>
    <g id="xtick_7">
     <g id="line2d_13">
      <path clip-path="url(#pa1d6b8f7d0)" d="M 836.022857 613.2456 
L 836.022857 82.6848 
" style="fill:none;stroke:#b0b0b0;stroke-dasharray:5.12,1.28,0.8,1.28;stroke-dashoffset:0;stroke-opacity:0.4;stroke-width:0.8;"/>
     </g>
     <g id="line2d_14">
      <g>
       <use style="stroke:#000000;stroke-width:0.8;" x="836.022857" xlink:href="#mc67674de29" y="613.2456"/>
      </g>
     </g>
     <g id="text_7">
      <!-- 60 -->
      <defs>
       <path d="M 33.015625 40.375 
Q 26.375 40.375 22.484375 35.828125 
Q 18.609375 31.296875 18.609375 23.390625 
Q 18.609375 15.53125 22.484375 10.953125 
Q 26.375 6.390625 33.015625 6.390625 
Q 39.65625 6.390625 43.53125 10.953125 
Q 47.40625 15.53125 47.40625 23.390625 
Q 47.40625 31.296875 43.53125 35.828125 
Q 39.65625 40.375 33.015625 40.375 
z
M 52.59375 71.296875 
L 52.59375 62.3125 
Q 48.875 64.0625 45.09375 64.984375 
Q 41.3125 65.921875 37.59375 65.921875 
Q 27.828125 65.921875 22.671875 59.328125 
Q 17.53125 52.734375 16.796875 39.40625 
Q 19.671875 43.65625 24.015625 45.921875 
Q 28.375 48.1875 33.59375 48.1875 
Q 44.578125 48.1875 50.953125 41.515625 
Q 57.328125 34.859375 57.328125 23.390625 
Q 57.328125 12.15625 50.6875 5.359375 
Q 44.046875 -1.421875 33.015625 -1.421875 
Q 20.359375 -1.421875 13.671875 8.265625 
Q 6.984375 17.96875 6.984375 36.375 
Q 6.984375 53.65625 15.1875 63.9375 
Q 23.390625 74.21875 37.203125 74.21875 
Q 40.921875 74.21875 44.703125 73.484375 
Q 48.484375 72.75 52.59375 71.296875 
z
" id="DejaVuSans-54"/>
      </defs>
      <g transform="translate(824.570357 633.922788)scale(0.18 -0.18)">
       <use xlink:href="#DejaVuSans-54"/>
       <use x="63.623047" xlink:href="#DejaVuSans-48"/>
      </g>
     </g>
    </g>
    <g id="xtick_8">
     <g id="line2d_15">
      <path clip-path="url(#pa1d6b8f7d0)" d="M 938.057143 613.2456 
L 938.057143 82.6848 
" style="fill:none;stroke:#b0b0b0;stroke-dasharray:5.12,1.28,0.8,1.28;stroke-dashoffset:0;stroke-opacity:0.4;stroke-width:0.8;"/>
     </g>
     <g id="line2d_16">
      <g>
       <use style="stroke:#000000;stroke-width:0.8;" x="938.057143" xlink:href="#mc67674de29" y="613.2456"/>
      </g>
     </g>
     <g id="text_8">
      <!-- 70 -->
      <defs>
       <path d="M 8.203125 72.90625 
L 55.078125 72.90625 
L 55.078125 68.703125 
L 28.609375 0 
L 18.3125 0 
L 43.21875 64.59375 
L 8.203125 64.59375 
z
" id="DejaVuSans-55"/>
      </defs>
      <g transform="translate(926.604643 633.922788)scale(0.18 -0.18)">
       <use xlink:href="#DejaVuSans-55"/>
       <use x="63.623047" xlink:href="#DejaVuSans-48"/>
      </g>
     </g>
    </g>
    <g id="xtick_9">
     <g id="line2d_17">
      <path clip-path="url(#pa1d6b8f7d0)" d="M 1040.091429 613.2456 
L 1040.091429 82.6848 
" style="fill:none;stroke:#b0b0b0;stroke-dasharray:5.12,1.28,0.8,1.28;stroke-dashoffset:0;stroke-opacity:0.4;stroke-width:0.8;"/>
     </g>
     <g id="line2d_18">
      <g>
       <use style="stroke:#000000;stroke-width:0.8;" x="1040.091429" xlink:href="#mc67674de29" y="613.2456"/>
      </g>
     </g>
     <g id="text_9">
      <!-- 80 -->
      <defs>
       <path d="M 31.78125 34.625 
Q 24.75 34.625 20.71875 30.859375 
Q 16.703125 27.09375 16.703125 20.515625 
Q 16.703125 13.921875 20.71875 10.15625 
Q 24.75 6.390625 31.78125 6.390625 
Q 38.8125 6.390625 42.859375 10.171875 
Q 46.921875 13.96875 46.921875 20.515625 
Q 46.921875 27.09375 42.890625 30.859375 
Q 38.875 34.625 31.78125 34.625 
z
M 21.921875 38.8125 
Q 15.578125 40.375 12.03125 44.71875 
Q 8.5 49.078125 8.5 55.328125 
Q 8.5 64.0625 14.71875 69.140625 
Q 20.953125 74.21875 31.78125 74.21875 
Q 42.671875 74.21875 48.875 69.140625 
Q 55.078125 64.0625 55.078125 55.328125 
Q 55.078125 49.078125 51.53125 44.71875 
Q 48 40.375 41.703125 38.8125 
Q 48.828125 37.15625 52.796875 32.3125 
Q 56.78125 27.484375 56.78125 20.515625 
Q 56.78125 9.90625 50.3125 4.234375 
Q 43.84375 -1.421875 31.78125 -1.421875 
Q 19.734375 -1.421875 13.25 4.234375 
Q 6.78125 9.90625 6.78125 20.515625 
Q 6.78125 27.484375 10.78125 32.3125 
Q 14.796875 37.15625 21.921875 38.8125 
z
M 18.3125 54.390625 
Q 18.3125 48.734375 21.84375 45.5625 
Q 25.390625 42.390625 31.78125 42.390625 
Q 38.140625 42.390625 41.71875 45.5625 
Q 45.3125 48.734375 45.3125 54.390625 
Q 45.3125 60.0625 41.71875 63.234375 
Q 38.140625 66.40625 31.78125 66.40625 
Q 25.390625 66.40625 21.84375 63.234375 
Q 18.3125 60.0625 18.3125 54.390625 
z
" id="DejaVuSans-56"/>
      </defs>
      <g transform="translate(1028.638929 633.922788)scale(0.18 -0.18)">
       <use xlink:href="#DejaVuSans-56"/>
       <use x="63.623047" xlink:href="#DejaVuSans-48"/>
      </g>
     </g>
    </g>
    <g id="xtick_10">
     <g id="line2d_19">
      <path clip-path="url(#pa1d6b8f7d0)" d="M 1142.125714 613.2456 
L 1142.125714 82.6848 
" style="fill:none;stroke:#b0b0b0;stroke-dasharray:5.12,1.28,0.8,1.28;stroke-dashoffset:0;stroke-opacity:0.4;stroke-width:0.8;"/>
     </g>
     <g id="line2d_20">
      <g>
       <use style="stroke:#000000;stroke-width:0.8;" x="1142.125714" xlink:href="#mc67674de29" y="613.2456"/>
      </g>
     </g>
     <g id="text_10">
      <!-- 90 -->
      <defs>
       <path d="M 10.984375 1.515625 
L 10.984375 10.5 
Q 14.703125 8.734375 18.5 7.8125 
Q 22.3125 6.890625 25.984375 6.890625 
Q 35.75 6.890625 40.890625 13.453125 
Q 46.046875 20.015625 46.78125 33.40625 
Q 43.953125 29.203125 39.59375 26.953125 
Q 35.25 24.703125 29.984375 24.703125 
Q 19.046875 24.703125 12.671875 31.3125 
Q 6.296875 37.9375 6.296875 49.421875 
Q 6.296875 60.640625 12.9375 67.421875 
Q 19.578125 74.21875 30.609375 74.21875 
Q 43.265625 74.21875 49.921875 64.515625 
Q 56.59375 54.828125 56.59375 36.375 
Q 56.59375 19.140625 48.40625 8.859375 
Q 40.234375 -1.421875 26.421875 -1.421875 
Q 22.703125 -1.421875 18.890625 -0.6875 
Q 15.09375 0.046875 10.984375 1.515625 
z
M 30.609375 32.421875 
Q 37.25 32.421875 41.125 36.953125 
Q 45.015625 41.5 45.015625 49.421875 
Q 45.015625 57.28125 41.125 61.84375 
Q 37.25 66.40625 30.609375 66.40625 
Q 23.96875 66.40625 20.09375 61.84375 
Q 16.21875 57.28125 16.21875 49.421875 
Q 16.21875 41.5 20.09375 36.953125 
Q 23.96875 32.421875 30.609375 32.421875 
z
" id="DejaVuSans-57"/>
      </defs>
      <g transform="translate(1130.673214 633.922788)scale(0.18 -0.18)">
       <use xlink:href="#DejaVuSans-57"/>
       <use x="63.623047" xlink:href="#DejaVuSans-48"/>
      </g>
     </g>
    </g>
    <g id="xtick_11">
     <g id="line2d_21">
      <path clip-path="url(#pa1d6b8f7d0)" d="M 1244.16 613.2456 
L 1244.16 82.6848 
" style="fill:none;stroke:#b0b0b0;stroke-dasharray:5.12,1.28,0.8,1.28;stroke-dashoffset:0;stroke-opacity:0.4;stroke-width:0.8;"/>
     </g>
     <g id="line2d_22">
      <g>
       <use style="stroke:#000000;stroke-width:0.8;" x="1244.16" xlink:href="#mc67674de29" y="613.2456"/>
      </g>
     </g>
     <g id="text_11">
      <!-- 100 -->
      <g transform="translate(1226.98125 633.922788)scale(0.18 -0.18)">
       <use xlink:href="#DejaVuSans-49"/>
       <use x="63.623047" xlink:href="#DejaVuSans-48"/>
       <use x="127.246094" xlink:href="#DejaVuSans-48"/>
      </g>
     </g>
    </g>
    <g id="text_12">
     <!-- epochs -->
     <defs>
      <path d="M 56.203125 29.59375 
L 56.203125 25.203125 
L 14.890625 25.203125 
Q 15.484375 15.921875 20.484375 11.0625 
Q 25.484375 6.203125 34.421875 6.203125 
Q 39.59375 6.203125 44.453125 7.46875 
Q 49.3125 8.734375 54.109375 11.28125 
L 54.109375 2.78125 
Q 49.265625 0.734375 44.1875 -0.34375 
Q 39.109375 -1.421875 33.890625 -1.421875 
Q 20.796875 -1.421875 13.15625 6.1875 
Q 5.515625 13.8125 5.515625 26.8125 
Q 5.515625 40.234375 12.765625 48.109375 
Q 20.015625 56 32.328125 56 
Q 43.359375 56 49.78125 48.890625 
Q 56.203125 41.796875 56.203125 29.59375 
z
M 47.21875 32.234375 
Q 47.125 39.59375 43.09375 43.984375 
Q 39.0625 48.390625 32.421875 48.390625 
Q 24.90625 48.390625 20.390625 44.140625 
Q 15.875 39.890625 15.1875 32.171875 
z
" id="DejaVuSans-101"/>
      <path d="M 18.109375 8.203125 
L 18.109375 -20.796875 
L 9.078125 -20.796875 
L 9.078125 54.6875 
L 18.109375 54.6875 
L 18.109375 46.390625 
Q 20.953125 51.265625 25.265625 53.625 
Q 29.59375 56 35.59375 56 
Q 45.5625 56 51.78125 48.09375 
Q 58.015625 40.1875 58.015625 27.296875 
Q 58.015625 14.40625 51.78125 6.484375 
Q 45.5625 -1.421875 35.59375 -1.421875 
Q 29.59375 -1.421875 25.265625 0.953125 
Q 20.953125 3.328125 18.109375 8.203125 
z
M 48.6875 27.296875 
Q 48.6875 37.203125 44.609375 42.84375 
Q 40.53125 48.484375 33.40625 48.484375 
Q 26.265625 48.484375 22.1875 42.84375 
Q 18.109375 37.203125 18.109375 27.296875 
Q 18.109375 17.390625 22.1875 11.75 
Q 26.265625 6.109375 33.40625 6.109375 
Q 40.53125 6.109375 44.609375 11.75 
Q 48.6875 17.390625 48.6875 27.296875 
z
" id="DejaVuSans-112"/>
      <path d="M 30.609375 48.390625 
Q 23.390625 48.390625 19.1875 42.75 
Q 14.984375 37.109375 14.984375 27.296875 
Q 14.984375 17.484375 19.15625 11.84375 
Q 23.34375 6.203125 30.609375 6.203125 
Q 37.796875 6.203125 41.984375 11.859375 
Q 46.1875 17.53125 46.1875 27.296875 
Q 46.1875 37.015625 41.984375 42.703125 
Q 37.796875 48.390625 30.609375 48.390625 
z
M 30.609375 56 
Q 42.328125 56 49.015625 48.375 
Q 55.71875 40.765625 55.71875 27.296875 
Q 55.71875 13.875 49.015625 6.21875 
Q 42.328125 -1.421875 30.609375 -1.421875 
Q 18.84375 -1.421875 12.171875 6.21875 
Q 5.515625 13.875 5.515625 27.296875 
Q 5.515625 40.765625 12.171875 48.375 
Q 18.84375 56 30.609375 56 
z
" id="DejaVuSans-111"/>
      <path d="M 48.78125 52.59375 
L 48.78125 44.1875 
Q 44.96875 46.296875 41.140625 47.34375 
Q 37.3125 48.390625 33.40625 48.390625 
Q 24.65625 48.390625 19.8125 42.84375 
Q 14.984375 37.3125 14.984375 27.296875 
Q 14.984375 17.28125 19.8125 11.734375 
Q 24.65625 6.203125 33.40625 6.203125 
Q 37.3125 6.203125 41.140625 7.25 
Q 44.96875 8.296875 48.78125 10.40625 
L 48.78125 2.09375 
Q 45.015625 0.34375 40.984375 -0.53125 
Q 36.96875 -1.421875 32.421875 -1.421875 
Q 20.0625 -1.421875 12.78125 6.34375 
Q 5.515625 14.109375 5.515625 27.296875 
Q 5.515625 40.671875 12.859375 48.328125 
Q 20.21875 56 33.015625 56 
Q 37.15625 56 41.109375 55.140625 
Q 45.0625 54.296875 48.78125 52.59375 
z
" id="DejaVuSans-99"/>
      <path d="M 54.890625 33.015625 
L 54.890625 0 
L 45.90625 0 
L 45.90625 32.71875 
Q 45.90625 40.484375 42.875 44.328125 
Q 39.84375 48.1875 33.796875 48.1875 
Q 26.515625 48.1875 22.3125 43.546875 
Q 18.109375 38.921875 18.109375 30.90625 
L 18.109375 0 
L 9.078125 0 
L 9.078125 75.984375 
L 18.109375 75.984375 
L 18.109375 46.1875 
Q 21.34375 51.125 25.703125 53.5625 
Q 30.078125 56 35.796875 56 
Q 45.21875 56 50.046875 50.171875 
Q 54.890625 44.34375 54.890625 33.015625 
z
" id="DejaVuSans-104"/>
      <path d="M 44.28125 53.078125 
L 44.28125 44.578125 
Q 40.484375 46.53125 36.375 47.5 
Q 32.28125 48.484375 27.875 48.484375 
Q 21.1875 48.484375 17.84375 46.4375 
Q 14.5 44.390625 14.5 40.28125 
Q 14.5 37.15625 16.890625 35.375 
Q 19.28125 33.59375 26.515625 31.984375 
L 29.59375 31.296875 
Q 39.15625 29.25 43.1875 25.515625 
Q 47.21875 21.78125 47.21875 15.09375 
Q 47.21875 7.46875 41.1875 3.015625 
Q 35.15625 -1.421875 24.609375 -1.421875 
Q 20.21875 -1.421875 15.453125 -0.5625 
Q 10.6875 0.296875 5.421875 2 
L 5.421875 11.28125 
Q 10.40625 8.6875 15.234375 7.390625 
Q 20.0625 6.109375 24.8125 6.109375 
Q 31.15625 6.109375 34.5625 8.28125 
Q 37.984375 10.453125 37.984375 14.40625 
Q 37.984375 18.0625 35.515625 20.015625 
Q 33.0625 21.96875 24.703125 23.78125 
L 21.578125 24.515625 
Q 13.234375 26.265625 9.515625 29.90625 
Q 5.8125 33.546875 5.8125 39.890625 
Q 5.8125 47.609375 11.28125 51.796875 
Q 16.75 56 26.8125 56 
Q 31.78125 56 36.171875 55.265625 
Q 40.578125 54.546875 44.28125 53.078125 
z
" id="DejaVuSans-115"/>
     </defs>
     <g transform="translate(676.380937 655.343412)scale(0.18 -0.18)">
      <use xlink:href="#DejaVuSans-101"/>
      <use x="61.523438" xlink:href="#DejaVuSans-112"/>
      <use x="125" xlink:href="#DejaVuSans-111"/>
      <use x="186.181641" xlink:href="#DejaVuSans-99"/>
      <use x="241.162109" xlink:href="#DejaVuSans-104"/>
      <use x="304.541016" xlink:href="#DejaVuSans-115"/>
     </g>
    </g>
   </g>
   <g id="matplotlib.axis_2">
    <g id="ytick_1">
     <g id="line2d_23">
      <path clip-path="url(#pa1d6b8f7d0)" d="M 172.8 613.2456 
L 1244.16 613.2456 
" style="fill:none;stroke:#b0b0b0;stroke-dasharray:5.12,1.28,0.8,1.28;stroke-dashoffset:0;stroke-opacity:0.4;stroke-width:0.8;"/>
     </g>
     <g id="line2d_24">
      <defs>
       <path d="M 0 0 
L -3.5 0 
" id="m200f594947" style="stroke:#000000;stroke-width:0.8;"/>
      </defs>
      <g>
       <use style="stroke:#000000;stroke-width:0.8;" x="172.8" xlink:href="#m200f594947" y="613.2456"/>
      </g>
     </g>
     <g id="text_13">
      <!-- 0.9 -->
      <defs>
       <path d="M 10.6875 12.40625 
L 21 12.40625 
L 21 0 
L 10.6875 0 
z
" id="DejaVuSans-46"/>
      </defs>
      <g transform="translate(137.174375 620.084194)scale(0.18 -0.18)">
       <use xlink:href="#DejaVuSans-48"/>
       <use x="63.623047" xlink:href="#DejaVuSans-46"/>
       <use x="95.410156" xlink:href="#DejaVuSans-57"/>
      </g>
     </g>
    </g>
    <g id="ytick_2">
     <g id="line2d_25">
      <path clip-path="url(#pa1d6b8f7d0)" d="M 172.8 565.0128 
L 1244.16 565.0128 
" style="fill:none;stroke:#b0b0b0;stroke-dasharray:5.12,1.28,0.8,1.28;stroke-dashoffset:0;stroke-opacity:0.4;stroke-width:0.8;"/>
     </g>
     <g id="line2d_26">
      <g>
       <use style="stroke:#000000;stroke-width:0.8;" x="172.8" xlink:href="#m200f594947" y="565.0128"/>
      </g>
     </g>
     <g id="text_14">
      <!-- 1.0 -->
      <g transform="translate(137.174375 571.851394)scale(0.18 -0.18)">
       <use xlink:href="#DejaVuSans-49"/>
       <use x="63.623047" xlink:href="#DejaVuSans-46"/>
       <use x="95.410156" xlink:href="#DejaVuSans-48"/>
      </g>
     </g>
    </g>
    <g id="ytick_3">
     <g id="line2d_27">
      <path clip-path="url(#pa1d6b8f7d0)" d="M 172.8 516.78 
L 1244.16 516.78 
" style="fill:none;stroke:#b0b0b0;stroke-dasharray:5.12,1.28,0.8,1.28;stroke-dashoffset:0;stroke-opacity:0.4;stroke-width:0.8;"/>
     </g>
     <g id="line2d_28">
      <g>
       <use style="stroke:#000000;stroke-width:0.8;" x="172.8" xlink:href="#m200f594947" y="516.78"/>
      </g>
     </g>
     <g id="text_15">
      <!-- 1.1 -->
      <g transform="translate(137.174375 523.618594)scale(0.18 -0.18)">
       <use xlink:href="#DejaVuSans-49"/>
       <use x="63.623047" xlink:href="#DejaVuSans-46"/>
       <use x="95.410156" xlink:href="#DejaVuSans-49"/>
      </g>
     </g>
    </g>
    <g id="ytick_4">
     <g id="line2d_29">
      <path clip-path="url(#pa1d6b8f7d0)" d="M 172.8 468.5472 
L 1244.16 468.5472 
" style="fill:none;stroke:#b0b0b0;stroke-dasharray:5.12,1.28,0.8,1.28;stroke-dashoffset:0;stroke-opacity:0.4;stroke-width:0.8;"/>
     </g>
     <g id="line2d_30">
      <g>
       <use style="stroke:#000000;stroke-width:0.8;" x="172.8" xlink:href="#m200f594947" y="468.5472"/>
      </g>
     </g>
     <g id="text_16">
      <!-- 1.2 -->
      <g transform="translate(137.174375 475.385794)scale(0.18 -0.18)">
       <use xlink:href="#DejaVuSans-49"/>
       <use x="63.623047" xlink:href="#DejaVuSans-46"/>
       <use x="95.410156" xlink:href="#DejaVuSans-50"/>
      </g>
     </g>
    </g>
    <g id="ytick_5">
     <g id="line2d_31">
      <path clip-path="url(#pa1d6b8f7d0)" d="M 172.8 420.3144 
L 1244.16 420.3144 
" style="fill:none;stroke:#b0b0b0;stroke-dasharray:5.12,1.28,0.8,1.28;stroke-dashoffset:0;stroke-opacity:0.4;stroke-width:0.8;"/>
     </g>
     <g id="line2d_32">
      <g>
       <use style="stroke:#000000;stroke-width:0.8;" x="172.8" xlink:href="#m200f594947" y="420.3144"/>
      </g>
     </g>
     <g id="text_17">
      <!-- 1.3 -->
      <g transform="translate(137.174375 427.152994)scale(0.18 -0.18)">
       <use xlink:href="#DejaVuSans-49"/>
       <use x="63.623047" xlink:href="#DejaVuSans-46"/>
       <use x="95.410156" xlink:href="#DejaVuSans-51"/>
      </g>
     </g>
    </g>
    <g id="ytick_6">
     <g id="line2d_33">
      <path clip-path="url(#pa1d6b8f7d0)" d="M 172.8 372.0816 
L 1244.16 372.0816 
" style="fill:none;stroke:#b0b0b0;stroke-dasharray:5.12,1.28,0.8,1.28;stroke-dashoffset:0;stroke-opacity:0.4;stroke-width:0.8;"/>
     </g>
     <g id="line2d_34">
      <g>
       <use style="stroke:#000000;stroke-width:0.8;" x="172.8" xlink:href="#m200f594947" y="372.0816"/>
      </g>
     </g>
     <g id="text_18">
      <!-- 1.4 -->
      <g transform="translate(137.174375 378.920194)scale(0.18 -0.18)">
       <use xlink:href="#DejaVuSans-49"/>
       <use x="63.623047" xlink:href="#DejaVuSans-46"/>
       <use x="95.410156" xlink:href="#DejaVuSans-52"/>
      </g>
     </g>
    </g>
    <g id="ytick_7">
     <g id="line2d_35">
      <path clip-path="url(#pa1d6b8f7d0)" d="M 172.8 323.8488 
L 1244.16 323.8488 
" style="fill:none;stroke:#b0b0b0;stroke-dasharray:5.12,1.28,0.8,1.28;stroke-dashoffset:0;stroke-opacity:0.4;stroke-width:0.8;"/>
     </g>
     <g id="line2d_36">
      <g>
       <use style="stroke:#000000;stroke-width:0.8;" x="172.8" xlink:href="#m200f594947" y="323.8488"/>
      </g>
     </g>
     <g id="text_19">
      <!-- 1.5 -->
      <g transform="translate(137.174375 330.687394)scale(0.18 -0.18)">
       <use xlink:href="#DejaVuSans-49"/>
       <use x="63.623047" xlink:href="#DejaVuSans-46"/>
       <use x="95.410156" xlink:href="#DejaVuSans-53"/>
      </g>
     </g>
    </g>
    <g id="ytick_8">
     <g id="line2d_37">
      <path clip-path="url(#pa1d6b8f7d0)" d="M 172.8 275.616 
L 1244.16 275.616 
" style="fill:none;stroke:#b0b0b0;stroke-dasharray:5.12,1.28,0.8,1.28;stroke-dashoffset:0;stroke-opacity:0.4;stroke-width:0.8;"/>
     </g>
     <g id="line2d_38">
      <g>
       <use style="stroke:#000000;stroke-width:0.8;" x="172.8" xlink:href="#m200f594947" y="275.616"/>
      </g>
     </g>
     <g id="text_20">
      <!-- 1.6 -->
      <g transform="translate(137.174375 282.454594)scale(0.18 -0.18)">
       <use xlink:href="#DejaVuSans-49"/>
       <use x="63.623047" xlink:href="#DejaVuSans-46"/>
       <use x="95.410156" xlink:href="#DejaVuSans-54"/>
      </g>
     </g>
    </g>
    <g id="ytick_9">
     <g id="line2d_39">
      <path clip-path="url(#pa1d6b8f7d0)" d="M 172.8 227.3832 
L 1244.16 227.3832 
" style="fill:none;stroke:#b0b0b0;stroke-dasharray:5.12,1.28,0.8,1.28;stroke-dashoffset:0;stroke-opacity:0.4;stroke-width:0.8;"/>
     </g>
     <g id="line2d_40">
      <g>
       <use style="stroke:#000000;stroke-width:0.8;" x="172.8" xlink:href="#m200f594947" y="227.3832"/>
      </g>
     </g>
     <g id="text_21">
      <!-- 1.7 -->
      <g transform="translate(137.174375 234.221794)scale(0.18 -0.18)">
       <use xlink:href="#DejaVuSans-49"/>
       <use x="63.623047" xlink:href="#DejaVuSans-46"/>
       <use x="95.410156" xlink:href="#DejaVuSans-55"/>
      </g>
     </g>
    </g>
    <g id="ytick_10">
     <g id="line2d_41">
      <path clip-path="url(#pa1d6b8f7d0)" d="M 172.8 179.1504 
L 1244.16 179.1504 
" style="fill:none;stroke:#b0b0b0;stroke-dasharray:5.12,1.28,0.8,1.28;stroke-dashoffset:0;stroke-opacity:0.4;stroke-width:0.8;"/>
     </g>
     <g id="line2d_42">
      <g>
       <use style="stroke:#000000;stroke-width:0.8;" x="172.8" xlink:href="#m200f594947" y="179.1504"/>
      </g>
     </g>
     <g id="text_22">
      <!-- 1.8 -->
      <g transform="translate(137.174375 185.988994)scale(0.18 -0.18)">
       <use xlink:href="#DejaVuSans-49"/>
       <use x="63.623047" xlink:href="#DejaVuSans-46"/>
       <use x="95.410156" xlink:href="#DejaVuSans-56"/>
      </g>
     </g>
    </g>
    <g id="ytick_11">
     <g id="line2d_43">
      <path clip-path="url(#pa1d6b8f7d0)" d="M 172.8 130.9176 
L 1244.16 130.9176 
" style="fill:none;stroke:#b0b0b0;stroke-dasharray:5.12,1.28,0.8,1.28;stroke-dashoffset:0;stroke-opacity:0.4;stroke-width:0.8;"/>
     </g>
     <g id="line2d_44">
      <g>
       <use style="stroke:#000000;stroke-width:0.8;" x="172.8" xlink:href="#m200f594947" y="130.9176"/>
      </g>
     </g>
     <g id="text_23">
      <!-- 1.9 -->
      <g transform="translate(137.174375 137.756194)scale(0.18 -0.18)">
       <use xlink:href="#DejaVuSans-49"/>
       <use x="63.623047" xlink:href="#DejaVuSans-46"/>
       <use x="95.410156" xlink:href="#DejaVuSans-57"/>
      </g>
     </g>
    </g>
    <g id="ytick_12">
     <g id="line2d_45">
      <path clip-path="url(#pa1d6b8f7d0)" d="M 172.8 82.6848 
L 1244.16 82.6848 
" style="fill:none;stroke:#b0b0b0;stroke-dasharray:5.12,1.28,0.8,1.28;stroke-dashoffset:0;stroke-opacity:0.4;stroke-width:0.8;"/>
     </g>
     <g id="line2d_46">
      <g>
       <use style="stroke:#000000;stroke-width:0.8;" x="172.8" xlink:href="#m200f594947" y="82.6848"/>
      </g>
     </g>
     <g id="text_24">
      <!-- 2.0 -->
      <g transform="translate(137.174375 89.523394)scale(0.18 -0.18)">
       <use xlink:href="#DejaVuSans-50"/>
       <use x="63.623047" xlink:href="#DejaVuSans-46"/>
       <use x="95.410156" xlink:href="#DejaVuSans-48"/>
      </g>
     </g>
    </g>
    <g id="text_25">
     <!-- loss -->
     <defs>
      <path d="M 9.421875 75.984375 
L 18.40625 75.984375 
L 18.40625 0 
L 9.421875 0 
z
" id="DejaVuSans-108"/>
     </defs>
     <g transform="translate(129.430937 365.349263)rotate(-90)scale(0.18 -0.18)">
      <use xlink:href="#DejaVuSans-108"/>
      <use x="27.783203" xlink:href="#DejaVuSans-111"/>
      <use x="88.964844" xlink:href="#DejaVuSans-115"/>
      <use x="141.064453" xlink:href="#DejaVuSans-115"/>
     </g>
    </g>
   </g>
   <g id="line2d_47">
    <path clip-path="url(#pa1d6b8f7d0)" d="M 228.497086 -1 
L 234.020571 218.814253 
L 244.224 295.133735 
L 254.427429 340.698525 
L 264.630857 365.22469 
L 274.834286 376.618144 
L 285.037714 392.598673 
L 295.241143 398.904533 
L 305.444571 405.174055 
L 315.648 412.047249 
L 325.851429 419.82017 
L 336.054857 426.936695 
L 346.258286 418.888128 
L 356.461714 424.548977 
L 366.665143 425.336354 
L 376.868571 431.888421 
L 387.072 436.156266 
L 397.275429 433.7609 
L 407.478857 437.426511 
L 417.682286 433.972148 
L 427.885714 433.880208 
L 438.089143 445.957946 
L 448.292571 447.759013 
L 458.496 441.497426 
L 468.699429 447.991477 
L 478.902857 450.147536 
L 489.106286 454.762267 
L 499.309714 450.820033 
L 509.513143 455.581325 
L 519.716571 457.907061 
L 529.92 460.515514 
L 540.123429 462.797954 
L 550.326857 465.305326 
L 560.530286 467.245193 
L 570.733714 468.008593 
L 580.937143 469.930061 
L 591.140571 466.809186 
L 601.344 469.574493 
L 611.547429 472.172195 
L 621.750857 473.488381 
L 631.954286 473.147073 
L 642.157714 473.244072 
L 652.361143 470.45818 
L 662.564571 474.476771 
L 672.768 476.629725 
L 682.971429 476.78336 
L 693.174857 476.501447 
L 703.378286 473.750687 
L 713.581714 476.215165 
L 723.785143 477.022609 
L 733.988571 476.291407 
L 744.192 475.465161 
L 754.395429 476.822631 
L 764.598857 475.043184 
L 774.802286 477.536871 
L 785.005714 479.345872 
L 795.209143 476.549688 
L 805.412571 470.208466 
L 815.616 474.51518 
L 825.819429 481.888548 
L 836.022857 482.236928 
L 846.226286 482.805123 
L 856.429714 483.308288 
L 866.633143 483.478252 
L 876.836571 484.990794 
L 887.04 485.367521 
L 897.243429 487.765186 
L 907.446857 486.937905 
L 917.650286 485.72694 
L 927.853714 476.818836 
L 938.057143 478.85116 
L 948.260571 453.916701 
L 958.464 471.691569 
L 968.667429 475.239654 
L 978.870857 479.637042 
L 989.074286 485.030352 
L 999.277714 487.306525 
L 1009.481143 487.108904 
L 1019.684571 491.889976 
L 1029.888 490.65814 
L 1040.091429 487.73362 
L 1050.294857 487.349763 
L 1060.498286 487.734252 
L 1070.701714 489.742657 
L 1080.905143 491.373069 
L 1091.108571 493.256646 
L 1101.312 495.038163 
L 1111.515429 494.008892 
L 1121.718857 494.094334 
L 1131.922286 493.445527 
L 1142.125714 495.834797 
L 1152.329143 496.239296 
L 1162.532571 491.667747 
L 1172.736 490.876229 
L 1182.939429 494.048795 
L 1193.142857 495.279137 
L 1203.346286 495.98918 
L 1213.549714 496.362514 
L 1223.753143 475.143518 
L 1233.956571 482.847499 
" style="fill:none;stroke:#ff7043;stroke-linecap:square;stroke-opacity:0.15;stroke-width:1.5;"/>
   </g>
   <g id="line2d_48">
    <path clip-path="url(#pa1d6b8f7d0)" d="M 264.589176 -1 
L 264.630857 -0.733497 
L 274.834286 61.418253 
L 285.037714 94.096366 
L 295.241143 141.960156 
L 305.444571 170.818851 
L 315.648 197.437712 
L 325.851429 213.830731 
L 336.054857 230.125773 
L 346.258286 247.515002 
L 356.461714 257.012805 
L 366.665143 273.138631 
L 376.868571 278.171659 
L 387.072 304.919028 
L 397.275429 304.620154 
L 407.478857 316.787588 
L 417.682286 328.12205 
L 427.885714 333.596605 
L 438.089143 335.178144 
L 448.292571 343.330322 
L 458.496 348.08943 
L 468.699429 348.653658 
L 478.902857 362.564259 
L 489.106286 359.032273 
L 499.309714 372.538203 
L 509.513143 376.129929 
L 519.716571 382.332179 
L 529.92 379.288926 
L 540.123429 385.833633 
L 550.326857 386.14395 
L 560.530286 392.37627 
L 570.733714 397.550916 
L 580.937143 399.79351 
L 591.140571 403.235281 
L 601.344 402.357919 
L 611.547429 403.075494 
L 621.750857 410.508488 
L 631.954286 406.316483 
L 642.157714 406.752777 
L 652.361143 408.791081 
L 662.564571 415.250116 
L 672.768 414.919963 
L 682.971429 419.828393 
L 693.174857 417.172101 
L 703.378286 417.035543 
L 713.581714 421.843179 
L 723.785143 422.773324 
L 733.988571 427.685376 
L 744.192 424.419319 
L 754.395429 424.647643 
L 764.598857 426.846193 
L 774.802286 428.01645 
L 785.005714 432.253246 
L 795.209143 428.123683 
L 805.412571 430.663254 
L 815.616 431.597539 
L 825.819429 435.630562 
L 836.022857 433.554942 
L 846.226286 437.269254 
L 856.429714 437.548522 
L 866.633143 434.271655 
L 876.836571 434.807133 
L 887.04 440.223155 
L 897.243429 441.229888 
L 907.446857 438.148571 
L 917.650286 441.599772 
L 927.853714 443.401356 
L 938.057143 440.67072 
L 948.260571 443.984443 
L 958.464 444.192068 
L 968.667429 439.416631 
L 978.870857 444.571728 
L 989.074286 446.533904 
L 999.277714 446.768725 
L 1009.481143 448.035578 
L 1019.684571 448.657419 
L 1029.888 448.56824 
L 1040.091429 449.25718 
L 1050.294857 447.613026 
L 1060.498286 452.308655 
L 1070.701714 449.943994 
L 1080.905143 453.579303 
L 1091.108571 455.264167 
L 1101.312 453.389617 
L 1111.515429 450.849357 
L 1121.718857 452.787959 
L 1131.922286 452.861901 
L 1142.125714 454.719546 
L 1152.329143 454.543602 
L 1162.532571 454.598512 
L 1172.736 456.286596 
L 1182.939429 455.422344 
L 1193.142857 460.053691 
L 1203.346286 456.146876 
L 1213.549714 460.214915 
L 1223.753143 458.403326 
L 1233.956571 458.104739 
" style="fill:none;stroke:#0077bb;stroke-linecap:square;stroke-opacity:0.15;stroke-width:1.5;"/>
   </g>
   <g id="line2d_49">
    <path clip-path="url(#pa1d6b8f7d0)" d="M 256.209873 -1 
L 264.630857 66.592266 
L 274.834286 83.282434 
L 285.037714 96.566479 
L 295.241143 117.713373 
L 305.444571 144.255015 
L 315.648 176.570144 
L 325.851429 172.633947 
L 336.054857 220.770622 
L 346.258286 228.098337 
L 356.461714 228.749846 
L 366.665143 253.514801 
L 376.868571 266.903205 
L 387.072 270.387697 
L 397.275429 266.03326 
L 407.478857 280.311733 
L 417.682286 261.714472 
L 427.885714 264.622663 
L 438.089143 279.436384 
L 448.292571 275.035431 
L 458.496 214.411978 
L 468.699429 263.530891 
L 478.902857 295.825378 
L 489.106286 297.364656 
L 499.309714 289.579373 
L 509.513143 328.76298 
L 519.716571 331.22947 
L 529.92 347.332297 
L 540.123429 342.033341 
L 550.326857 358.6249 
L 560.530286 355.765295 
L 570.733714 365.308522 
L 580.937143 365.600497 
L 591.140571 371.771755 
L 601.344 371.91458 
L 611.547429 373.227834 
L 621.750857 373.532285 
L 631.954286 372.803556 
L 642.157714 355.880521 
L 652.361143 372.369446 
L 662.564571 374.004746 
L 672.768 378.51299 
L 682.971429 285.625582 
L 693.174857 292.693521 
L 703.378286 305.096122 
L 713.581714 332.0855 
L 723.785143 324.158484 
L 733.988571 337.321381 
L 744.192 346.423656 
L 754.395429 363.983941 
L 764.598857 377.713711 
L 774.802286 374.230196 
L 785.005714 353.052771 
L 795.209143 362.486809 
L 805.412571 376.649308 
L 815.616 371.494787 
L 825.819429 381.314752 
L 836.022857 389.949798 
L 846.226286 399.472958 
L 856.429714 399.361125 
L 866.633143 396.619104 
L 876.836571 395.207471 
L 887.04 395.628069 
L 897.243429 395.519455 
L 907.446857 393.95252 
L 917.650286 380.261849 
L 927.853714 380.996156 
L 938.057143 395.788258 
L 948.260571 398.940642 
L 958.464 400.592329 
L 968.667429 406.898765 
L 978.870857 410.38297 
L 989.074286 411.865613 
L 999.277714 409.324202 
L 1009.481143 394.418771 
L 1019.684571 364.642696 
L 1029.888 388.832038 
L 1040.091429 385.267278 
L 1050.294857 395.586612 
L 1060.498286 400.951174 
L 1070.701714 313.89728 
L 1080.905143 358.230579 
L 1091.108571 380.624144 
L 1101.312 384.961676 
L 1111.515429 391.1112 
L 1121.718857 388.994987 
L 1131.922286 388.382748 
L 1142.125714 389.255395 
L 1152.329143 398.79201 
L 1162.532571 392.551294 
L 1172.736 400.938524 
L 1182.939429 406.772557 
L 1193.142857 406.802686 
L 1203.346286 416.559058 
L 1213.549714 422.962377 
L 1223.753143 392.655021 
L 1233.956571 401.585549 
" style="fill:none;stroke:#cc3311;stroke-linecap:square;stroke-opacity:0.15;stroke-width:1.5;"/>
   </g>
   <g id="line2d_50">
    <path clip-path="url(#pa1d6b8f7d0)" d="M 230.851605 -1 
L 234.020571 100.492039 
L 244.224 195.351053 
L 254.427429 244.050748 
L 264.630857 263.342585 
L 274.834286 287.023817 
L 285.037714 298.527265 
L 295.241143 306.072553 
L 305.444571 314.578746 
L 315.648 330.150751 
L 325.851429 333.687222 
L 336.054857 346.943093 
L 346.258286 352.653102 
L 356.461714 350.411256 
L 366.665143 348.538087 
L 376.868571 351.120091 
L 387.072 346.356729 
L 397.275429 354.167656 
L 407.478857 339.494402 
L 417.682286 344.925316 
L 427.885714 349.968177 
L 438.089143 361.277741 
L 448.292571 366.436862 
L 458.496 350.891134 
L 468.699429 343.69279 
L 478.902857 359.834312 
L 489.106286 353.462731 
L 499.309714 366.832909 
L 509.513143 373.640497 
L 519.716571 378.08716 
L 529.92 376.743835 
L 540.123429 381.501965 
L 550.326857 377.523163 
L 560.530286 379.134486 
L 570.733714 373.25595 
L 580.937143 377.721703 
L 591.140571 379.684627 
L 601.344 384.967483 
L 611.547429 386.228472 
L 621.750857 376.619409 
L 631.954286 380.842866 
L 642.157714 391.336994 
L 652.361143 392.026625 
L 662.564571 391.467112 
L 672.768 384.940344 
L 682.971429 367.15323 
L 693.174857 372.97743 
L 703.378286 386.571447 
L 713.581714 380.128454 
L 723.785143 382.894394 
L 733.988571 372.480417 
L 744.192 377.260397 
L 754.395429 380.277028 
L 764.598857 387.227556 
L 774.802286 387.869636 
L 785.005714 386.686328 
L 795.209143 393.917791 
L 805.412571 394.400544 
L 815.616 398.933742 
L 825.819429 374.025733 
L 836.022857 380.260239 
L 846.226286 392.735805 
L 856.429714 396.620656 
L 866.633143 390.164496 
L 876.836571 388.532646 
L 887.04 392.921121 
L 897.243429 397.950182 
L 907.446857 400.534199 
L 917.650286 372.469895 
L 927.853714 380.865578 
L 938.057143 393.260647 
L 948.260571 391.581073 
L 958.464 393.193604 
L 968.667429 396.598117 
L 978.870857 395.868755 
L 989.074286 399.127338 
L 999.277714 396.009395 
L 1009.481143 393.504841 
L 1019.684571 395.965984 
L 1029.888 402.283172 
L 1040.091429 400.343593 
L 1050.294857 407.111392 
L 1060.498286 400.566282 
L 1070.701714 396.033199 
L 1080.905143 394.529627 
L 1091.108571 380.471716 
L 1101.312 383.154745 
L 1111.515429 395.733002 
L 1121.718857 401.26494 
L 1131.922286 399.247969 
L 1142.125714 403.578889 
L 1152.329143 381.057678 
L 1162.532571 382.78532 
L 1172.736 385.074257 
L 1182.939429 388.944504 
L 1193.142857 393.892377 
L 1203.346286 392.107065 
L 1213.549714 399.219622 
L 1223.753143 403.506787 
L 1233.956571 407.998069 
" style="fill:none;stroke:#33bbee;stroke-linecap:square;stroke-opacity:0.15;stroke-width:1.5;"/>
   </g>
   <g id="line2d_51">
    <path clip-path="url(#pa1d6b8f7d0)" d="M 226.826946 -1 
L 234.020571 187.665299 
L 244.224 283.326352 
L 254.427429 327.382223 
L 264.630857 359.843282 
L 274.834286 369.70246 
L 285.037714 388.696687 
L 295.241143 411.663335 
L 305.444571 415.889666 
L 315.648 412.310877 
L 325.851429 426.333139 
L 336.054857 421.656081 
L 346.258286 422.870323 
L 356.461714 430.456664 
L 366.665143 430.117828 
L 376.868571 403.166456 
L 387.072 427.510295 
L 397.275429 431.415845 
L 407.478857 433.251641 
L 417.682286 437.138389 
L 427.885714 449.898455 
L 438.089143 443.837191 
L 448.292571 451.681698 
L 458.496 454.228225 
L 468.699429 439.822395 
L 478.902857 436.229863 
L 489.106286 447.798284 
L 499.309714 441.998866 
L 509.513143 438.247812 
L 519.716571 440.505931 
L 529.92 449.252983 
L 540.123429 451.867186 
L 550.326857 438.3984 
L 560.530286 447.052075 
L 570.733714 461.236079 
L 580.937143 464.582059 
L 591.140571 470.384927 
L 601.344 465.529856 
L 611.547429 464.33775 
L 621.750857 468.704664 
L 631.954286 469.764639 
L 642.157714 454.67441 
L 652.361143 463.682043 
L 662.564571 461.985105 
L 672.768 463.574809 
L 682.971429 471.183574 
L 693.174857 470.396139 
L 703.378286 472.979524 
L 713.581714 473.460552 
L 723.785143 473.473719 
L 733.988571 463.014204 
L 744.192 462.565432 
L 754.395429 471.271374 
L 764.598857 474.175309 
L 774.802286 476.871389 
L 785.005714 480.938911 
L 795.209143 480.323568 
L 805.412571 481.649529 
L 815.616 467.693332 
L 825.819429 470.795405 
L 836.022857 473.488783 
L 846.226286 477.576315 
L 856.429714 472.308982 
L 866.633143 477.289745 
L 876.836571 482.277637 
L 887.04 485.8685 
L 897.243429 479.374851 
L 907.446857 476.013922 
L 917.650286 485.10395 
L 927.853714 484.733375 
L 938.057143 487.105454 
L 948.260571 485.22964 
L 958.464 484.80496 
L 968.667429 481.24756 
L 978.870857 439.634204 
L 989.074286 453.641171 
L 999.277714 454.408482 
L 1009.481143 464.428079 
L 1019.684571 466.052685 
L 1029.888 474.49862 
L 1040.091429 475.348268 
L 1050.294857 477.500072 
L 1060.498286 454.117254 
L 1070.701714 470.773901 
L 1080.905143 475.620118 
L 1091.108571 478.578044 
L 1101.312 485.3156 
L 1111.515429 479.881753 
L 1121.718857 483.846354 
L 1131.922286 481.726749 
L 1142.125714 488.243397 
L 1152.329143 488.666352 
L 1162.532571 490.953507 
L 1172.736 485.302778 
L 1182.939429 488.686074 
L 1193.142857 489.99996 
L 1203.346286 475.440207 
L 1213.549714 472.322379 
L 1223.753143 479.760835 
L 1233.956571 482.084731 
" style="fill:none;stroke:#ee3377;stroke-linecap:square;stroke-opacity:0.15;stroke-width:1.5;"/>
   </g>
   <g id="line2d_52">
    <path clip-path="url(#pa1d6b8f7d0)" d="M 223.817143 0.646455 
L 234.020571 362.817595 
L 244.224 439.805605 
L 254.427429 478.090001 
L 264.630857 492.521419 
L 274.834286 496.654144 
L 285.037714 497.562267 
L 295.241143 497.76581 
L 305.444571 511.410712 
L 315.648 507.14396 
L 325.851429 511.492877 
L 336.054857 507.964226 
L 346.258286 500.593963 
L 356.461714 516.184712 
L 366.665143 503.812757 
L 376.868571 518.972789 
L 387.072 523.477985 
L 397.275429 530.476294 
L 407.478857 533.8079 
L 417.682286 528.864914 
L 427.885714 520.588827 
L 438.089143 526.107196 
L 448.292571 533.306345 
L 458.496 533.80951 
L 468.699429 536.452979 
L 478.902857 533.52685 
L 489.106286 530.123199 
L 499.309714 522.895358 
L 509.513143 539.533088 
L 519.716571 541.379521 
L 529.92 543.60337 
L 540.123429 534.795025 
L 550.326857 541.845082 
L 560.530286 531.707039 
L 570.733714 537.113976 
L 580.937143 530.855034 
L 591.140571 545.435198 
L 601.344 547.308138 
L 611.547429 540.580989 
L 621.750857 535.194923 
L 631.954286 532.249015 
L 642.157714 514.787109 
L 652.361143 529.982617 
L 662.564571 528.624572 
L 672.768 538.705348 
L 682.971429 524.352702 
L 693.174857 527.066722 
L 703.378286 543.077896 
L 713.581714 547.262484 
L 723.785143 537.735069 
L 733.988571 545.525355 
L 744.192 550.87744 
L 754.395429 552.429425 
L 764.598857 553.408673 
L 774.802286 547.391912 
L 785.005714 553.208063 
L 795.209143 554.709047 
L 805.412571 551.57581 
L 815.616 555.897186 
L 825.819429 551.459894 
L 836.022857 553.27384 
L 846.226286 556.132755 
L 856.429714 555.650749 
L 866.633143 558.068079 
L 876.836571 561.146693 
L 887.04 552.78229 
L 897.243429 556.196635 
L 907.446857 557.10746 
L 917.650286 557.395353 
L 927.853714 556.694855 
L 938.057143 559.337922 
L 948.260571 542.46974 
L 958.464 547.254894 
L 968.667429 551.946327 
L 978.870857 554.825711 
L 989.074286 548.770484 
L 999.277714 550.878475 
L 1009.481143 552.780508 
L 1019.684571 555.615388 
L 1029.888 553.343815 
L 1040.091429 552.678046 
L 1050.294857 538.937064 
L 1060.498286 534.94015 
L 1070.701714 545.905992 
L 1080.905143 550.35622 
L 1091.108571 554.451859 
L 1101.312 556.093254 
L 1111.515429 557.980912 
L 1121.718857 549.577238 
L 1131.922286 550.045559 
L 1142.125714 553.073115 
L 1152.329143 550.45023 
L 1162.532571 553.399071 
L 1172.736 555.470896 
L 1182.939429 557.616893 
L 1193.142857 550.760086 
L 1203.346286 552.736119 
L 1213.549714 549.405549 
L 1223.753143 552.700528 
L 1233.956571 555.432257 
" style="fill:none;stroke:#009988;stroke-linecap:square;stroke-opacity:0.15;stroke-width:1.5;"/>
   </g>
   <g id="line2d_53">
    <path clip-path="url(#pa1d6b8f7d0)" d="M 228.716066 -1 
L 234.020571 192.959072 
L 244.224 320.324743 
L 254.427429 347.185883 
L 264.630857 352.912165 
L 274.834286 368.218881 
L 285.037714 390.09648 
L 295.241143 397.562609 
L 305.444571 406.650499 
L 315.648 413.835076 
L 325.851429 418.805584 
L 336.054857 422.19002 
L 346.258286 423.024315 
L 356.461714 424.458339 
L 366.665143 426.441777 
L 376.868571 430.536862 
L 387.072 435.352806 
L 397.275429 435.06771 
L 407.478857 434.506353 
L 417.682286 435.842283 
L 427.885714 438.426639 
L 438.089143 441.73273 
L 448.292571 443.751165 
L 458.496 446.999039 
L 468.699429 448.185852 
L 478.902857 449.026547 
L 489.106286 451.871068 
L 499.309714 454.192466 
L 509.513143 455.108633 
L 519.716571 457.422057 
L 529.92 460.250758 
L 540.123429 463.185026 
L 550.326857 465.353014 
L 560.530286 467.289185 
L 570.733714 468.026985 
L 580.937143 468.264754 
L 591.140571 468.802261 
L 601.344 469.795324 
L 611.547429 471.733784 
L 621.750857 472.840963 
L 631.954286 473.126634 
L 642.157714 472.470654 
L 652.361143 472.670048 
L 662.564571 474.244993 
L 672.768 475.628889 
L 682.971429 476.248408 
L 693.174857 476.299597 
L 703.378286 475.699665 
L 713.581714 475.57728 
L 723.785143 476.171413 
L 733.988571 476.412901 
L 744.192 476.030781 
L 754.395429 475.59323 
L 764.598857 477.161572 
L 774.802286 477.93512 
L 785.005714 476.482892 
L 795.209143 474.914025 
L 805.412571 474.645932 
L 815.616 475.590567 
L 825.819429 478.557024 
L 836.022857 481.937486 
L 846.226286 483.893369 
L 856.429714 483.343149 
L 866.633143 483.475024 
L 876.836571 484.569961 
L 887.04 486.688573 
L 897.243429 486.319309 
L 907.446857 488.464247 
L 917.650286 484.662275 
L 927.853714 477.68567 
L 938.057143 470.6792 
L 948.260571 466.801409 
L 958.464 467.570615 
L 968.667429 473.226822 
L 978.870857 479.443734 
L 989.074286 485.758333 
L 999.277714 486.58007 
L 1009.481143 489.465961 
L 1019.684571 490.183899 
L 1029.888 489.625768 
L 1040.091429 488.774775 
L 1050.294857 487.888888 
L 1060.498286 487.535422 
L 1070.701714 489.446262 
L 1080.905143 491.633174 
L 1091.108571 493.42727 
L 1101.312 494.178275 
L 1111.515429 494.007624 
L 1121.718857 494.456274 
L 1131.922286 494.996859 
L 1142.125714 494.750954 
L 1152.329143 494.081421 
L 1162.532571 493.102673 
L 1172.736 491.746087 
L 1182.939429 494.639323 
L 1193.142857 497.662973 
L 1203.346286 496.42032 
L 1213.549714 489.653871 
L 1223.753143 480.978423 
L 1233.956571 481.325827 
" style="fill:none;stroke:#ff7043;stroke-linecap:square;stroke-width:1.5;"/>
   </g>
   <g id="line2d_54">
    <path clip-path="url(#pa1d6b8f7d0)" d="M 264.707913 -1 
L 274.834286 52.955956 
L 285.037714 101.403197 
L 295.241143 139.318818 
L 305.444571 170.276426 
L 315.648 195.511607 
L 325.851429 215.810624 
L 336.054857 231.639336 
L 346.258286 244.623738 
L 356.461714 258.102395 
L 366.665143 271.938913 
L 376.868571 284.226009 
L 387.072 296.289304 
L 397.275429 308.770091 
L 407.478857 318.316706 
L 417.682286 326.068701 
L 427.885714 332.174341 
L 438.089143 338.013536 
L 448.292571 342.408985 
L 458.496 346.610549 
L 468.699429 352.10021 
L 478.902857 357.473266 
L 489.106286 364.0957 
L 499.309714 370.654514 
L 509.513143 376.33755 
L 519.716571 379.565666 
L 529.92 382.707921 
L 540.123429 384.00406 
L 550.326857 387.574831 
L 560.530286 392.028485 
L 570.733714 397.332695 
L 580.937143 399.445628 
L 591.140571 402.180395 
L 601.344 403.780757 
L 611.547429 405.462221 
L 621.750857 406.069095 
L 631.954286 407.101938 
L 642.157714 408.188963 
L 652.361143 410.037833 
L 662.564571 413.042263 
L 672.768 416.304828 
L 682.971429 417.717165 
L 693.174857 417.772713 
L 703.378286 418.798924 
L 713.581714 421.274596 
L 723.785143 423.173905 
L 733.988571 425.353712 
L 744.192 425.286313 
L 754.395429 425.823748 
L 764.598857 426.942301 
L 774.802286 428.198782 
L 785.005714 429.457404 
L 795.209143 430.338034 
L 805.412571 430.869563 
L 815.616 431.768988 
L 825.819429 433.729372 
L 836.022857 436.173515 
L 846.226286 436.015108 
L 856.429714 435.568564 
L 866.633143 436.090238 
L 876.836571 437.132718 
L 887.04 437.612981 
L 897.243429 439.745608 
L 907.446857 441.042665 
L 917.650286 440.974695 
L 927.853714 441.952549 
L 938.057143 442.831286 
L 948.260571 442.783072 
L 958.464 442.231984 
L 968.667429 442.785332 
L 978.870857 443.96493 
L 989.074286 445.192708 
L 999.277714 447.071571 
L 1009.481143 448.738329 
L 1019.684571 448.063935 
L 1029.888 448.644209 
L 1040.091429 448.905364 
L 1050.294857 449.042637 
L 1060.498286 450.132068 
L 1070.701714 452.090757 
L 1080.905143 453.328213 
L 1091.108571 453.813265 
L 1101.312 453.018334 
L 1111.515429 452.773263 
L 1121.718857 452.276573 
L 1131.922286 452.788098 
L 1142.125714 454.229761 
L 1152.329143 454.465568 
L 1162.532571 455.206661 
L 1172.736 455.784722 
L 1182.939429 456.620601 
L 1193.142857 457.757419 
L 1203.346286 458.630589 
L 1213.549714 458.939789 
L 1223.753143 458.638903 
L 1233.956571 458.113254 
" style="fill:none;stroke:#0077bb;stroke-linecap:square;stroke-width:1.5;"/>
   </g>
   <g id="line2d_55">
    <path clip-path="url(#pa1d6b8f7d0)" d="M 252.887988 -1 
L 254.427429 11.447645 
L 264.630857 45.865055 
L 274.834286 71.067045 
L 285.037714 102.827658 
L 295.241143 122.047891 
L 305.444571 139.009038 
L 315.648 167.969865 
L 325.851429 190.661536 
L 336.054857 208.151523 
L 346.258286 223.643886 
L 356.461714 240.233254 
L 366.665143 252.39784 
L 376.868571 260.599379 
L 387.072 271.734374 
L 397.275429 272.378558 
L 407.478857 266.302293 
L 417.682286 274.449612 
L 427.885714 273.655709 
L 438.089143 262.898458 
L 448.292571 253.406235 
L 458.496 257.202391 
L 468.699429 259.99507 
L 478.902857 273.536637 
L 489.106286 293.782846 
L 499.309714 313.346555 
L 509.513143 317.201813 
L 519.716571 330.609892 
L 529.92 343.438822 
L 540.123429 350.736512 
L 550.326857 352.429311 
L 560.530286 358.992517 
L 570.733714 363.048577 
L 580.937143 367.913197 
L 591.140571 369.073531 
L 601.344 374.555753 
L 611.547429 373.485466 
L 621.750857 371.262771 
L 631.954286 363.814323 
L 642.157714 373.001296 
L 652.361143 376.555265 
L 662.564571 367.322443 
L 672.768 343.625722 
L 682.971429 319.97957 
L 693.174857 300.935764 
L 703.378286 300.386972 
L 713.581714 313.747672 
L 723.785143 333.116574 
L 733.988571 338.292601 
L 744.192 351.797068 
L 754.395429 363.363248 
L 764.598857 369.923905 
L 774.802286 369.151986 
L 785.005714 366.298913 
L 795.209143 363.758038 
L 805.412571 366.260385 
L 815.616 374.887557 
L 825.819429 384.533473 
L 836.022857 390.107295 
L 846.226286 395.670357 
L 856.429714 399.382024 
L 866.633143 397.577447 
L 876.836571 397.214408 
L 887.04 396.555449 
L 897.243429 393.125132 
L 907.446857 388.614071 
L 917.650286 385.912335 
L 927.853714 386.032297 
L 938.057143 389.981705 
L 948.260571 396.752446 
L 958.464 403.464799 
L 968.667429 407.028951 
L 978.870857 413.136136 
L 989.074286 410.950056 
L 999.277714 402.72617 
L 1009.481143 390.860628 
L 1019.684571 378.086856 
L 1029.888 387.098977 
L 1040.091429 391.144011 
L 1050.294857 385.24555 
L 1060.498286 372.486567 
L 1070.701714 357.406783 
L 1080.905143 356.655946 
L 1091.108571 365.212488 
L 1101.312 382.769264 
L 1111.515429 395.527462 
L 1121.718857 389.058927 
L 1131.922286 389.621394 
L 1142.125714 390.774859 
L 1152.329143 393.396059 
L 1162.532571 397.006327 
L 1172.736 398.810671 
L 1182.939429 406.66657 
L 1193.142857 413.641744 
L 1203.346286 415.863533 
L 1213.549714 411.470114 
L 1223.753143 402.866898 
L 1233.956571 398.928993 
" style="fill:none;stroke:#cc3311;stroke-linecap:square;stroke-width:1.5;"/>
   </g>
   <g id="line2d_56">
    <path clip-path="url(#pa1d6b8f7d0)" d="M 231.139159 -1 
L 234.020571 86.026751 
L 244.224 208.325549 
L 254.427429 247.387389 
L 264.630857 261.826842 
L 274.834286 277.228627 
L 285.037714 296.133656 
L 295.241143 306.924532 
L 305.444571 316.795495 
L 315.648 326.344714 
L 325.851429 337.543721 
L 336.054857 345.479012 
L 346.258286 350.524366 
L 356.461714 350.382499 
L 366.665143 351.544025 
L 376.868571 349.935966 
L 387.072 348.769564 
L 397.275429 346.488081 
L 407.478857 343.925274 
L 417.682286 346.68594 
L 427.885714 353.939522 
L 438.089143 356.678551 
L 448.292571 359.505215 
L 458.496 355.321008 
L 468.699429 351.514746 
L 478.902857 351.018727 
L 489.106286 357.627866 
L 499.309714 366.466215 
L 509.513143 372.740731 
L 519.716571 376.117246 
L 529.92 380.440272 
L 540.123429 379.307343 
L 550.326857 378.407602 
L 560.530286 376.780986 
L 570.733714 375.797391 
L 580.937143 377.847957 
L 591.140571 381.384057 
L 601.344 381.958229 
L 611.547429 382.273366 
L 621.750857 381.818948 
L 631.954286 383.556837 
L 642.157714 388.768105 
L 652.361143 392.142195 
L 662.564571 388.433287 
L 672.768 381.420998 
L 682.971429 375.601898 
L 693.174857 376.165927 
L 703.378286 378.531004 
L 713.581714 381.257172 
L 723.785143 380.71742 
L 733.988571 376.924493 
L 744.192 377.188766 
L 754.395429 380.579907 
L 764.598857 384.076478 
L 774.802286 386.902165 
L 785.005714 391.509721 
L 795.209143 394.620264 
L 805.412571 392.514438 
L 815.616 388.359284 
L 825.819429 385.381604 
L 836.022857 384.845866 
L 846.226286 387.38421 
L 856.429714 390.61059 
L 866.633143 392.539159 
L 876.836571 393.909511 
L 887.04 394.937038 
L 897.243429 393.110516 
L 907.446857 390.149591 
L 917.650286 386.11385 
L 927.853714 383.58457 
L 938.057143 385.625589 
L 948.260571 390.772825 
L 958.464 396.426941 
L 968.667429 396.121201 
L 978.870857 396.687847 
L 989.074286 396.681012 
L 999.277714 396.116007 
L 1009.481143 395.22493 
L 1019.684571 396.886425 
L 1029.888 399.999549 
L 1040.091429 402.637678 
L 1050.294857 404.466549 
L 1060.498286 402.491893 
L 1070.701714 396.045894 
L 1080.905143 389.156925 
L 1091.108571 385.551686 
L 1101.312 386.319505 
L 1111.515429 393.131741 
L 1121.718857 399.645894 
L 1131.922286 401.572785 
L 1142.125714 395.751723 
L 1152.329143 387.957489 
L 1162.532571 384.385874 
L 1172.736 384.075037 
L 1182.939429 386.940334 
L 1193.142857 392.474485 
L 1203.346286 396.888765 
L 1213.549714 399.046847 
L 1223.753143 400.888503 
L 1233.956571 408.988842 
" style="fill:none;stroke:#33bbee;stroke-linecap:square;stroke-width:1.5;"/>
   </g>
   <g id="line2d_57">
    <path clip-path="url(#pa1d6b8f7d0)" d="M 226.854473 -1 
L 234.020571 181.694083 
L 244.224 289.802309 
L 254.427429 330.382335 
L 264.630857 350.90883 
L 274.834286 371.279763 
L 285.037714 390.507402 
L 295.241143 404.387114 
L 305.444571 414.350395 
L 315.648 419.866728 
L 325.851429 419.606202 
L 336.054857 425.015379 
L 346.258286 426.98997 
L 356.461714 424.665828 
L 366.665143 421.07812 
L 376.868571 421.55181 
L 387.072 421.245571 
L 397.275429 426.575149 
L 407.478857 434.963475 
L 417.682286 441.231298 
L 427.885714 443.755876 
L 438.089143 450.165713 
L 448.292571 450.07487 
L 458.496 447.291368 
L 468.699429 444.501229 
L 478.902857 443.260997 
L 489.106286 439.953592 
L 499.309714 439.375085 
L 509.513143 443.39214 
L 519.716571 444.600944 
L 529.92 443.692965 
L 540.123429 445.512753 
L 550.326857 446.589254 
L 560.530286 450.233309 
L 570.733714 456.783432 
L 580.937143 464.04171 
L 591.140571 467.845568 
L 601.344 468.728305 
L 611.547429 467.287188 
L 621.750857 466.059938 
L 631.954286 464.343738 
L 642.157714 462.41552 
L 652.361143 460.926113 
L 662.564571 461.513158 
L 672.768 465.160066 
L 682.971429 469.010653 
L 693.174857 471.428296 
L 703.378286 474.444778 
L 713.581714 472.562209 
L 723.785143 468.966472 
L 733.988571 466.804808 
L 744.192 465.74213 
L 754.395429 468.328071 
L 764.598857 472.54384 
L 774.802286 479.195494 
L 785.005714 481.243167 
L 795.209143 479.788819 
L 805.412571 476.44287 
L 815.616 473.730493 
L 825.819429 471.88162 
L 836.022857 471.817547 
L 846.226286 472.985558 
L 856.429714 476.744363 
L 866.633143 479.311915 
L 876.836571 480.588961 
L 887.04 481.324814 
L 897.243429 481.482555 
L 907.446857 480.802814 
L 917.650286 481.753688 
L 927.853714 482.724959 
L 938.057143 490.045054 
L 948.260571 488.816279 
L 958.464 480.594182 
L 968.667429 468.710406 
L 978.870857 457.539925 
L 989.074286 451.105284 
L 999.277714 452.341991 
L 1009.481143 459.589917 
L 1019.684571 472.513522 
L 1029.888 473.491255 
L 1040.091429 473.196925 
L 1050.294857 469.924835 
L 1060.498286 467.237727 
L 1070.701714 468.061228 
L 1080.905143 472.672173 
L 1091.108571 479.226323 
L 1101.312 483.550244 
L 1111.515429 481.908252 
L 1121.718857 482.605389 
L 1131.922286 484.547238 
L 1142.125714 486.495228 
L 1152.329143 487.944735 
L 1162.532571 489.400763 
L 1172.736 490.561558 
L 1182.939429 487.36734 
L 1193.142857 483.992585 
L 1203.346286 479.640083 
L 1213.549714 475.774964 
L 1223.753143 475.356159 
L 1233.956571 483.318104 
" style="fill:none;stroke:#ee3377;stroke-linecap:square;stroke-width:1.5;"/>
   </g>
   <g id="line2d_58">
    <path clip-path="url(#pa1d6b8f7d0)" d="M 223.817143 6.391425 
L 234.020571 341.895081 
L 244.224 460.070919 
L 254.427429 483.848151 
L 264.630857 482.911029 
L 274.834286 487.041977 
L 285.037714 498.207524 
L 295.241143 501.16495 
L 305.444571 506.817673 
L 315.648 508.131756 
L 325.851429 509.922256 
L 336.054857 508.070579 
L 346.258286 506.010131 
L 356.461714 507.5309 
L 366.665143 510.334874 
L 376.868571 517.165033 
L 387.072 525.077028 
L 397.275429 529.290751 
L 407.478857 531.184662 
L 417.682286 527.580503 
L 427.885714 526.044177 
L 438.089143 526.441226 
L 448.292571 529.918865 
L 458.496 535.589107 
L 468.699429 535.356177 
L 478.902857 531.645538 
L 489.106286 529.186152 
L 499.309714 531.683289 
L 509.513143 534.41137 
L 519.716571 539.68314 
L 529.92 541.599288 
L 540.123429 541.467388 
L 550.326857 536.188531 
L 560.530286 533.820327 
L 570.733714 534.546798 
L 580.937143 538.346424 
L 591.140571 540.624094 
L 601.344 545.587496 
L 611.547429 541.899073 
L 621.750857 535.97244 
L 631.954286 526.320179 
L 642.157714 524.93929 
L 652.361143 527.369471 
L 662.564571 528.321693 
L 672.768 529.070327 
L 682.971429 532.497022 
L 693.174857 533.195314 
L 703.378286 536.989346 
L 713.581714 540.640671 
L 723.785143 545.276231 
L 733.988571 547.099606 
L 744.192 548.231291 
L 754.395429 550.798121 
L 764.598857 552.905994 
L 774.802286 551.320099 
L 785.005714 551.864514 
L 795.209143 552.950245 
L 805.412571 553.46757 
L 815.616 553.876011 
L 825.819429 553.064038 
L 836.022857 553.193548 
L 846.226286 555.476368 
L 856.429714 556.869567 
L 866.633143 558.073103 
L 876.836571 557.321991 
L 887.04 556.78067 
L 897.243429 555.450203 
L 907.446857 557.084587 
L 917.650286 558.148145 
L 927.853714 556.946829 
L 938.057143 552.227262 
L 948.260571 549.938032 
L 958.464 548.923552 
L 968.667429 549.319461 
L 978.870857 550.5114 
L 989.074286 552.723231 
L 999.277714 551.290549 
L 1009.481143 553.073321 
L 1019.684571 555.352245 
L 1029.888 553.382469 
L 1040.091429 547.448891 
L 1050.294857 542.138673 
L 1060.498286 540.20635 
L 1070.701714 542.423306 
L 1080.905143 548.942254 
L 1091.108571 555.589501 
L 1101.312 556.405907 
L 1111.515429 554.688478 
L 1121.718857 552.935848 
L 1131.922286 551.008146 
L 1142.125714 550.046314 
L 1152.329143 552.01789 
L 1162.532571 554.33287 
L 1172.736 555.092028 
L 1182.939429 554.767538 
L 1193.142857 553.482782 
L 1203.346286 551.774702 
L 1213.549714 550.635774 
L 1223.753143 551.424061 
L 1233.956571 555.823706 
" style="fill:none;stroke:#009988;stroke-linecap:square;stroke-width:1.5;"/>
   </g>
   <g id="patch_3">
    <path d="M 172.8 613.2456 
L 172.8 82.6848 
" style="fill:none;stroke:#000000;stroke-linecap:square;stroke-linejoin:miter;stroke-width:0.8;"/>
   </g>
   <g id="patch_4">
    <path d="M 1244.16 613.2456 
L 1244.16 82.6848 
" style="fill:none;stroke:#000000;stroke-linecap:square;stroke-linejoin:miter;stroke-width:0.8;"/>
   </g>
   <g id="patch_5">
    <path d="M 172.8 613.2456 
L 1244.16 613.2456 
" style="fill:none;stroke:#000000;stroke-linecap:square;stroke-linejoin:miter;stroke-width:0.8;"/>
   </g>
   <g id="patch_6">
    <path d="M 172.8 82.6848 
L 1244.16 82.6848 
" style="fill:none;stroke:#000000;stroke-linecap:square;stroke-linejoin:miter;stroke-width:0.8;"/>
   </g>
   <g id="legend_1">
    <g id="patch_7">
     <path d="M 721.099687 258.6123 
L 1231.56 258.6123 
Q 1235.16 258.6123 1235.16 255.0123 
L 1235.16 95.2848 
Q 1235.16 91.6848 1231.56 91.6848 
L 721.099687 91.6848 
Q 717.499687 91.6848 717.499687 95.2848 
L 717.499687 255.0123 
Q 717.499687 258.6123 721.099687 258.6123 
z
" style="fill:#ffffff;opacity:0.8;stroke:#cccccc;stroke-linejoin:miter;"/>
    </g>
    <g id="line2d_59">
     <path d="M 724.699687 106.261987 
L 760.699687 106.261987 
" style="fill:none;stroke:#ff7043;stroke-linecap:square;stroke-width:1.5;"/>
    </g>
    <g id="line2d_60"/>
    <g id="text_26">
     <!-- learning_rate(0.001) batch_size(64) dropout(0.3) -->
     <defs>
      <path d="M 34.28125 27.484375 
Q 23.390625 27.484375 19.1875 25 
Q 14.984375 22.515625 14.984375 16.5 
Q 14.984375 11.71875 18.140625 8.90625 
Q 21.296875 6.109375 26.703125 6.109375 
Q 34.1875 6.109375 38.703125 11.40625 
Q 43.21875 16.703125 43.21875 25.484375 
L 43.21875 27.484375 
z
M 52.203125 31.203125 
L 52.203125 0 
L 43.21875 0 
L 43.21875 8.296875 
Q 40.140625 3.328125 35.546875 0.953125 
Q 30.953125 -1.421875 24.3125 -1.421875 
Q 15.921875 -1.421875 10.953125 3.296875 
Q 6 8.015625 6 15.921875 
Q 6 25.140625 12.171875 29.828125 
Q 18.359375 34.515625 30.609375 34.515625 
L 43.21875 34.515625 
L 43.21875 35.40625 
Q 43.21875 41.609375 39.140625 45 
Q 35.0625 48.390625 27.6875 48.390625 
Q 23 48.390625 18.546875 47.265625 
Q 14.109375 46.140625 10.015625 43.890625 
L 10.015625 52.203125 
Q 14.9375 54.109375 19.578125 55.046875 
Q 24.21875 56 28.609375 56 
Q 40.484375 56 46.34375 49.84375 
Q 52.203125 43.703125 52.203125 31.203125 
z
" id="DejaVuSans-97"/>
      <path d="M 41.109375 46.296875 
Q 39.59375 47.171875 37.8125 47.578125 
Q 36.03125 48 33.890625 48 
Q 26.265625 48 22.1875 43.046875 
Q 18.109375 38.09375 18.109375 28.8125 
L 18.109375 0 
L 9.078125 0 
L 9.078125 54.6875 
L 18.109375 54.6875 
L 18.109375 46.1875 
Q 20.953125 51.171875 25.484375 53.578125 
Q 30.03125 56 36.53125 56 
Q 37.453125 56 38.578125 55.875 
Q 39.703125 55.765625 41.0625 55.515625 
z
" id="DejaVuSans-114"/>
      <path d="M 54.890625 33.015625 
L 54.890625 0 
L 45.90625 0 
L 45.90625 32.71875 
Q 45.90625 40.484375 42.875 44.328125 
Q 39.84375 48.1875 33.796875 48.1875 
Q 26.515625 48.1875 22.3125 43.546875 
Q 18.109375 38.921875 18.109375 30.90625 
L 18.109375 0 
L 9.078125 0 
L 9.078125 54.6875 
L 18.109375 54.6875 
L 18.109375 46.1875 
Q 21.34375 51.125 25.703125 53.5625 
Q 30.078125 56 35.796875 56 
Q 45.21875 56 50.046875 50.171875 
Q 54.890625 44.34375 54.890625 33.015625 
z
" id="DejaVuSans-110"/>
      <path d="M 9.421875 54.6875 
L 18.40625 54.6875 
L 18.40625 0 
L 9.421875 0 
z
M 9.421875 75.984375 
L 18.40625 75.984375 
L 18.40625 64.59375 
L 9.421875 64.59375 
z
" id="DejaVuSans-105"/>
      <path d="M 45.40625 27.984375 
Q 45.40625 37.75 41.375 43.109375 
Q 37.359375 48.484375 30.078125 48.484375 
Q 22.859375 48.484375 18.828125 43.109375 
Q 14.796875 37.75 14.796875 27.984375 
Q 14.796875 18.265625 18.828125 12.890625 
Q 22.859375 7.515625 30.078125 7.515625 
Q 37.359375 7.515625 41.375 12.890625 
Q 45.40625 18.265625 45.40625 27.984375 
z
M 54.390625 6.78125 
Q 54.390625 -7.171875 48.1875 -13.984375 
Q 42 -20.796875 29.203125 -20.796875 
Q 24.46875 -20.796875 20.265625 -20.09375 
Q 16.0625 -19.390625 12.109375 -17.921875 
L 12.109375 -9.1875 
Q 16.0625 -11.328125 19.921875 -12.34375 
Q 23.78125 -13.375 27.78125 -13.375 
Q 36.625 -13.375 41.015625 -8.765625 
Q 45.40625 -4.15625 45.40625 5.171875 
L 45.40625 9.625 
Q 42.625 4.78125 38.28125 2.390625 
Q 33.9375 0 27.875 0 
Q 17.828125 0 11.671875 7.65625 
Q 5.515625 15.328125 5.515625 27.984375 
Q 5.515625 40.671875 11.671875 48.328125 
Q 17.828125 56 27.875 56 
Q 33.9375 56 38.28125 53.609375 
Q 42.625 51.21875 45.40625 46.390625 
L 45.40625 54.6875 
L 54.390625 54.6875 
z
" id="DejaVuSans-103"/>
      <path d="M 50.984375 -16.609375 
L 50.984375 -23.578125 
L -0.984375 -23.578125 
L -0.984375 -16.609375 
z
" id="DejaVuSans-95"/>
      <path d="M 18.3125 70.21875 
L 18.3125 54.6875 
L 36.8125 54.6875 
L 36.8125 47.703125 
L 18.3125 47.703125 
L 18.3125 18.015625 
Q 18.3125 11.328125 20.140625 9.421875 
Q 21.96875 7.515625 27.59375 7.515625 
L 36.8125 7.515625 
L 36.8125 0 
L 27.59375 0 
Q 17.1875 0 13.234375 3.875 
Q 9.28125 7.765625 9.28125 18.015625 
L 9.28125 47.703125 
L 2.6875 47.703125 
L 2.6875 54.6875 
L 9.28125 54.6875 
L 9.28125 70.21875 
z
" id="DejaVuSans-116"/>
      <path d="M 31 75.875 
Q 24.46875 64.65625 21.28125 53.65625 
Q 18.109375 42.671875 18.109375 31.390625 
Q 18.109375 20.125 21.3125 9.0625 
Q 24.515625 -2 31 -13.1875 
L 23.1875 -13.1875 
Q 15.875 -1.703125 12.234375 9.375 
Q 8.59375 20.453125 8.59375 31.390625 
Q 8.59375 42.28125 12.203125 53.3125 
Q 15.828125 64.359375 23.1875 75.875 
z
" id="DejaVuSans-40"/>
      <path d="M 8.015625 75.875 
L 15.828125 75.875 
Q 23.140625 64.359375 26.78125 53.3125 
Q 30.421875 42.28125 30.421875 31.390625 
Q 30.421875 20.453125 26.78125 9.375 
Q 23.140625 -1.703125 15.828125 -13.1875 
L 8.015625 -13.1875 
Q 14.5 -2 17.703125 9.0625 
Q 20.90625 20.125 20.90625 31.390625 
Q 20.90625 42.671875 17.703125 53.65625 
Q 14.5 64.65625 8.015625 75.875 
z
" id="DejaVuSans-41"/>
      <path id="DejaVuSans-32"/>
      <path d="M 48.6875 27.296875 
Q 48.6875 37.203125 44.609375 42.84375 
Q 40.53125 48.484375 33.40625 48.484375 
Q 26.265625 48.484375 22.1875 42.84375 
Q 18.109375 37.203125 18.109375 27.296875 
Q 18.109375 17.390625 22.1875 11.75 
Q 26.265625 6.109375 33.40625 6.109375 
Q 40.53125 6.109375 44.609375 11.75 
Q 48.6875 17.390625 48.6875 27.296875 
z
M 18.109375 46.390625 
Q 20.953125 51.265625 25.265625 53.625 
Q 29.59375 56 35.59375 56 
Q 45.5625 56 51.78125 48.09375 
Q 58.015625 40.1875 58.015625 27.296875 
Q 58.015625 14.40625 51.78125 6.484375 
Q 45.5625 -1.421875 35.59375 -1.421875 
Q 29.59375 -1.421875 25.265625 0.953125 
Q 20.953125 3.328125 18.109375 8.203125 
L 18.109375 0 
L 9.078125 0 
L 9.078125 75.984375 
L 18.109375 75.984375 
z
" id="DejaVuSans-98"/>
      <path d="M 5.515625 54.6875 
L 48.1875 54.6875 
L 48.1875 46.484375 
L 14.40625 7.171875 
L 48.1875 7.171875 
L 48.1875 0 
L 4.296875 0 
L 4.296875 8.203125 
L 38.09375 47.515625 
L 5.515625 47.515625 
z
" id="DejaVuSans-122"/>
      <path d="M 45.40625 46.390625 
L 45.40625 75.984375 
L 54.390625 75.984375 
L 54.390625 0 
L 45.40625 0 
L 45.40625 8.203125 
Q 42.578125 3.328125 38.25 0.953125 
Q 33.9375 -1.421875 27.875 -1.421875 
Q 17.96875 -1.421875 11.734375 6.484375 
Q 5.515625 14.40625 5.515625 27.296875 
Q 5.515625 40.1875 11.734375 48.09375 
Q 17.96875 56 27.875 56 
Q 33.9375 56 38.25 53.625 
Q 42.578125 51.265625 45.40625 46.390625 
z
M 14.796875 27.296875 
Q 14.796875 17.390625 18.875 11.75 
Q 22.953125 6.109375 30.078125 6.109375 
Q 37.203125 6.109375 41.296875 11.75 
Q 45.40625 17.390625 45.40625 27.296875 
Q 45.40625 37.203125 41.296875 42.84375 
Q 37.203125 48.484375 30.078125 48.484375 
Q 22.953125 48.484375 18.875 42.84375 
Q 14.796875 37.203125 14.796875 27.296875 
z
" id="DejaVuSans-100"/>
      <path d="M 8.5 21.578125 
L 8.5 54.6875 
L 17.484375 54.6875 
L 17.484375 21.921875 
Q 17.484375 14.15625 20.5 10.265625 
Q 23.53125 6.390625 29.59375 6.390625 
Q 36.859375 6.390625 41.078125 11.03125 
Q 45.3125 15.671875 45.3125 23.6875 
L 45.3125 54.6875 
L 54.296875 54.6875 
L 54.296875 0 
L 45.3125 0 
L 45.3125 8.40625 
Q 42.046875 3.421875 37.71875 1 
Q 33.40625 -1.421875 27.6875 -1.421875 
Q 18.265625 -1.421875 13.375 4.4375 
Q 8.5 10.296875 8.5 21.578125 
z
M 31.109375 56 
z
" id="DejaVuSans-117"/>
     </defs>
     <g transform="translate(775.099687 112.561987)scale(0.18 -0.18)">
      <use xlink:href="#DejaVuSans-108"/>
      <use x="27.783203" xlink:href="#DejaVuSans-101"/>
      <use x="89.306641" xlink:href="#DejaVuSans-97"/>
      <use x="150.585938" xlink:href="#DejaVuSans-114"/>
      <use x="191.683594" xlink:href="#DejaVuSans-110"/>
      <use x="255.0625" xlink:href="#DejaVuSans-105"/>
      <use x="282.845703" xlink:href="#DejaVuSans-110"/>
      <use x="346.224609" xlink:href="#DejaVuSans-103"/>
      <use x="409.701172" xlink:href="#DejaVuSans-95"/>
      <use x="459.701172" xlink:href="#DejaVuSans-114"/>
      <use x="500.814453" xlink:href="#DejaVuSans-97"/>
      <use x="562.09375" xlink:href="#DejaVuSans-116"/>
      <use x="601.302734" xlink:href="#DejaVuSans-101"/>
      <use x="662.826172" xlink:href="#DejaVuSans-40"/>
      <use x="701.839844" xlink:href="#DejaVuSans-48"/>
      <use x="765.462891" xlink:href="#DejaVuSans-46"/>
      <use x="797.25" xlink:href="#DejaVuSans-48"/>
      <use x="860.873047" xlink:href="#DejaVuSans-48"/>
      <use x="924.496094" xlink:href="#DejaVuSans-49"/>
      <use x="988.119141" xlink:href="#DejaVuSans-41"/>
      <use x="1027.132812" xlink:href="#DejaVuSans-32"/>
      <use x="1058.919922" xlink:href="#DejaVuSans-98"/>
      <use x="1122.396484" xlink:href="#DejaVuSans-97"/>
      <use x="1183.675781" xlink:href="#DejaVuSans-116"/>
      <use x="1222.884766" xlink:href="#DejaVuSans-99"/>
      <use x="1277.865234" xlink:href="#DejaVuSans-104"/>
      <use x="1341.244141" xlink:href="#DejaVuSans-95"/>
      <use x="1391.244141" xlink:href="#DejaVuSans-115"/>
      <use x="1443.34375" xlink:href="#DejaVuSans-105"/>
      <use x="1471.126953" xlink:href="#DejaVuSans-122"/>
      <use x="1523.617188" xlink:href="#DejaVuSans-101"/>
      <use x="1585.140625" xlink:href="#DejaVuSans-40"/>
      <use x="1624.154297" xlink:href="#DejaVuSans-54"/>
      <use x="1687.777344" xlink:href="#DejaVuSans-52"/>
      <use x="1751.400391" xlink:href="#DejaVuSans-41"/>
      <use x="1790.414062" xlink:href="#DejaVuSans-32"/>
      <use x="1822.201172" xlink:href="#DejaVuSans-100"/>
      <use x="1885.677734" xlink:href="#DejaVuSans-114"/>
      <use x="1926.759766" xlink:href="#DejaVuSans-111"/>
      <use x="1987.941406" xlink:href="#DejaVuSans-112"/>
      <use x="2051.417969" xlink:href="#DejaVuSans-111"/>
      <use x="2112.599609" xlink:href="#DejaVuSans-117"/>
      <use x="2175.978516" xlink:href="#DejaVuSans-116"/>
      <use x="2215.1875" xlink:href="#DejaVuSans-40"/>
      <use x="2254.201172" xlink:href="#DejaVuSans-48"/>
      <use x="2317.824219" xlink:href="#DejaVuSans-46"/>
      <use x="2349.611328" xlink:href="#DejaVuSans-51"/>
      <use x="2413.234375" xlink:href="#DejaVuSans-41"/>
     </g>
    </g>
    <g id="line2d_61">
     <path d="M 724.699687 133.183237 
L 760.699687 133.183237 
" style="fill:none;stroke:#0077bb;stroke-linecap:square;stroke-width:1.5;"/>
    </g>
    <g id="line2d_62"/>
    <g id="text_27">
     <!-- learning_rate(0.0001) batch_size(64) dropout(0.3) -->
     <g transform="translate(775.099687 139.483237)scale(0.18 -0.18)">
      <use xlink:href="#DejaVuSans-108"/>
      <use x="27.783203" xlink:href="#DejaVuSans-101"/>
      <use x="89.306641" xlink:href="#DejaVuSans-97"/>
      <use x="150.585938" xlink:href="#DejaVuSans-114"/>
      <use x="191.683594" xlink:href="#DejaVuSans-110"/>
      <use x="255.0625" xlink:href="#DejaVuSans-105"/>
      <use x="282.845703" xlink:href="#DejaVuSans-110"/>
      <use x="346.224609" xlink:href="#DejaVuSans-103"/>
      <use x="409.701172" xlink:href="#DejaVuSans-95"/>
      <use x="459.701172" xlink:href="#DejaVuSans-114"/>
      <use x="500.814453" xlink:href="#DejaVuSans-97"/>
      <use x="562.09375" xlink:href="#DejaVuSans-116"/>
      <use x="601.302734" xlink:href="#DejaVuSans-101"/>
      <use x="662.826172" xlink:href="#DejaVuSans-40"/>
      <use x="701.839844" xlink:href="#DejaVuSans-48"/>
      <use x="765.462891" xlink:href="#DejaVuSans-46"/>
      <use x="797.25" xlink:href="#DejaVuSans-48"/>
      <use x="860.873047" xlink:href="#DejaVuSans-48"/>
      <use x="924.496094" xlink:href="#DejaVuSans-48"/>
      <use x="988.119141" xlink:href="#DejaVuSans-49"/>
      <use x="1051.742188" xlink:href="#DejaVuSans-41"/>
      <use x="1090.755859" xlink:href="#DejaVuSans-32"/>
      <use x="1122.542969" xlink:href="#DejaVuSans-98"/>
      <use x="1186.019531" xlink:href="#DejaVuSans-97"/>
      <use x="1247.298828" xlink:href="#DejaVuSans-116"/>
      <use x="1286.507812" xlink:href="#DejaVuSans-99"/>
      <use x="1341.488281" xlink:href="#DejaVuSans-104"/>
      <use x="1404.867188" xlink:href="#DejaVuSans-95"/>
      <use x="1454.867188" xlink:href="#DejaVuSans-115"/>
      <use x="1506.966797" xlink:href="#DejaVuSans-105"/>
      <use x="1534.75" xlink:href="#DejaVuSans-122"/>
      <use x="1587.240234" xlink:href="#DejaVuSans-101"/>
      <use x="1648.763672" xlink:href="#DejaVuSans-40"/>
      <use x="1687.777344" xlink:href="#DejaVuSans-54"/>
      <use x="1751.400391" xlink:href="#DejaVuSans-52"/>
      <use x="1815.023438" xlink:href="#DejaVuSans-41"/>
      <use x="1854.037109" xlink:href="#DejaVuSans-32"/>
      <use x="1885.824219" xlink:href="#DejaVuSans-100"/>
      <use x="1949.300781" xlink:href="#DejaVuSans-114"/>
      <use x="1990.382812" xlink:href="#DejaVuSans-111"/>
      <use x="2051.564453" xlink:href="#DejaVuSans-112"/>
      <use x="2115.041016" xlink:href="#DejaVuSans-111"/>
      <use x="2176.222656" xlink:href="#DejaVuSans-117"/>
      <use x="2239.601562" xlink:href="#DejaVuSans-116"/>
      <use x="2278.810547" xlink:href="#DejaVuSans-40"/>
      <use x="2317.824219" xlink:href="#DejaVuSans-48"/>
      <use x="2381.447266" xlink:href="#DejaVuSans-46"/>
      <use x="2413.234375" xlink:href="#DejaVuSans-51"/>
      <use x="2476.857422" xlink:href="#DejaVuSans-41"/>
     </g>
    </g>
    <g id="line2d_63">
     <path d="M 724.699687 160.104487 
L 760.699687 160.104487 
" style="fill:none;stroke:#cc3311;stroke-linecap:square;stroke-width:1.5;"/>
    </g>
    <g id="line2d_64"/>
    <g id="text_28">
     <!-- learning_rate(0.01) batch_size(64) dropout(0.3) -->
     <g transform="translate(775.099687 166.404487)scale(0.18 -0.18)">
      <use xlink:href="#DejaVuSans-108"/>
      <use x="27.783203" xlink:href="#DejaVuSans-101"/>
      <use x="89.306641" xlink:href="#DejaVuSans-97"/>
      <use x="150.585938" xlink:href="#DejaVuSans-114"/>
      <use x="191.683594" xlink:href="#DejaVuSans-110"/>
      <use x="255.0625" xlink:href="#DejaVuSans-105"/>
      <use x="282.845703" xlink:href="#DejaVuSans-110"/>
      <use x="346.224609" xlink:href="#DejaVuSans-103"/>
      <use x="409.701172" xlink:href="#DejaVuSans-95"/>
      <use x="459.701172" xlink:href="#DejaVuSans-114"/>
      <use x="500.814453" xlink:href="#DejaVuSans-97"/>
      <use x="562.09375" xlink:href="#DejaVuSans-116"/>
      <use x="601.302734" xlink:href="#DejaVuSans-101"/>
      <use x="662.826172" xlink:href="#DejaVuSans-40"/>
      <use x="701.839844" xlink:href="#DejaVuSans-48"/>
      <use x="765.462891" xlink:href="#DejaVuSans-46"/>
      <use x="797.25" xlink:href="#DejaVuSans-48"/>
      <use x="860.873047" xlink:href="#DejaVuSans-49"/>
      <use x="924.496094" xlink:href="#DejaVuSans-41"/>
      <use x="963.509766" xlink:href="#DejaVuSans-32"/>
      <use x="995.296875" xlink:href="#DejaVuSans-98"/>
      <use x="1058.773438" xlink:href="#DejaVuSans-97"/>
      <use x="1120.052734" xlink:href="#DejaVuSans-116"/>
      <use x="1159.261719" xlink:href="#DejaVuSans-99"/>
      <use x="1214.242188" xlink:href="#DejaVuSans-104"/>
      <use x="1277.621094" xlink:href="#DejaVuSans-95"/>
      <use x="1327.621094" xlink:href="#DejaVuSans-115"/>
      <use x="1379.720703" xlink:href="#DejaVuSans-105"/>
      <use x="1407.503906" xlink:href="#DejaVuSans-122"/>
      <use x="1459.994141" xlink:href="#DejaVuSans-101"/>
      <use x="1521.517578" xlink:href="#DejaVuSans-40"/>
      <use x="1560.53125" xlink:href="#DejaVuSans-54"/>
      <use x="1624.154297" xlink:href="#DejaVuSans-52"/>
      <use x="1687.777344" xlink:href="#DejaVuSans-41"/>
      <use x="1726.791016" xlink:href="#DejaVuSans-32"/>
      <use x="1758.578125" xlink:href="#DejaVuSans-100"/>
      <use x="1822.054688" xlink:href="#DejaVuSans-114"/>
      <use x="1863.136719" xlink:href="#DejaVuSans-111"/>
      <use x="1924.318359" xlink:href="#DejaVuSans-112"/>
      <use x="1987.794922" xlink:href="#DejaVuSans-111"/>
      <use x="2048.976562" xlink:href="#DejaVuSans-117"/>
      <use x="2112.355469" xlink:href="#DejaVuSans-116"/>
      <use x="2151.564453" xlink:href="#DejaVuSans-40"/>
      <use x="2190.578125" xlink:href="#DejaVuSans-48"/>
      <use x="2254.201172" xlink:href="#DejaVuSans-46"/>
      <use x="2285.988281" xlink:href="#DejaVuSans-51"/>
      <use x="2349.611328" xlink:href="#DejaVuSans-41"/>
     </g>
    </g>
    <g id="line2d_65">
     <path d="M 724.699687 187.025737 
L 760.699687 187.025737 
" style="fill:none;stroke:#33bbee;stroke-linecap:square;stroke-width:1.5;"/>
    </g>
    <g id="line2d_66"/>
    <g id="text_29">
     <!-- learning_rate(0.001) batch_size(256) dropout(0.3) -->
     <g transform="translate(775.099687 193.325738)scale(0.18 -0.18)">
      <use xlink:href="#DejaVuSans-108"/>
      <use x="27.783203" xlink:href="#DejaVuSans-101"/>
      <use x="89.306641" xlink:href="#DejaVuSans-97"/>
      <use x="150.585938" xlink:href="#DejaVuSans-114"/>
      <use x="191.683594" xlink:href="#DejaVuSans-110"/>
      <use x="255.0625" xlink:href="#DejaVuSans-105"/>
      <use x="282.845703" xlink:href="#DejaVuSans-110"/>
      <use x="346.224609" xlink:href="#DejaVuSans-103"/>
      <use x="409.701172" xlink:href="#DejaVuSans-95"/>
      <use x="459.701172" xlink:href="#DejaVuSans-114"/>
      <use x="500.814453" xlink:href="#DejaVuSans-97"/>
      <use x="562.09375" xlink:href="#DejaVuSans-116"/>
      <use x="601.302734" xlink:href="#DejaVuSans-101"/>
      <use x="662.826172" xlink:href="#DejaVuSans-40"/>
      <use x="701.839844" xlink:href="#DejaVuSans-48"/>
      <use x="765.462891" xlink:href="#DejaVuSans-46"/>
      <use x="797.25" xlink:href="#DejaVuSans-48"/>
      <use x="860.873047" xlink:href="#DejaVuSans-48"/>
      <use x="924.496094" xlink:href="#DejaVuSans-49"/>
      <use x="988.119141" xlink:href="#DejaVuSans-41"/>
      <use x="1027.132812" xlink:href="#DejaVuSans-32"/>
      <use x="1058.919922" xlink:href="#DejaVuSans-98"/>
      <use x="1122.396484" xlink:href="#DejaVuSans-97"/>
      <use x="1183.675781" xlink:href="#DejaVuSans-116"/>
      <use x="1222.884766" xlink:href="#DejaVuSans-99"/>
      <use x="1277.865234" xlink:href="#DejaVuSans-104"/>
      <use x="1341.244141" xlink:href="#DejaVuSans-95"/>
      <use x="1391.244141" xlink:href="#DejaVuSans-115"/>
      <use x="1443.34375" xlink:href="#DejaVuSans-105"/>
      <use x="1471.126953" xlink:href="#DejaVuSans-122"/>
      <use x="1523.617188" xlink:href="#DejaVuSans-101"/>
      <use x="1585.140625" xlink:href="#DejaVuSans-40"/>
      <use x="1624.154297" xlink:href="#DejaVuSans-50"/>
      <use x="1687.777344" xlink:href="#DejaVuSans-53"/>
      <use x="1751.400391" xlink:href="#DejaVuSans-54"/>
      <use x="1815.023438" xlink:href="#DejaVuSans-41"/>
      <use x="1854.037109" xlink:href="#DejaVuSans-32"/>
      <use x="1885.824219" xlink:href="#DejaVuSans-100"/>
      <use x="1949.300781" xlink:href="#DejaVuSans-114"/>
      <use x="1990.382812" xlink:href="#DejaVuSans-111"/>
      <use x="2051.564453" xlink:href="#DejaVuSans-112"/>
      <use x="2115.041016" xlink:href="#DejaVuSans-111"/>
      <use x="2176.222656" xlink:href="#DejaVuSans-117"/>
      <use x="2239.601562" xlink:href="#DejaVuSans-116"/>
      <use x="2278.810547" xlink:href="#DejaVuSans-40"/>
      <use x="2317.824219" xlink:href="#DejaVuSans-48"/>
      <use x="2381.447266" xlink:href="#DejaVuSans-46"/>
      <use x="2413.234375" xlink:href="#DejaVuSans-51"/>
      <use x="2476.857422" xlink:href="#DejaVuSans-41"/>
     </g>
    </g>
    <g id="line2d_67">
     <path d="M 724.699687 213.946987 
L 760.699687 213.946987 
" style="fill:none;stroke:#ee3377;stroke-linecap:square;stroke-width:1.5;"/>
    </g>
    <g id="line2d_68"/>
    <g id="text_30">
     <!-- learning_rate(0.001) batch_size(128) dropout(0.3) -->
     <g transform="translate(775.099687 220.246987)scale(0.18 -0.18)">
      <use xlink:href="#DejaVuSans-108"/>
      <use x="27.783203" xlink:href="#DejaVuSans-101"/>
      <use x="89.306641" xlink:href="#DejaVuSans-97"/>
      <use x="150.585938" xlink:href="#DejaVuSans-114"/>
      <use x="191.683594" xlink:href="#DejaVuSans-110"/>
      <use x="255.0625" xlink:href="#DejaVuSans-105"/>
      <use x="282.845703" xlink:href="#DejaVuSans-110"/>
      <use x="346.224609" xlink:href="#DejaVuSans-103"/>
      <use x="409.701172" xlink:href="#DejaVuSans-95"/>
      <use x="459.701172" xlink:href="#DejaVuSans-114"/>
      <use x="500.814453" xlink:href="#DejaVuSans-97"/>
      <use x="562.09375" xlink:href="#DejaVuSans-116"/>
      <use x="601.302734" xlink:href="#DejaVuSans-101"/>
      <use x="662.826172" xlink:href="#DejaVuSans-40"/>
      <use x="701.839844" xlink:href="#DejaVuSans-48"/>
      <use x="765.462891" xlink:href="#DejaVuSans-46"/>
      <use x="797.25" xlink:href="#DejaVuSans-48"/>
      <use x="860.873047" xlink:href="#DejaVuSans-48"/>
      <use x="924.496094" xlink:href="#DejaVuSans-49"/>
      <use x="988.119141" xlink:href="#DejaVuSans-41"/>
      <use x="1027.132812" xlink:href="#DejaVuSans-32"/>
      <use x="1058.919922" xlink:href="#DejaVuSans-98"/>
      <use x="1122.396484" xlink:href="#DejaVuSans-97"/>
      <use x="1183.675781" xlink:href="#DejaVuSans-116"/>
      <use x="1222.884766" xlink:href="#DejaVuSans-99"/>
      <use x="1277.865234" xlink:href="#DejaVuSans-104"/>
      <use x="1341.244141" xlink:href="#DejaVuSans-95"/>
      <use x="1391.244141" xlink:href="#DejaVuSans-115"/>
      <use x="1443.34375" xlink:href="#DejaVuSans-105"/>
      <use x="1471.126953" xlink:href="#DejaVuSans-122"/>
      <use x="1523.617188" xlink:href="#DejaVuSans-101"/>
      <use x="1585.140625" xlink:href="#DejaVuSans-40"/>
      <use x="1624.154297" xlink:href="#DejaVuSans-49"/>
      <use x="1687.777344" xlink:href="#DejaVuSans-50"/>
      <use x="1751.400391" xlink:href="#DejaVuSans-56"/>
      <use x="1815.023438" xlink:href="#DejaVuSans-41"/>
      <use x="1854.037109" xlink:href="#DejaVuSans-32"/>
      <use x="1885.824219" xlink:href="#DejaVuSans-100"/>
      <use x="1949.300781" xlink:href="#DejaVuSans-114"/>
      <use x="1990.382812" xlink:href="#DejaVuSans-111"/>
      <use x="2051.564453" xlink:href="#DejaVuSans-112"/>
      <use x="2115.041016" xlink:href="#DejaVuSans-111"/>
      <use x="2176.222656" xlink:href="#DejaVuSans-117"/>
      <use x="2239.601562" xlink:href="#DejaVuSans-116"/>
      <use x="2278.810547" xlink:href="#DejaVuSans-40"/>
      <use x="2317.824219" xlink:href="#DejaVuSans-48"/>
      <use x="2381.447266" xlink:href="#DejaVuSans-46"/>
      <use x="2413.234375" xlink:href="#DejaVuSans-51"/>
      <use x="2476.857422" xlink:href="#DejaVuSans-41"/>
     </g>
    </g>
    <g id="line2d_69">
     <path d="M 724.699687 240.868237 
L 760.699687 240.868237 
" style="fill:none;stroke:#009988;stroke-linecap:square;stroke-width:1.5;"/>
    </g>
    <g id="line2d_70"/>
    <g id="text_31">
     <!-- learning_rate(0.001) batch_size(64) dropout(0.0) -->
     <g transform="translate(775.099687 247.168237)scale(0.18 -0.18)">
      <use xlink:href="#DejaVuSans-108"/>
      <use x="27.783203" xlink:href="#DejaVuSans-101"/>
      <use x="89.306641" xlink:href="#DejaVuSans-97"/>
      <use x="150.585938" xlink:href="#DejaVuSans-114"/>
      <use x="191.683594" xlink:href="#DejaVuSans-110"/>
      <use x="255.0625" xlink:href="#DejaVuSans-105"/>
      <use x="282.845703" xlink:href="#DejaVuSans-110"/>
      <use x="346.224609" xlink:href="#DejaVuSans-103"/>
      <use x="409.701172" xlink:href="#DejaVuSans-95"/>
      <use x="459.701172" xlink:href="#DejaVuSans-114"/>
      <use x="500.814453" xlink:href="#DejaVuSans-97"/>
      <use x="562.09375" xlink:href="#DejaVuSans-116"/>
      <use x="601.302734" xlink:href="#DejaVuSans-101"/>
      <use x="662.826172" xlink:href="#DejaVuSans-40"/>
      <use x="701.839844" xlink:href="#DejaVuSans-48"/>
      <use x="765.462891" xlink:href="#DejaVuSans-46"/>
      <use x="797.25" xlink:href="#DejaVuSans-48"/>
      <use x="860.873047" xlink:href="#DejaVuSans-48"/>
      <use x="924.496094" xlink:href="#DejaVuSans-49"/>
      <use x="988.119141" xlink:href="#DejaVuSans-41"/>
      <use x="1027.132812" xlink:href="#DejaVuSans-32"/>
      <use x="1058.919922" xlink:href="#DejaVuSans-98"/>
      <use x="1122.396484" xlink:href="#DejaVuSans-97"/>
      <use x="1183.675781" xlink:href="#DejaVuSans-116"/>
      <use x="1222.884766" xlink:href="#DejaVuSans-99"/>
      <use x="1277.865234" xlink:href="#DejaVuSans-104"/>
      <use x="1341.244141" xlink:href="#DejaVuSans-95"/>
      <use x="1391.244141" xlink:href="#DejaVuSans-115"/>
      <use x="1443.34375" xlink:href="#DejaVuSans-105"/>
      <use x="1471.126953" xlink:href="#DejaVuSans-122"/>
      <use x="1523.617188" xlink:href="#DejaVuSans-101"/>
      <use x="1585.140625" xlink:href="#DejaVuSans-40"/>
      <use x="1624.154297" xlink:href="#DejaVuSans-54"/>
      <use x="1687.777344" xlink:href="#DejaVuSans-52"/>
      <use x="1751.400391" xlink:href="#DejaVuSans-41"/>
      <use x="1790.414062" xlink:href="#DejaVuSans-32"/>
      <use x="1822.201172" xlink:href="#DejaVuSans-100"/>
      <use x="1885.677734" xlink:href="#DejaVuSans-114"/>
      <use x="1926.759766" xlink:href="#DejaVuSans-111"/>
      <use x="1987.941406" xlink:href="#DejaVuSans-112"/>
      <use x="2051.417969" xlink:href="#DejaVuSans-111"/>
      <use x="2112.599609" xlink:href="#DejaVuSans-117"/>
      <use x="2175.978516" xlink:href="#DejaVuSans-116"/>
      <use x="2215.1875" xlink:href="#DejaVuSans-40"/>
      <use x="2254.201172" xlink:href="#DejaVuSans-48"/>
      <use x="2317.824219" xlink:href="#DejaVuSans-46"/>
      <use x="2349.611328" xlink:href="#DejaVuSans-48"/>
      <use x="2413.234375" xlink:href="#DejaVuSans-41"/>
     </g>
    </g>
   </g>
  </g>
 </g>
 <defs>
  <clipPath id="pa1d6b8f7d0">
   <rect height="530.5608" width="1071.36" x="172.8" y="82.6848"/>
  </clipPath>
 </defs>
</svg>
